<svg width="64" height="64" viewBox="0 0 64 64" fill="none" xmlns="http://www.w3.org/2000/svg">
<g clip-path="url(#clip0_666_402)">
<path d="M21.513 14.6746C21.513 16.6355 22.2106 17.4924 24.3308 17.421C29.0547 17.2562 33.7895 17.2727 38.5133 17.421C40.4248 17.4814 40.9301 16.8278 40.7104 15.103C40.6067 14.1528 40.6214 13.1933 40.7544 12.2467C41.0125 10.4012 42.6164 9.8354 44.05 11.0218C47.0711 13.4991 47.7357 13.4991 50.7952 10.934C51.1419 10.5928 51.605 10.3958 52.0912 10.3826C52.5774 10.3693 53.0505 10.5408 53.4153 10.8626C54.3601 11.6261 54.2942 12.6587 53.5746 13.609C51.2951 16.5641 48.2356 17.1299 44.7312 16.3993C44.0885 18.9754 45.4178 21.1671 46.1099 23.4741C46.368 24.3529 47.0876 24.0233 47.6533 23.9904C56.2166 23.7432 62.05 28.5604 63.2914 36.9095C64.39 44.4731 57.7491 52.3718 50.0427 52.608C42.8526 52.8332 37.1566 49.0541 35.1572 42.7209C33.1084 36.2394 35.5087 29.9171 41.5343 25.9129C42.7043 25.1384 42.7043 25.1384 41.4684 22.3316L30.708 29.7908C26.1014 32.984 21.4965 36.1771 16.8936 39.3703C15.7346 40.1777 14.5042 40.8533 13.5484 39.3373C12.6915 37.9806 13.4496 36.9534 14.7129 36.135C16.8386 34.7673 18.871 33.2568 20.9967 31.8836C21.8206 31.3343 22.0348 30.8784 21.7327 29.8952C20.3046 25.2812 18.9405 20.6489 17.6406 15.9983C17.3275 14.8558 16.8167 14.3889 15.6577 14.5647C15.2467 14.6059 14.8327 14.6059 14.4218 14.5647C14.166 14.583 13.9092 14.5467 13.6686 14.4581C13.4279 14.3695 13.2089 14.2307 13.026 14.051C12.8431 13.8712 12.7006 13.6546 12.6079 13.4155C12.5152 13.1764 12.4744 12.9203 12.4883 12.6642C12.4578 12.4226 12.4792 12.1772 12.5513 11.9445C12.6234 11.7119 12.7443 11.4973 12.9061 11.3152C13.0679 11.1332 13.2667 10.9878 13.4893 10.8889C13.7119 10.79 13.953 10.7398 14.1966 10.7417C17.1407 10.6428 20.0904 10.6538 23.0345 10.7417C23.2785 10.7413 23.52 10.7908 23.744 10.8873C23.9681 10.9838 24.17 11.1252 24.3373 11.3028C24.5046 11.4804 24.6337 11.6904 24.7167 11.9198C24.7996 12.1492 24.8347 12.3932 24.8197 12.6367C24.8423 13.1171 24.6754 13.5872 24.3549 13.9457C24.0343 14.3042 23.5858 14.5226 23.1059 14.5537C22.5774 14.6211 22.0457 14.6614 21.513 14.6746ZM59.4739 38.431C59.4739 32.6196 55.151 28.11 49.2792 27.7365C47.8291 27.6486 47.6314 28.132 48.0928 29.3843C48.9991 31.8726 49.801 34.3938 50.6469 36.904C51.1028 38.2443 51.1962 39.59 49.5484 40.0953C48.0104 40.5622 47.3512 39.4527 46.9503 38.1838C46.1758 35.734 45.231 33.3117 44.5279 30.8344C44.0446 29.1317 43.4294 29.2855 42.2319 30.2247C40.8835 31.355 39.8406 32.8059 39.1991 34.4442C38.5575 36.0825 38.3379 37.8558 38.5603 39.6012C38.7827 41.3465 39.44 43.008 40.4719 44.4331C41.5038 45.8582 42.8773 47.0012 44.4661 47.7571C46.0549 48.5131 47.8081 48.8577 49.5648 48.7595C51.3216 48.6612 53.0254 48.1232 54.52 47.1948C56.0146 46.2663 57.252 44.9773 58.1185 43.446C58.9851 41.9147 59.453 40.1903 59.4794 38.431H59.4739ZM23.2542 21.2385L25.4514 28.7527L35.8218 21.612L35.5801 21.266L23.2542 21.2385Z" fill="#0873E7"/>
<path d="M15.1413 52.6361C6.99547 52.5647 0.63479 46.3194 0.585355 38.3328C0.562858 34.5735 2.01966 30.956 4.64126 28.2614C7.26286 25.5669 10.839 24.0114 14.5975 23.9307C14.8722 23.9307 15.1468 23.9307 15.416 23.9307C16.7287 24.0021 17.7998 24.5514 17.7669 25.952C17.7339 27.3527 16.6683 27.8086 15.3281 27.7811C13.5458 27.702 11.7738 28.0903 10.1879 28.9073C8.60191 29.7244 7.25713 30.9419 6.2869 32.439C5.15269 34.1458 4.54171 36.1466 4.52903 38.1958C4.51634 40.245 5.1025 42.2533 6.21549 43.974C7.34724 45.7452 8.99126 47.13 10.929 47.9444C12.8668 48.7588 15.0065 48.9641 17.0638 48.533C19.0841 48.1669 20.9502 47.2094 22.4258 45.7817C23.9014 44.3541 24.9199 42.5206 25.3525 40.5135C25.4749 40.0535 25.5648 39.5854 25.6216 39.1128C25.715 37.7781 26.462 37.0585 27.7473 37.2178C29.0327 37.3771 29.4666 38.3164 29.4446 39.5852C29.3128 46.4128 22.4523 52.702 15.1413 52.6361Z" fill="#0873E7"/>
</g>
<defs>
<clipPath id="clip0_666_402">
<rect width="64" height="64" fill="white"/>
</clipPath>
</defs>
</svg>
