<svg width="64" height="64" viewBox="0 0 64 64" fill="none" xmlns="http://www.w3.org/2000/svg">
<g clip-path="url(#clip0_666_398)">
<path d="M57.4107 38.1878C57.4107 31.0636 52.8024 25.802 45.781 24.9977C45.031 24.907 44.5714 24.5986 44.5714 23.7882C44.5714 22.7903 44.5714 21.7864 44.5714 20.7643C44.5714 19.8934 44.9827 19.5548 45.8414 19.6031C49.729 19.8189 53.4376 21.3078 56.3951 23.8402C59.3527 26.3726 61.3948 29.8077 62.2066 33.6157C64.6257 44.4169 58.2453 54.5408 47.4804 56.9901C38.1245 59.1552 27.1661 53.168 25.1099 43.0139C24.6079 40.5403 23.9003 38.091 21.8925 36.3311C19.298 34.0693 16.2983 33.2528 12.9781 34.3354C11.3865 34.7928 9.95794 35.6936 8.85921 36.9326C7.76048 38.1717 7.03696 39.6977 6.77316 41.3326C6.5373 42.5421 6.11396 43.038 4.90442 42.9231C4.11217 42.8506 3.30177 42.9231 2.48533 42.9231C1.56608 42.9231 1.27579 42.4393 1.27579 41.5322C1.73541 35.2486 7.58356 29.2734 13.849 28.6989C19.2315 28.203 23.6765 29.9387 27.1177 34.1419C28.6054 35.9562 29.3191 38.1092 29.8271 40.3468C30.8673 44.931 33.1412 48.614 37.5016 50.7489C46.5611 55.2182 57.3805 48.3782 57.4107 38.1878Z" fill="#EA3539"/>
<path d="M38.5477 6.60059C41.3115 6.60059 44.0693 6.60059 46.8331 6.60059C48.7744 6.60059 49.8086 7.56822 49.857 9.51559C49.9114 11.1545 49.857 12.7935 49.857 14.4324C49.857 15.4605 49.3913 16.0108 48.3208 15.9746H47.8975C44.7648 16.0048 44.7466 16.0048 44.6136 12.8842C44.6136 12.2189 44.3959 11.971 43.7125 11.977C40.8338 12.0072 37.955 11.977 35.0703 11.977C34.3567 11.977 34.2538 12.1826 34.5562 12.8176C37.4793 18.9541 40.4003 25.0864 43.3194 31.2148C43.5673 31.741 43.9786 31.7893 44.4684 31.8921C47.4923 32.4969 49.355 34.3778 49.9114 37.3714C50.5162 40.746 47.8673 44.2597 44.3898 44.677C40.7612 45.1125 37.4531 42.5301 37.1326 39.0768C36.9035 37.6384 37.223 36.1664 38.0276 34.9523C38.6324 34.1177 38.4933 33.4887 38.1002 32.6723C34.6086 25.4473 31.1352 18.2102 27.68 10.961C26.5067 8.50562 27.686 6.60059 30.3894 6.60059H38.5477Z" fill="#EA3539"/>
<path d="M15.5001 6.60093C18.0475 6.55881 20.5077 7.52811 22.3419 9.29648C24.176 11.0649 25.2344 13.4881 25.2853 16.0354C25.2853 17.4747 24.6805 17.9162 23.3258 17.378C22.7694 17.1482 22.2493 16.8397 21.6929 16.6341C21.2434 16.4856 20.8362 16.2312 20.5057 15.8922C20.1752 15.5533 19.9311 15.1398 19.7939 14.6867C19.5223 13.84 18.9888 13.1015 18.2703 12.5776C17.5519 12.0537 16.6856 11.7715 15.7964 11.7717C14.8905 11.6793 13.9787 11.8781 13.1935 12.3392C12.4083 12.8003 11.7905 13.4998 11.4299 14.336C11.0213 15.1246 10.8604 16.0183 10.9683 16.9C11.0762 17.7816 11.4479 18.6101 12.0347 19.2769C12.6545 20.0427 13.5087 20.5836 14.4659 20.8163C15.4232 21.0491 16.4304 20.9608 17.3325 20.5651C18.4634 20.1055 21.6082 21.0005 22.3219 22.0045C22.9267 22.8149 22.3763 23.335 21.8078 23.8188C20.1811 25.1617 18.1679 25.9499 16.0617 26.0685C13.9556 26.1871 11.8667 25.6298 10.0994 24.478C8.36302 23.3063 7.04556 21.6113 6.3386 19.6394C5.63164 17.6675 5.57203 15.5216 6.16842 13.5135C6.76648 11.5067 7.99936 9.74811 9.68197 8.50169C11.3646 7.25527 13.4061 6.5883 15.5001 6.60093Z" fill="#EA3539"/>
</g>
<defs>
<clipPath id="clip0_666_398">
<rect width="64" height="64" fill="white"/>
</clipPath>
</defs>
</svg>
