<svg width="65" height="64" viewBox="0 0 65 64" fill="none" xmlns="http://www.w3.org/2000/svg">
<path d="M32.3599 42.9351C31.5382 43.8255 30.8498 44.8211 30.1119 45.7778C28.3769 48.0281 26.7638 50.3592 25.4755 52.8993C24.6584 54.51 24.1888 56.2534 23.6117 57.9541C23.3601 58.6951 23.0888 59.4101 22.3402 59.834C21.7966 60.1389 20.7538 60.0146 20.3742 59.529C19.8946 58.9025 19.5626 58.1757 19.403 57.403C19.1827 56.3624 18.7375 55.4133 18.3983 54.4254C17.8578 52.8528 16.9926 51.4272 16.0969 50.0292C15.5206 49.1304 14.9191 48.2469 14.3291 47.3565C14.3215 47.2574 14.2841 47.1919 14.169 47.2117H14.1614L14.015 47.0699C13.7307 46.4905 13.2047 46.0789 12.9356 45.4957C13.9396 44.2882 14.9389 43.0769 15.9482 41.8748C19.2551 37.9362 22.5635 33.9976 25.8735 30.059C26.0259 29.8722 26.2851 29.7327 26.2081 29.4217C26.9338 28.8576 27.4995 28.1502 28.014 27.397C28.1619 27.3368 28.2389 27.2354 28.2061 27.0692L28.2008 27.0792C28.3136 27.0792 28.3685 27.0281 28.3487 26.9107L28.3411 26.9175C28.787 26.7422 29.0187 26.3321 29.3023 25.9952C32.501 22.1882 35.692 18.3767 38.8754 14.5605C39.6445 15.72 39.9899 17.0502 40.3764 18.3599C40.4526 18.6221 40.5768 18.8722 40.6172 19.1458C40.5723 19.2312 40.6096 19.2884 40.6813 19.3334C40.7042 19.5247 40.7263 19.7145 40.7491 19.9066L40.8315 20.0865C40.8252 20.1089 40.8235 20.1323 40.8265 20.1554C40.8295 20.1784 40.8372 20.2007 40.849 20.2207L40.8696 20.3678L40.9039 20.6727C40.8276 20.9914 40.9595 21.2826 41.0228 21.5875C41.035 21.74 41.0477 21.8924 41.0609 22.0449L41.0563 22.6547C41.1524 23.3156 41.0487 23.9758 41.0563 24.6367C41.0609 24.7892 41.0647 24.9416 41.0693 25.0987C41.0548 25.2999 41.0396 25.5019 41.0251 25.7032C41.0009 25.75 40.987 25.8014 40.9843 25.8539C40.9815 25.9065 40.99 25.9591 41.0091 26.0081C40.9992 26.1004 40.9885 26.1918 40.9778 26.2833C40.8627 26.3809 40.8711 26.4998 40.9168 26.6256L40.8619 27.0784L40.8505 27.2263C40.8279 27.2635 40.819 27.3075 40.8254 27.3505C40.6012 27.846 40.6089 28.3972 40.4556 28.9102C39.8405 31.7079 38.6261 34.2365 37.0443 36.6095C35.7438 38.5587 34.3358 40.4256 32.8753 42.2559C32.7342 42.4335 32.6069 42.6218 32.4735 42.8055C32.457 42.8048 32.4405 42.8078 32.4253 42.8144C32.4101 42.8209 32.3966 42.8307 32.3857 42.8431C32.3748 42.8556 32.3668 42.8703 32.3624 42.8862C32.3579 42.9021 32.3571 42.9189 32.3599 42.9351Z" fill="#34A852"/>
<path d="M26.2089 29.4255C26.2852 29.7366 26.0298 29.8761 25.8735 30.0628C22.5656 34.0009 19.2572 37.9395 15.9483 41.8786C14.939 43.0807 13.9396 44.292 12.9356 45.4995C11.889 44.1937 10.8317 42.8955 9.79798 41.579C8.87482 40.3982 7.95167 39.2181 7.07654 38.0061C6.28984 36.9152 5.52906 35.8022 4.92684 34.5925C4.61683 33.9704 4.30784 33.3476 3.99987 32.724C4.25372 32.6935 4.38102 32.4953 4.52739 32.3246C6.01643 30.5418 7.50572 28.759 8.99527 26.9762C10.4353 25.2519 11.857 23.5116 13.3229 21.8093C13.9632 21.0661 14.5159 20.2435 15.2637 19.5986C15.1997 19.7625 15.1486 19.9333 15.0701 20.0896C14.3685 21.447 14.1008 22.9872 14.3032 24.5018C14.8079 28.4894 18.5599 31.6088 23.0324 30.8122C24.2086 30.5987 25.2233 30.0537 26.2089 29.4255Z" fill="#FABB04"/>
<path d="M38.8753 14.5608C35.6863 18.3754 32.4953 22.1869 29.3022 25.9954C29.0187 26.3324 28.7869 26.7425 28.341 26.9178C28.2701 26.6678 28.4378 26.481 28.5178 26.2737C29.0263 24.945 29.2108 23.5926 28.9752 22.1717C28.3006 18.1056 24.1155 15.2911 20.0875 16.199C18.976 16.4491 18.0064 16.9712 17.068 17.5796C17.2616 16.8287 17.9065 16.3965 18.3479 15.8301C18.9844 15.019 19.6682 14.2429 20.3444 13.4623C21.497 12.1352 22.549 10.7158 23.7168 9.40001C24.6705 8.32516 25.5517 7.18932 26.487 6.10303C26.8202 5.71578 27.2913 5.39942 27.4369 4.85742C29.5966 5.51757 31.6225 6.55452 33.421 7.92037C35.7075 9.63733 37.5673 11.8586 38.8555 14.4114C38.8701 14.4598 38.8768 14.5103 38.8753 14.5608Z" fill="#4285F4"/>
<path d="M15.2638 19.5945C14.516 20.2433 13.9633 21.0658 13.323 21.8052C11.8571 23.5075 10.4354 25.2478 8.99536 26.9721C7.50632 28.758 6.01702 30.542 4.52747 32.3243C4.38187 32.4981 4.25381 32.6933 3.99996 32.7238C3.46711 31.5948 3.13474 30.3888 2.7635 29.1996C2.72004 29.0601 2.7452 28.9 2.7391 28.7498C2.73101 28.2242 2.63277 27.7039 2.44866 27.2115C2.45829 27.1641 2.45129 27.1149 2.42884 27.072C2.44598 27.023 2.45292 26.971 2.44925 26.9193C2.44558 26.8675 2.43137 26.817 2.4075 26.7709L2.36633 26.466C2.40979 26.3402 2.41283 26.2228 2.30382 26.126L2.27867 25.6945C2.27409 25.5969 2.26876 25.4986 2.26342 25.4003L2.21997 24.638C2.28705 23.9268 2.28705 23.2109 2.21997 22.4997C2.23293 22.2954 2.24589 22.0919 2.25961 21.8898C2.26571 21.7923 2.27257 21.6955 2.27867 21.5979L2.30382 21.1664C2.46848 20.9217 2.44256 20.6473 2.43037 20.3744C2.53709 19.0655 2.93349 17.8268 3.38249 16.6078C4.13743 14.5749 5.22027 12.6794 6.58799 10.9965C6.65786 10.9239 6.73443 10.858 6.81668 10.7998C6.83422 11.1306 7.12923 11.2435 7.32895 11.4157C8.34816 12.2901 9.38566 13.1469 10.4056 14.0122C12.2382 15.5678 14.0677 17.1262 15.8942 18.6874C15.7311 19.0213 15.4933 19.3049 15.2638 19.5945Z" fill="#EA4335"/>
<path d="M15.8957 18.6872C14.0662 17.128 12.2367 15.5696 10.4071 14.0119C9.38562 13.1467 8.34812 12.2899 7.32739 11.4155C7.12767 11.2432 6.83266 11.1304 6.81512 10.7996C7.14597 10.4459 7.55914 10.1661 7.7642 9.69727C7.84043 9.51355 8.05082 9.43961 8.22158 9.34813C8.2382 9.34983 8.25499 9.34804 8.27089 9.3429C8.28678 9.33775 8.30143 9.32936 8.3139 9.31824C8.32638 9.30713 8.33641 9.29355 8.34335 9.27835C8.35029 9.26315 8.35399 9.24668 8.35422 9.22997C9.87884 7.62303 11.7351 6.50396 13.7376 5.60063C15.0886 4.98662 16.5128 4.54853 17.9753 4.29709C17.9912 4.30672 18.0091 4.31279 18.0276 4.31487C18.0461 4.31694 18.0649 4.31498 18.0825 4.30911C18.1002 4.30324 18.1164 4.2936 18.13 4.28087C18.1436 4.26813 18.1543 4.2526 18.1613 4.23534L18.4456 4.20408C18.4982 4.25516 18.5425 4.24372 18.5798 4.18503L18.8916 4.14462C18.9442 4.17059 19.0041 4.17795 19.0614 4.16549C19.1187 4.15302 19.1701 4.12148 19.2072 4.07602L19.5121 4.05315C19.5526 4.08699 19.6047 4.1039 19.6573 4.10035C19.71 4.0968 19.7593 4.07307 19.7949 4.03409L20.2866 3.99902H22.8556L23.4776 4.03638L23.7681 4.05086L24.1873 4.08211C24.2089 4.11438 24.2412 4.13788 24.2785 4.14837C24.3159 4.15885 24.3557 4.15563 24.3909 4.13929L24.6958 4.17893L24.8483 4.19417L25.1227 4.22772C25.1303 4.24487 25.1414 4.26026 25.1552 4.27289C25.1691 4.28552 25.1855 4.29511 25.2033 4.30107C25.221 4.30702 25.2399 4.3092 25.2586 4.30746C25.2772 4.30573 25.2954 4.30012 25.3117 4.29099L25.6167 4.33368L25.763 4.35883C26.2966 4.61878 26.9019 4.63021 27.4447 4.85662C27.2991 5.39862 26.828 5.71498 26.4948 6.10223C25.5526 7.1908 24.6714 8.32435 23.717 9.39921C22.5484 10.7149 21.4964 12.1344 20.3438 13.4654C19.6676 14.246 18.9838 15.022 18.3473 15.8331C17.9029 16.3995 17.261 16.8317 17.0674 17.5826L15.8957 18.6872Z" fill="#1A73E8"/>
</svg>
