<svg width="65" height="64" viewBox="0 0 65 64" fill="none" xmlns="http://www.w3.org/2000/svg">
<path d="M46.7883 24.6992C44.221 25.0225 41.8927 26.056 39.6779 27.3405C38.9746 27.7481 38.3521 27.7704 37.6849 27.3405C35.6214 25.9924 33.5338 24.6889 31.5098 23.2909C30.2408 22.4139 29.044 21.4269 27.8643 20.4278C27.1885 19.8552 27.2143 19.3599 27.8884 18.7839C28.2706 18.4347 28.7216 18.1694 29.2125 18.0049C30.4162 17.661 31.6474 17.4151 32.8718 17.1451C33.5751 16.9904 34.0755 17.2466 34.5759 17.8037C39.6469 23.4783 46.6628 23.4061 52.4784 20.1613C52.9359 19.9068 53.297 19.4734 53.7028 19.1295C53.4638 18.992 53.3589 19.0212 53.2591 19.0573C50.5071 20.0791 47.5385 20.3752 44.6389 19.9171C40.7182 19.2774 38.3091 16.8218 37.0727 13.1454C36.9007 12.6157 36.672 12.3062 36.0788 12.3337C34.0548 12.4266 32.0102 12.3612 30.0104 12.6243C27.3502 12.9682 24.8207 13.828 22.7142 15.5992C20.1675 17.7418 19.8459 21.2291 22.102 23.6692C23.077 24.725 24.2979 25.5866 25.5051 26.3896C27.4705 27.6965 29.3535 29.0825 30.8977 30.8846C32.5485 32.8105 32.662 33.4485 31.1126 35.4501C28.9941 38.1894 26.8326 40.9098 24.5008 43.4651C21.8991 46.311 18.6388 47.7537 14.67 47.3376C6.8063 46.5104 2.52454 37.5359 6.92151 30.9774C9.65909 26.8917 13.6502 25.6553 18.4427 25.9717C18.0122 25.7257 17.5685 25.5035 17.1135 25.3063C15.5659 24.7336 13.9615 24.7457 12.3709 24.995C2.83234 26.4893 -1.86384 37.8764 3.90364 45.63C7.8157 50.8851 13.4525 52.4035 19.8115 51.0725C22.5955 50.4896 24.9479 49.0193 26.8618 47.016C29.8281 43.9208 32.5897 40.6192 35.4597 37.4328C37.396 35.2902 39.2892 33.0943 41.3717 31.1013C43.6243 28.9466 46.4152 28.006 49.5672 28.3173C52.8447 28.6423 55.8162 29.6929 57.8453 32.4288C60.3283 35.7716 60.6585 39.4791 58.8908 43.2088C57.0336 47.1295 53.732 49.1655 49.4451 49.5404C46.2123 49.8172 43.5039 48.4415 41.0157 46.5156L40.2436 45.9241C40.2694 46.8303 40.6047 47.4201 41.5642 48.2369C44.7042 50.9057 48.3428 51.8102 52.377 51.2015C60.9233 49.9101 66.0546 41.0955 62.7994 33.108C60.0549 26.3672 53.8094 23.8119 46.7883 24.6992Z" fill="#F96400"/>
<path d="M34.5452 10.0146C36.0314 9.67009 37.5904 9.83544 38.9714 10.4841C39.7778 10.8538 40.1888 11.4419 40.2387 12.343C40.3436 14.2345 41.4424 15.6256 43.2411 16.2C44.9177 16.7365 46.4206 16.4046 47.6639 15.1682C48.8091 14.0333 49.2115 12.6319 48.6956 11.0773C48.1505 9.41279 46.8402 8.45155 45.2564 7.9821C41.8018 6.97614 38.3729 7.19453 35.0954 8.76967C34.4523 9.07747 33.9089 9.58991 33.3191 10.0095L33.4807 10.2571C33.835 10.1763 34.1892 10.0955 34.5452 10.0146Z" fill="#F96400"/>
</svg>
