<svg width="64" height="64" viewBox="0 0 64 64" fill="none" xmlns="http://www.w3.org/2000/svg">
<path d="M31.9972 21.9482C32.3373 20.7883 32.5441 19.6092 32.9722 18.4887C33.4178 17.3229 33.969 16.2147 34.6598 15.1758C35.3309 14.1662 36.1092 13.2461 36.9893 12.4124C37.8693 11.5782 38.8315 10.8543 39.8768 10.2392C40.9211 9.62456 42.0202 9.13735 43.1764 8.77274C44.3678 8.39694 45.5853 8.18904 46.8289 8.07764C48.0432 7.96889 49.2506 8.02806 50.4414 8.21676C57.9207 9.40227 63.4964 15.5228 63.9682 23.0735C64.1398 25.8192 63.6163 28.4456 62.425 30.928C61.2336 33.4105 59.5049 35.4489 57.265 37.0539C55.0278 38.6573 52.5118 39.5576 49.7852 40.0006C54.5086 40.733 58.3311 42.9196 61.0976 46.8215C62.9974 49.5007 63.9277 52.5007 63.9922 55.8371C63.7347 55.8893 63.538 55.9501 63.3381 55.965C63.0556 55.9858 62.7698 55.973 62.4857 55.973C42.1647 55.973 21.8442 55.973 1.52312 55.9719C1.0679 55.9719 0.612114 55.957 0.101449 55.9479C0.0737305 55.6414 0.0230915 55.4032 0.0358848 55.1681C0.232581 51.5348 1.50233 48.3194 3.87868 45.5641C6.48744 42.539 9.80144 40.7629 13.7434 40.1429C13.8825 40.1211 14.0221 40.0981 14.1602 40.0704C14.1837 40.0656 14.2018 40.0347 14.2833 39.9601C9.42883 39.2618 5.53699 37.0246 2.76992 32.9888C0.574804 29.7873 -0.306331 26.2153 0.0934587 22.3731C0.920757 14.4322 7.4011 8.3463 15.4246 8.03979C23.0403 7.74928 30.5265 12.9967 31.9978 21.9477L31.9972 21.9482ZM31.9567 26.017C31.8927 26.194 31.8426 26.2841 31.8288 26.3789C30.8272 33.3134 25.3234 38.6919 18.7418 39.7671C18.567 39.7959 18.3932 39.8348 18.221 39.8785C18.0909 39.9116 17.9646 39.9595 17.665 40.0555C19.6219 40.3284 21.3255 40.7906 22.9364 41.571C24.5489 42.3519 25.9929 43.3663 27.2653 44.627C28.5377 45.8876 29.5633 47.3226 30.3661 48.9239C31.1582 50.5044 31.6065 52.1931 32.0132 53.9389C32.3139 52.5449 32.6555 51.1872 33.195 49.8887C33.743 48.5705 34.4514 47.3455 35.3245 46.216C36.2201 45.0577 37.2542 44.0395 38.429 43.1643C39.5735 42.3119 40.8113 41.6275 42.1386 41.0992C43.452 40.5763 44.8236 40.2799 46.2175 40.0107C45.7687 39.8748 45.3172 39.8002 44.871 39.701C44.387 39.5933 43.9035 39.4777 43.4275 39.338C42.9856 39.2085 42.5485 39.0576 42.121 38.8876C41.6604 38.7042 41.2052 38.5032 40.7617 38.2815C40.3496 38.0757 39.9488 37.8444 39.5575 37.6019C39.1657 37.3588 38.7809 37.1018 38.4131 36.8252C38.0165 36.5267 37.6321 36.2095 37.2627 35.8785C36.9194 35.5709 36.59 35.2458 36.2776 34.9067C35.9413 34.5416 35.6188 34.1621 35.3144 33.7703C35.0319 33.4067 34.768 33.0261 34.5191 32.6386C34.2702 32.2511 34.034 31.8534 33.8208 31.4451C33.5916 31.0053 33.3821 30.5538 33.1907 30.0959C33.0132 29.6711 32.8528 29.2372 32.7179 28.7969C32.5729 28.3225 32.4892 27.8294 32.3357 27.3582C32.2009 26.9435 32.3219 26.4477 31.9578 26.0181L31.9567 26.017Z" fill="black"/>
</svg>
