<svg width="64" height="64" viewBox="0 0 64 64" fill="none" xmlns="http://www.w3.org/2000/svg">
<g clip-path="url(#clip0_688_1190)">
<path d="M31.9443 1.52181C35.5103 1.47699 38.9567 2.09373 42.2815 3.36133C42.911 3.60248 43.4168 3.51498 44.0015 3.24183C50.8517 0.0429342 58.4979 4.03355 59.7954 11.4749C60.1219 13.3507 59.8381 15.1689 59.1253 16.9081C58.7839 17.7382 58.8436 18.4467 59.2149 19.2491C66.0865 34.0763 59.8082 52.0724 45.1603 59.3067C37.1684 63.2547 28.9567 63.4873 20.6767 60.1689C19.9234 59.8659 19.2896 59.8616 18.5363 60.1049C11.287 62.4608 3.80089 56.8846 3.96094 49.2705C3.98442 48.1565 4.20209 47.0724 4.62889 46.0502C4.88711 45.4356 4.83803 44.9064 4.57768 44.3195C2.66133 39.9832 1.82053 35.4378 2.0318 30.7088C2.3647 23.2888 4.98315 16.7736 9.98528 11.2785C15.0237 5.74503 21.3148 2.56534 28.7476 1.67332C29.8039 1.54742 30.8773 1.56876 31.9422 1.52181H31.9443ZM32.5291 51.5475C33.5512 51.4941 34.8039 51.6414 36.031 51.3725C44.8999 49.4305 51.1932 42.0745 51.9038 33.7647C52.1556 30.824 52.0446 27.8705 50.8816 25.0536C50.5252 24.1915 50.0664 23.7412 49.0741 23.7647C48.1949 23.7839 47.3007 23.6516 46.4343 23.4787C42.4117 22.6827 38.2909 19.3793 37.7553 13.6601C37.6678 12.7233 37.2644 12.3861 36.3938 12.2538C33.8116 11.8633 31.2166 11.684 28.6558 12.2196C18.6942 14.3003 11.1889 23.4766 12.8555 35.1774C12.9964 36.1676 13.2631 37.1215 13.6153 38.0562C13.8308 38.626 14.2042 38.8821 14.8252 38.8906C15.6746 38.9034 16.5431 38.8949 17.369 39.0634C21.4684 39.9043 26.0822 43.4574 26.2316 49.1659C26.2721 50.7344 26.6071 51.0075 28.1714 51.2999C29.5457 51.556 30.9285 51.5411 32.5312 51.5453L32.5291 51.5475Z" fill="#3FCB56"/>
</g>
<defs>
<clipPath id="clip0_688_1190">
<rect width="64" height="64" fill="white"/>
</clipPath>
</defs>
</svg>
