<svg width="64" height="64" viewBox="0 0 64 64" fill="none" xmlns="http://www.w3.org/2000/svg">
<g clip-path="url(#clip0_919_440)">
<path d="M64 0H0V64H64V0Z" fill="#F77C38"/>
<path d="M33.6564 7.95313C40.8065 8.07601 48.0205 11.5064 53.1969 18.5541C60.8769 28.9963 57.9124 42.6437 48.9805 49.8424C40.9601 56.3192 32.0001 57.6351 22.505 54.2149C10.3117 49.8219 3.40997 37.2395 7.65701 24.6392C10.0941 17.4072 15.1988 12.5432 22.3258 9.72721C25.4695 8.50097 28.6951 7.95057 33.6564 7.95313ZM33.2135 51.8904C35.2223 52.0139 37.235 51.7238 39.1271 51.0379C42.0685 49.9909 42.3092 49.3637 40.7911 46.6859C40.0743 45.4239 39.2321 44.2258 38.7943 42.8203C38.674 42.4287 38.4641 42.0088 38.7943 41.6376C39.1245 41.2664 39.5623 41.4277 39.9489 41.5583C41.5258 42.0703 43.1181 42.5362 44.6772 43.0943C47.0913 43.9595 47.8413 43.6063 48.8244 41.2024C49.6639 39.0768 50.1524 36.8288 50.2708 34.5464C50.6881 28.277 49.2877 22.5656 44.8717 17.9064C40.6605 13.4546 35.2897 11.9928 29.3812 12.7583C24.2663 13.4059 20.1165 15.8712 17.1956 20.2795C15.209 23.2952 14.3361 26.5976 14.0365 30.092C13.6577 34.5387 14.3668 38.9112 16.6401 42.7179C20.2625 48.8287 25.7076 52.1131 33.2135 51.8904Z" fill="white"/>
</g>
<defs>
<clipPath id="clip0_919_440">
<rect width="64" height="64" fill="white"/>
</clipPath>
</defs>
</svg>
