<svg width="64" height="63" viewBox="0 0 64 63" fill="none" xmlns="http://www.w3.org/2000/svg">
<g clip-path="url(#clip0_625_239)">
<path d="M64 9.57272V20.3698C63.973 20.3655 63.9458 20.3627 63.9184 20.3614C60.6257 20.3614 57.3331 20.3614 54.0406 20.3614C53.8647 20.3614 53.667 20.4043 53.5186 20.3386C53.3661 20.2712 53.331 20.0532 53.2403 19.9035L53.1824 19.8083C51.8851 17.6703 50.2104 15.88 48.189 14.4141C44.9929 12.0968 41.3851 10.9877 37.4702 10.8073C36.2839 10.7556 35.0954 10.7928 33.9147 10.9187C32.4764 11.0638 31.0547 11.3429 29.6683 11.7524C26.4724 12.7062 23.6235 14.2738 21.1871 16.5651C20.0109 17.6711 18.992 18.9035 18.2184 20.3274C17.8228 21.0557 17.5047 21.8143 17.3805 22.6425C17.3126 23.096 17.3101 23.096 17.7521 23.096H34.2521C34.3356 23.096 34.4191 23.1029 34.5027 23.096C34.6853 23.0779 34.8167 23.1369 34.9222 23.2972C35.0594 23.506 35.2217 23.6981 35.3734 23.8971C37.2479 26.3512 39.1223 28.8054 40.9967 31.2598C41.1766 31.4956 41.2089 31.4435 41.0051 31.6977C38.8192 34.4258 36.6343 37.1548 34.4503 39.8846C34.3036 40.0686 34.1572 40.1449 33.9172 40.1443C28.8995 40.1369 23.8817 40.1351 18.864 40.1388C18.3724 40.1388 17.8807 40.1388 17.3886 40.1388C17.138 40.1388 17.1255 40.1563 17.1528 40.413C17.2085 40.9419 17.356 41.4491 17.5562 41.9405C18.0266 43.0941 18.707 44.1191 19.4995 45.0717C21.1843 47.0975 23.2365 48.6628 25.5708 49.8657C28.5174 51.3854 31.6645 52.1484 34.9637 52.3016C36.3903 52.3728 37.8206 52.3075 39.2349 52.1067C40.5321 51.9188 41.8004 51.619 43.0334 51.18C45.3396 50.3659 47.4591 49.0974 49.2664 47.4496C50.6616 46.1802 51.8626 44.7513 52.7812 43.098C52.8878 42.9062 53.0039 42.8499 53.2146 42.8505C56.461 42.8572 59.7072 42.859 62.9533 42.8561C63.3789 42.8561 63.3283 42.8004 63.3285 43.218C63.3302 46.3809 63.3307 49.5438 63.3299 52.7066C63.3299 53.4582 63.2868 54.2074 63.1612 54.9501C62.9179 56.3899 62.4068 57.7178 61.5188 58.8897C60.5662 60.1489 59.3279 61.038 57.8959 61.6699C56.0029 62.5051 54.0039 62.8422 51.9475 62.8859C51.5118 62.8951 51.0756 62.8915 50.6391 62.892C46.4013 62.8984 42.1629 62.887 37.9251 62.9296C36.7937 62.9408 35.6621 62.9357 34.5305 62.9402C29.3186 62.9605 24.1065 62.9371 18.8946 62.9814C16.1403 63.0048 13.3854 62.9903 10.6308 62.9903C9.86146 62.992 9.0935 62.9239 8.33642 62.7868C5.53145 62.2749 3.41268 60.7825 1.969 58.3296C1.06787 56.7985 0.561218 55.1299 0.275876 53.3872C0.190413 52.8656 0.132788 52.3405 0.0913091 51.8136C0.0812873 51.6836 0.119147 51.5332 -0.000556946 51.426V15.8616C0.154502 15.8099 0.0960416 15.6774 0.0965983 15.5777C0.100774 14.6139 0.111074 13.6502 0.0965983 12.6867C0.0779571 11.4541 0.193611 10.2232 0.441514 9.01568C0.813432 7.19144 1.44369 5.4716 2.52938 3.94133C3.4202 2.68583 4.54431 1.70119 5.93733 1.03335C7.22485 0.417573 8.58669 0.108012 10.0092 0.0509439C10.0872 0.0476033 10.1776 0.0810091 10.24 0H15.4157C15.4992 0.0871335 15.6086 0.0453763 15.7052 0.0456546C22.6233 0.0651414 29.5408 0.0322923 36.4597 0.0952066C38.6867 0.115528 40.9113 0.105785 43.1369 0.108569C46.2901 0.112837 49.4433 0.115343 52.5966 0.116085C53.6448 0.116085 54.6904 0.121375 55.7312 0.271701C56.7534 0.418965 57.7489 0.661435 58.7018 1.06286C60.6037 1.86516 62.0513 3.16325 62.9497 5.03649C63.5899 6.36771 63.8939 7.78217 63.9518 9.25425C63.9552 9.36059 63.9165 9.47723 64 9.57272Z" fill="#FBC211"/>
</g>
<defs>
<clipPath id="clip0_625_239">
<rect width="64" height="62.9939" fill="white"/>
</clipPath>
</defs>
</svg>
