<svg width="64" height="64" viewBox="0 0 64 64" fill="none" xmlns="http://www.w3.org/2000/svg">
<rect width="64" height="64" fill="#0097DC"/>
<path d="M30.0376 28.1035H20.7559C20.7559 28.1035 15.8355 28.1594 15.8355 33.8627V63.8885H30.0376V28.1035Z" fill="white"/>
<path d="M33.9516 28.1035H43.2333C43.2333 28.1035 48.1538 28.1594 48.1538 33.8627V63.8885H33.9516V28.1035Z" fill="white"/>
<path d="M30.0376 18.4864C30.3172 15.2993 28.0247 12.5036 24.8376 12.1681C21.7064 11.8885 18.9107 14.1251 18.5753 17.2563C18.5193 17.7036 18.5193 18.1509 18.5753 18.5982C18.9107 21.7853 21.7624 24.0778 24.9495 23.7423C27.6333 23.3509 29.7021 21.1703 30.0376 18.4864Z" fill="white"/>
<path d="M45.4699 18.4864C45.7495 15.2993 43.457 12.5036 40.2699 12.1681C37.1387 11.8885 34.343 14.1251 34.0075 17.2563C33.9516 17.7036 33.9516 18.1509 34.0075 18.5982C34.343 21.7853 37.1946 24.0778 40.3817 23.7423C43.0097 23.295 45.1344 21.1703 45.4699 18.4864Z" fill="white"/>
</svg>
