<svg width="64" height="63" viewBox="0 0 64 63" fill="none" xmlns="http://www.w3.org/2000/svg">
<path d="M50.4387 16.0943C50.3613 15.9932 50.3512 15.8214 50.4118 15.7103C51.493 13.8105 52.5743 11.914 53.6522 10.0143C53.733 9.87615 53.696 9.67741 53.5747 9.57299L48.421 5.22773C48.3032 5.12667 48.1044 5.12331 47.9798 5.22099L42.7924 9.26983C42.6947 9.34731 42.5263 9.36078 42.4152 9.30352C40.2829 8.21552 37.376 7.37341 36.3385 7.1612C36.2139 7.13425 36.0893 7.01299 36.0657 6.88499C35.6514 4.71573 35.237 2.5431 34.8227 0.373833C34.7924 0.215517 34.6375 0.0875169 34.4758 0.0908853L27.7356 0.124569C27.5806 0.124569 27.4257 0.252569 27.3954 0.404148L26.0244 7.0972C26.0008 7.20836 25.8931 7.32962 25.7853 7.36331C25.3238 7.50141 24.1549 7.85846 23.2792 8.17173C22.1137 8.61299 21.6893 8.8252 20.5339 9.41131C20.4261 9.4652 20.261 9.45173 20.1667 9.38099L14.8682 5.45678C14.7402 5.36246 14.5381 5.37257 14.4202 5.48036L9.48884 10.0749C9.37431 10.1827 9.34737 10.378 9.42821 10.5128L12.6316 15.8281C12.6989 15.9393 12.6888 16.1111 12.6147 16.2155C12.2981 16.65 11.9646 17.1519 11.7187 17.5292C11.5166 17.8425 11.6581 18.085 12.032 18.0681C40.7141 16.8353 41.3305 27.6884 40.8724 30.9692C40.8724 30.9759 40.869 30.9894 40.869 30.9961L40.805 31.2926C40.7276 31.6564 40.9432 31.8349 41.2867 31.69C45.4029 29.9216 51.0013 19.8871 51.7962 18.4353C51.8501 18.3376 51.8467 18.1827 51.7895 18.0884C51.7154 17.9772 50.496 16.1684 50.4387 16.0943Z" fill="#289E49"/>
<path d="M56.7107 36.6349C56.8556 35.7423 56.9364 34.8497 56.9768 33.9503C56.9836 33.8257 57.0846 33.6842 57.2025 33.6404L63.4476 31.2758C63.5958 31.2185 63.6968 31.0433 63.6665 30.885L62.4674 24.2526C62.4404 24.0977 62.2888 23.9697 62.1339 23.9663L55.4375 23.7743C55.3162 23.7709 55.1781 23.6766 55.1276 23.5654C54.8379 22.9322 54.3663 22.1406 54.0463 21.6286C53.8611 21.3356 53.5882 21.3524 53.4366 21.6623C41.7145 45.4063 31.0804 41.1958 27.9646 39.2286C27.4762 38.9187 27.2472 39.1006 27.4459 39.6429C27.4459 39.6429 29.5444 46.6156 33.7549 56.1482C33.8088 56.2661 33.9537 56.3638 34.0851 56.3604C34.688 56.3436 35.7592 56.2863 36.864 56.1078C36.9886 56.0876 37.1436 56.1549 37.2143 56.2593C38.4371 58.1153 39.6564 59.968 40.8792 61.824C40.9667 61.9587 41.1587 62.016 41.3069 61.9553L47.5183 59.3347C47.6632 59.2741 47.7541 59.0989 47.7272 58.944L46.5044 52.6383C46.4808 52.5137 46.5549 52.3654 46.6526 52.2846C47.4072 51.6716 50.2737 49.3305 50.9137 48.6231C50.9979 48.5322 51.1596 48.4884 51.2775 48.5254L57.6674 50.5768C57.8189 50.6273 58.0076 50.5499 58.0817 50.4084L61.2783 44.4732C61.3524 44.3351 61.3154 44.1398 61.1975 44.0387L56.1819 39.8012C56.0876 39.7204 56.0371 39.5587 56.0741 39.4374C56.3335 38.5212 56.5491 37.5848 56.7107 36.6349Z" fill="#F29422"/>
<path d="M27.8501 23.747C28.1701 23.9727 28.1196 24.2455 27.749 24.3668C24.5996 25.374 15.7743 30.6691 29.5006 55.5887C29.669 55.8986 29.5242 56.131 29.1739 56.1074C28.5608 56.067 27.6446 56.003 27.0484 55.9255C26.9272 55.9087 26.7756 55.9828 26.7116 56.0839L23.2421 61.5306C23.1579 61.662 22.9693 61.726 22.8244 61.6687L16.5154 59.2973C16.3638 59.2401 16.2661 59.0649 16.293 58.9066C16.6669 56.8013 17.0442 54.6927 17.4181 52.5874C17.4417 52.4594 17.3709 52.2978 17.2598 52.2304C16.384 51.7015 15.3297 50.782 15.3297 50.782V50.7651L15.3229 50.782C14.6257 50.206 13.9655 49.5929 13.3423 48.9495C13.2581 48.862 13.0964 48.8215 12.9819 48.862L6.592 50.9841C6.44379 51.0346 6.25852 50.9639 6.17768 50.8291L2.77895 45.0085C2.6981 44.8704 2.73179 44.6716 2.85305 44.5672L7.79452 40.3062C7.89221 40.222 7.936 40.0535 7.89558 39.9323C7.56884 38.942 6.912 36.9243 6.7301 33.4548C6.72337 33.3302 6.62905 33.1887 6.51116 33.1415L0.33684 30.6455C0.191998 30.5883 0.0943141 30.4131 0.12463 30.2582L1.30358 23.6224C1.33052 23.4641 1.48547 23.3361 1.64716 23.3327L8.62652 23.2822C8.66021 23.2013 8.69389 23.1205 8.72758 23.043C8.78147 22.9218 9.02063 22.3996 9.088 22.2615C9.1621 22.11 9.65052 21.1668 9.65052 21.1668C9.70442 21.0624 9.84589 20.9782 9.96379 20.9815C22.5145 21.0354 26.6105 22.8679 27.8501 23.747Z" fill="#E62737"/>
</svg>
