<svg width="64" height="64" viewBox="0 0 64 64" fill="none" xmlns="http://www.w3.org/2000/svg">
<g clip-path="url(#clip0_625_232)">
<path fill-rule="evenodd" clip-rule="evenodd" d="M53.4151 18.3363C53.7395 17.8988 54.1881 17.3122 54.7296 16.6153C55.242 15.9565 55.7124 15.3575 56.1829 14.7621C56.3476 14.5537 56.5005 14.3606 56.6377 14.1878C56.7199 14.0843 56.7787 14.0104 56.8094 13.9718C57.3065 13.3478 57.2672 12.4527 56.7174 11.8746L52.1506 7.07338C51.5616 6.45417 50.5897 6.40787 49.9446 6.96829C49.9065 7.00135 49.9065 7.00136 49.7326 7.15215C49.5632 7.29889 49.3741 7.46245 49.1701 7.63862C48.5873 8.14179 48.0019 8.6449 47.452 9.11404C46.7757 9.69077 46.2548 10.1304 45.8464 10.4688C43.5764 8.85878 40.8331 7.73884 37.6894 7.04268C37.6388 6.60835 37.5791 6.05888 37.5121 5.41576C37.4966 5.26602 37.4807 5.11186 37.4645 4.95364C37.3916 4.24148 37.3159 3.47777 37.2419 2.71397C37.2159 2.44657 37.1921 2.19829 37.1708 1.97553C37.1491 1.7466 37.1491 1.7466 37.1443 1.69634C37.067 0.875394 36.3778 0.248047 35.5532 0.248047H29.0289C28.2252 0.248047 27.5466 0.844895 27.4439 1.642C27.4375 1.69179 27.4375 1.69179 27.4081 1.91812C27.3795 2.13832 27.3475 2.38374 27.3129 2.64806C27.2139 3.40309 27.1135 4.15803 27.018 4.86212C26.9996 4.99746 26.9996 4.99746 26.9812 5.13247C26.8843 5.84242 26.7994 6.44672 26.73 6.91784C23.6243 7.5111 20.736 8.68062 18.2732 10.3697C17.8729 10.0565 17.3591 9.6384 16.7605 9.14018C16.0793 8.57183 15.5104 8.08999 14.9469 7.60803C14.7495 7.43925 14.567 7.28257 14.4039 7.14204C14.3063 7.05798 14.2366 6.9978 14.2006 6.96667C13.5661 6.41725 12.6148 6.45224 12.0223 7.0468L7.45558 11.6302C6.90352 12.1843 6.83359 13.0565 7.29032 13.6914C7.31989 13.7325 7.31989 13.7325 7.45436 13.9198C7.5852 14.1021 7.73102 14.3055 7.88807 14.5249C8.33668 15.1517 8.78525 15.7808 9.20361 16.3711C9.73373 17.1194 10.1439 17.7036 10.4536 18.1521C8.66239 20.5445 7.39298 23.6609 6.99639 26.7441C6.90959 26.7518 6.81847 26.7596 6.72323 26.7676C6.25114 26.8071 5.68779 26.8489 5.05305 26.8921C4.33338 26.941 3.56112 26.9892 2.7887 27.0345C2.51822 27.0503 2.2671 27.0647 2.04184 27.0773C1.90697 27.0848 1.81048 27.0901 1.76014 27.0928C0.912159 27.1385 0.248001 27.8394 0.248001 28.6887V35.2357C0.248001 36.0542 0.866328 36.7404 1.68036 36.8253C1.73157 36.8306 1.8288 36.8409 1.96547 36.8555C2.19391 36.88 2.44862 36.9078 2.72298 36.9382C3.50636 37.0251 4.28951 37.1162 5.01892 37.2068C5.43564 37.2586 5.82288 37.3088 6.17468 37.3569C6.53571 37.4063 6.85482 37.4528 7.12577 37.4957C7.54726 40.2105 8.73225 42.7949 10.6697 45.7055C10.3391 46.1484 9.88363 46.7348 9.33423 47.4274C8.7717 48.1353 8.28046 48.7455 7.78911 49.3508C7.61707 49.5627 7.45734 49.7588 7.31407 49.9342C7.22831 50.0392 7.16695 50.1141 7.13503 50.153C6.60486 50.7991 6.66201 51.7445 7.26614 52.3221L11.8323 56.687C12.4092 57.2385 13.3046 57.2798 13.9299 56.7837C13.9684 56.7532 14.043 56.6942 14.1474 56.6118C14.3218 56.4741 14.517 56.3205 14.728 56.1551C15.3305 55.6828 15.9385 55.2106 16.5131 54.7707C17.3733 54.1136 17.9736 53.6663 18.4199 53.3491C21.6336 55.3255 24.1263 56.4436 26.8082 56.8613C26.8178 56.9539 26.8276 57.0518 26.8376 57.1547C26.8844 57.6356 26.9339 58.2145 26.9852 58.8696C27.0417 59.5924 27.0973 60.3682 27.1494 61.1442C27.1677 61.4159 27.1842 61.6682 27.1987 61.8945C27.2074 62.0299 27.2135 62.1269 27.2166 62.1772C27.2686 63.0201 27.9673 63.677 28.8117 63.677H35.1182C35.9375 63.677 36.6242 63.0573 36.7079 62.2422C36.7132 62.1912 36.7233 62.0943 36.7377 61.958C36.7618 61.7301 36.7892 61.4761 36.8193 61.2024C36.9052 60.4211 36.9956 59.6399 37.0861 58.9126C37.1448 58.4409 37.2016 58.0076 37.2558 57.6212C37.3042 57.2759 37.3499 56.9727 37.392 56.718C40.4968 56.0236 43.366 54.8273 45.8683 53.1608C46.2917 53.4871 46.8447 53.9343 47.4936 54.4729C47.5763 54.5416 47.5763 54.5416 47.6589 54.6104C48.2173 55.0755 48.8071 55.5749 49.3908 56.0743C49.5952 56.2493 49.7842 56.4116 49.953 56.5573C50.054 56.6444 50.1256 56.7063 50.1632 56.7389C50.8089 57.2992 51.7812 57.252 52.3697 56.6318L56.7186 52.0491C57.2949 51.4418 57.3049 50.4928 56.7416 49.8735C56.7086 49.8373 56.646 49.7683 56.5578 49.6708C56.4104 49.5077 56.2461 49.3251 56.069 49.1276C55.5634 48.5635 55.0579 47.9929 54.5871 47.4523C54.5117 47.3655 54.5117 47.3655 54.4363 47.2787C53.9224 46.686 53.4916 46.1759 53.1695 45.7762C54.8774 43.3996 56.0535 40.7113 56.6978 37.6503C56.8778 37.6234 57.0815 37.5949 57.3066 37.5653C57.7583 37.506 58.2867 37.4433 58.8757 37.3784C59.6072 37.2979 60.3928 37.2182 61.1786 37.1431C61.4539 37.1168 61.7094 37.0929 61.9385 37.072C62.0756 37.0594 62.1731 37.0507 62.2243 37.0462C63.0492 36.9733 63.6819 36.2823 63.6819 35.4542V28.4708C63.6819 27.6286 63.0283 26.931 62.1879 26.8761C62.1373 26.8728 62.0401 26.8663 61.9043 26.8571C61.6774 26.8418 61.4245 26.8243 61.1521 26.8051C60.3741 26.7502 59.5962 26.692 58.8715 26.6332C58.3049 26.5873 57.7943 26.5428 57.354 26.5006C57.11 26.4773 56.8901 26.4548 56.6968 26.4335C55.8742 23.3321 54.864 20.8438 53.4151 18.3363ZM58.5258 34.2013C57.9163 34.2685 57.3667 34.3337 56.8904 34.3962C56.3269 34.4703 55.8728 34.5396 55.5325 34.6058C55.3147 34.6482 55.1354 34.6906 54.9786 34.7404C54.8435 34.7833 54.7204 34.832 54.5904 34.9033C54.4652 34.9719 54.3455 35.0546 54.2254 35.1694C53.9902 35.3943 53.8078 35.6882 53.7422 36.078C53.1773 39.462 51.9237 42.2821 49.9666 44.7079C49.6218 45.1342 49.5597 45.5809 49.6279 46.0019C49.6557 46.1734 49.7028 46.3149 49.7641 46.4535C49.8267 46.5947 49.9018 46.7252 49.9962 46.8693C50.1241 47.0647 50.2986 47.3 50.5238 47.5851C50.8926 48.0522 51.4012 48.6574 52.0214 49.3726C52.099 49.462 52.099 49.462 52.1766 49.5512C52.5633 49.9953 52.9715 50.4576 53.3838 50.9198L51.0977 53.3289C50.6267 52.9277 50.1564 52.5308 49.7047 52.1546C49.62 52.084 49.62 52.084 49.5351 52.0135C48.7993 51.4028 48.1774 50.9012 47.6993 50.537C47.4095 50.3164 47.1714 50.1451 46.9765 50.0202C46.8364 49.9304 46.711 49.8587 46.5783 49.799C46.4501 49.7413 46.3205 49.6959 46.1637 49.6657C45.7518 49.5864 45.3213 49.6246 44.8773 49.9524C42.314 51.8478 39.2213 53.1449 35.8048 53.7809C35.3977 53.8568 35.1054 54.0536 34.8834 54.3027C34.7768 54.4224 34.7006 54.5396 34.6368 54.6623C34.5706 54.7897 34.5239 54.912 34.4817 55.0481C34.4304 55.2137 34.3843 55.4091 34.3369 55.6483C34.2611 56.031 34.1793 56.544 34.0904 57.1774C34.0338 57.5815 33.9749 58.0309 33.9143 58.518C33.8361 59.1459 33.7584 59.8105 33.6834 60.4807H30.308C30.2641 59.8452 30.2183 59.216 30.1717 58.6203C30.1191 57.9469 30.0679 57.349 30.0189 56.8454C29.9696 56.3374 29.9231 55.931 29.8782 55.6296C29.8497 55.4378 29.821 55.2811 29.7866 55.1442C29.7557 55.021 29.7203 54.9096 29.6651 54.787C29.5965 54.6395 29.5965 54.6395 29.4225 54.3973C29.127 54.0638 29.127 54.0638 28.2967 53.8172C25.5394 53.6114 23.0268 52.4973 19.2945 50.1262C18.831 49.8321 18.4373 49.8256 18.0407 49.9182C17.9069 49.9494 17.7953 49.9905 17.6835 50.0412C17.5646 50.0951 17.4481 50.1596 17.3159 50.2404C17.1252 50.357 16.8871 50.5177 16.5955 50.7244C16.1096 51.0688 15.4739 51.5424 14.7205 52.1177C14.6451 52.1753 14.6451 52.1753 14.5699 52.2329C14.0747 52.6121 13.5567 53.0135 13.0387 53.4184L10.5414 51.0312C10.948 50.5288 11.3507 50.0275 11.7316 49.5483C11.785 49.481 11.785 49.481 11.8385 49.4137C12.4368 48.6593 12.9299 48.0237 13.2886 47.5402C13.503 47.2514 13.6696 47.0167 13.7902 46.8309C13.873 46.7035 13.9391 46.5922 13.995 46.4797C14.0486 46.3716 14.0927 46.2646 14.1285 46.134C14.2486 45.6968 14.2532 45.2707 13.8959 44.7615C11.5993 41.4845 10.3812 38.8279 10.1797 36.0896C10.1437 35.5952 9.9209 35.2429 9.62661 34.9849C9.4984 34.8726 9.37486 34.7956 9.24476 34.7316C9.11694 34.6687 8.99471 34.6248 8.85684 34.5846C8.68858 34.5356 8.48593 34.4904 8.23528 34.4431C7.83005 34.3667 7.28292 34.2824 6.60754 34.1901C6.2419 34.1401 5.84202 34.0882 5.41313 34.0349C4.78328 33.9567 4.11657 33.8784 3.44431 33.8026V30.1975C4.06807 30.1599 4.68538 30.1208 5.27004 30.081C5.92001 30.0368 6.49906 29.9938 6.98974 29.9528C7.50372 29.9098 7.9145 29.8694 8.21668 29.8309C8.40522 29.8069 8.55793 29.783 8.68844 29.755C8.80352 29.7303 8.90656 29.7023 9.02045 29.6583C9.15907 29.6035 9.15907 29.6035 9.40385 29.4514C9.77115 29.1824 9.77115 29.1824 10.0734 28.2173C10.2172 25.0272 11.6291 21.5673 13.6225 19.3179C14.2708 18.5832 14.2116 18.3355 13.8837 17.5915C13.8517 17.5188 13.8198 17.4581 13.7823 17.3923C13.7405 17.3192 13.6893 17.2366 13.6242 17.136C13.5186 16.9727 13.3697 16.7516 13.1783 16.473C12.8495 15.9946 12.3989 15.3522 11.8551 14.5846C11.4484 14.0107 11.0633 13.4702 10.6752 12.9273L13.2399 10.3533C13.6898 10.7364 14.1385 11.1153 14.569 11.4746C14.6424 11.5358 14.6424 11.5358 14.7159 11.597C15.4244 12.1867 16.0225 12.6717 16.4802 13.0242C16.7569 13.2372 16.9833 13.4027 17.1667 13.5236C17.2981 13.6102 17.4148 13.6794 17.5376 13.7383C17.659 13.7963 17.781 13.8429 17.9309 13.8769C18.3677 13.976 18.8204 13.9484 19.2969 13.5779C21.784 11.6474 24.9141 10.3789 28.3345 9.8898C29.2572 9.75708 29.3728 9.54969 29.628 8.81388C29.6531 8.74154 29.6704 8.67844 29.6869 8.60857C29.7049 8.53257 29.7221 8.44565 29.7414 8.33864C29.7722 8.16709 29.8099 7.93195 29.855 7.63316C29.9329 7.11709 30.0322 6.41447 30.1482 5.56472C30.1668 5.4284 30.1668 5.4284 30.1853 5.29184C30.2654 4.7011 30.3489 4.07561 30.432 3.44435H34.1015C34.1628 4.0713 34.2247 4.69211 34.2848 5.27912C34.3011 5.4391 34.3172 5.59506 34.333 5.74665C34.4178 6.56119 34.4915 7.23103 34.5514 7.72213C34.5862 8.00722 34.6163 8.2321 34.6426 8.39868C34.6596 8.50685 34.6758 8.59602 34.6943 8.67751C34.7122 8.75632 34.7319 8.82867 34.7623 8.91266C34.9819 9.52046 35.1569 9.80745 35.9898 9.95888C39.6062 10.6266 42.5933 11.856 44.8263 13.7126C45.5515 14.3146 45.9327 14.2245 46.568 13.9164C46.6549 13.8743 46.7249 13.8326 46.799 13.7838C46.8771 13.7324 46.9611 13.6713 47.0618 13.5944C47.2196 13.4739 47.4296 13.3055 47.6926 13.0894C48.1414 12.7205 48.7412 12.2154 49.4566 11.6054C49.964 11.1725 50.4229 10.7787 50.885 10.3805L53.4449 13.0719C53.0472 13.5763 52.653 14.079 52.2806 14.5577C51.6352 15.3884 51.1635 16.0054 50.8192 16.4708C50.6159 16.7457 50.4574 16.967 50.3431 17.1373C50.2681 17.2491 50.2081 17.3444 50.1574 17.4362C50.1097 17.5224 50.0692 17.6057 50.0316 17.7072C49.8577 18.1755 49.8067 18.5477 50.1663 19.1301C51.8886 21.9214 52.9634 24.5543 53.8481 28.2025C53.9623 28.6702 54.2111 28.9544 54.5134 29.1604C54.7286 29.2892 54.7286 29.2892 54.8586 29.3417C54.9704 29.3856 55.075 29.4153 55.1916 29.442C55.3326 29.4742 55.4996 29.5027 55.7052 29.5317C56.0385 29.5787 56.489 29.6287 57.0491 29.6824C57.5066 29.7262 58.0321 29.772 58.6131 29.8191C59.2125 29.8677 59.8459 29.9158 60.4855 29.962V33.9988C59.8164 34.0641 59.153 34.1323 58.5258 34.2013Z" fill="#FF3B30"/>
<path fill-rule="evenodd" clip-rule="evenodd" d="M31.5834 16.248C22.7728 16.248 15.6326 23.4121 15.6326 32.2468C15.6326 41.0815 22.7728 48.2456 31.5834 48.2456C40.3935 48.2456 47.5335 41.0814 47.5335 32.2468C47.5335 23.4122 40.3935 16.248 31.5834 16.248ZM31.5834 19.4444C38.6258 19.4444 44.3372 25.1751 44.3372 32.2468C44.3372 39.3185 38.6258 45.0493 31.5834 45.0493C24.5405 45.0493 18.8289 39.3186 18.8289 32.2468C18.8289 25.175 24.5405 19.4444 31.5834 19.4444Z" fill="#FF3B30"/>
</g>
<defs>
<clipPath id="clip0_625_232">
<rect width="64" height="64" fill="white"/>
</clipPath>
</defs>
</svg>
