<svg width="445" height="329" viewBox="0 0 445 329" fill="none" xmlns="http://www.w3.org/2000/svg">
<path d="M164.982 228.373H151.87V251.421H120.108V228.373H72.627V204.754L122.144 132.352H151.871V204.347H164.983V228.373H164.982ZM120.108 204.347V190.502C120.108 187.896 120.202 184.382 120.393 179.955C120.582 175.531 120.731 173.209 120.841 172.992H119.945C118.099 177.173 116.008 181.083 113.674 184.72L100.48 204.347H120.108Z" fill="#4A9FF5"/>
<path d="M259.373 192.049C259.373 213.116 255.843 228.549 248.786 238.35C241.728 248.15 230.922 253.049 216.373 253.049C202.147 253.049 191.424 247.933 184.203 237.697C176.981 227.464 173.371 212.246 173.371 192.048C173.371 170.873 176.9 155.346 183.959 145.463C191.016 135.582 201.822 130.641 216.373 130.641C230.544 130.641 241.253 135.786 248.501 146.074C255.749 156.365 259.373 171.688 259.373 192.049ZM205.377 192.049C205.377 205.515 206.218 214.772 207.902 219.821C209.584 224.87 212.408 227.395 216.372 227.395C220.389 227.395 223.225 224.789 224.882 219.576C226.538 214.364 227.366 205.189 227.366 192.049C227.366 178.856 226.524 169.611 224.842 164.318C223.158 159.024 220.334 156.378 216.372 156.378C212.408 156.378 209.584 158.931 207.902 164.033C206.218 169.137 205.377 178.475 205.377 192.049Z" fill="#4A9FF5"/>
<path d="M360.442 228.373H347.331V251.421H315.568V228.373H268.087V204.754L317.604 132.352H347.331V204.347H360.442V228.373ZM315.568 204.347V190.502C315.568 187.896 315.662 184.382 315.853 179.955C316.042 175.531 316.191 173.209 316.301 172.992H315.405C313.559 177.173 311.467 181.083 309.134 184.72L295.941 204.347H315.568Z" fill="#4A9FF5"/>
<path d="M24.903 158.771H73.04" stroke="black" stroke-width="2.1628" stroke-miterlimit="10" stroke-linecap="round" stroke-linejoin="round"/>
<path d="M84.594 158.771H94.87" stroke="black" stroke-width="2.1628" stroke-miterlimit="10" stroke-linecap="round" stroke-linejoin="round"/>
<path d="M16.186 145.223H102.361" stroke="black" stroke-width="2.1628" stroke-miterlimit="10" stroke-linecap="round" stroke-linejoin="round"/>
<path d="M9.093 145.223H2" stroke="black" stroke-width="2.1628" stroke-miterlimit="10" stroke-linecap="round" stroke-linejoin="round"/>
<path d="M16.186 132.352H44.796" stroke="black" stroke-width="2.1628" stroke-miterlimit="10" stroke-linecap="round" stroke-linejoin="round"/>
<path d="M52.456 132.352H112.541" stroke="black" stroke-width="2.1628" stroke-miterlimit="10" stroke-linecap="round" stroke-linejoin="round"/>
<path d="M365.162 266.258H416.674" stroke="black" stroke-width="2.1628" stroke-miterlimit="10" stroke-linecap="round" stroke-linejoin="round"/>
<path d="M425.052 266.258H432.503" stroke="black" stroke-width="2.1628" stroke-miterlimit="10" stroke-linecap="round" stroke-linejoin="round"/>
<path d="M375.449 252.709H442.956" stroke="black" stroke-width="2.1628" stroke-miterlimit="10" stroke-linecap="round" stroke-linejoin="round"/>
<path d="M370.305 252.709H365.162" stroke="black" stroke-width="2.1628" stroke-miterlimit="10" stroke-linecap="round" stroke-linejoin="round"/>
<path d="M365.162 239.838H396.194" stroke="black" stroke-width="2.1628" stroke-miterlimit="10" stroke-linecap="round" stroke-linejoin="round"/>
<path d="M401.748 239.838H425.052" stroke="black" stroke-width="2.1628" stroke-miterlimit="10" stroke-linecap="round" stroke-linejoin="round"/>
<path d="M171.147 227.917H158.035V250.965H126.273V227.917H78.792V204.298L128.309 131.896H158.036V203.891H171.148L171.147 227.917ZM126.272 203.891V190.046C126.272 187.44 126.366 183.926 126.557 179.499C126.746 175.075 126.895 172.753 127.005 172.536H126.109C124.263 176.717 122.172 180.627 119.838 184.264L106.644 203.891H126.272Z" stroke="black" stroke-width="3.2675" stroke-miterlimit="10"/>
<path d="M265.537 191.594C265.537 212.661 262.007 228.094 254.95 237.895C247.892 247.695 237.086 252.594 222.537 252.594C208.311 252.594 197.588 247.478 190.367 237.242C183.145 227.009 179.535 211.791 179.535 191.593C179.535 170.418 183.064 154.891 190.122 145.008C197.179 135.127 207.985 130.186 222.536 130.186C236.707 130.186 247.416 135.331 254.664 145.619C261.914 155.91 265.537 171.234 265.537 191.594ZM211.542 191.594C211.542 205.06 212.383 214.317 214.067 219.366C215.749 224.415 218.573 226.94 222.537 226.94C226.554 226.94 229.39 224.334 231.047 219.121C232.703 213.909 233.531 204.734 233.531 191.593C233.531 178.4 232.689 169.155 231.007 163.862C229.323 158.568 226.499 155.922 222.537 155.922C218.573 155.922 215.749 158.475 214.067 163.577C212.383 168.682 211.542 178.021 211.542 191.594Z" stroke="black" stroke-width="3.2675" stroke-miterlimit="10"/>
<path d="M366.607 227.917H353.495V250.965H321.733V227.917H274.252V204.298L323.769 131.896H353.496V203.891H366.608L366.607 227.917ZM321.733 203.891V190.046C321.733 187.44 321.827 183.926 322.018 179.499C322.207 175.075 322.356 172.753 322.466 172.536H321.57C319.724 176.717 317.632 180.627 315.299 184.264L302.106 203.891H321.733Z" stroke="black" stroke-width="3.2675" stroke-miterlimit="10"/>
<path d="M162.81 301.949V274.905H179.132V277.81H166.085V286.948H178.287V289.853H166.085V299.044H179.343V301.949H162.81ZM185.034 301.949V274.905H194.172C196.285 274.905 198.019 275.266 199.375 275.988C200.731 276.701 201.734 277.683 202.386 278.933C203.037 280.183 203.363 281.605 203.363 283.198C203.363 284.791 203.037 286.204 202.386 287.437C201.734 288.669 200.735 289.638 199.388 290.342C198.041 291.037 196.32 291.385 194.225 291.385H186.83V288.427H194.119C195.563 288.427 196.725 288.216 197.606 287.793C198.495 287.371 199.137 286.772 199.533 285.997C199.938 285.214 200.141 284.281 200.141 283.198C200.141 282.115 199.938 281.169 199.533 280.359C199.129 279.549 198.481 278.924 197.592 278.484C196.703 278.035 195.528 277.81 194.067 277.81H188.309V301.949H185.034ZM197.764 289.801L204.419 301.949H200.616L194.067 289.801H197.764ZM208.82 301.949V274.905H217.958C220.071 274.905 221.805 275.266 223.161 275.988C224.516 276.701 225.52 277.683 226.171 278.933C226.823 280.183 227.149 281.605 227.149 283.198C227.149 284.791 226.823 286.204 226.171 287.437C225.52 288.669 224.521 289.638 223.174 290.342C221.827 291.037 220.106 291.385 218.011 291.385H210.616V288.427H217.905C219.349 288.427 220.511 288.216 221.391 287.793C222.28 287.371 222.923 286.772 223.319 285.997C223.724 285.214 223.927 284.281 223.927 283.198C223.927 282.115 223.724 281.169 223.319 280.359C222.914 279.549 222.267 278.924 221.378 278.484C220.489 278.035 219.314 277.81 217.852 277.81H212.095V301.949H208.82ZM221.55 289.801L228.205 301.949H224.402L217.852 289.801H221.55ZM255.424 288.427C255.424 291.28 254.909 293.744 253.879 295.822C252.849 297.9 251.436 299.502 249.64 300.629C247.844 301.756 245.793 302.319 243.487 302.319C241.18 302.319 239.129 301.756 237.333 300.629C235.537 299.502 234.124 297.9 233.094 295.822C232.064 293.744 231.549 291.28 231.549 288.427C231.549 285.575 232.064 283.11 233.094 281.032C234.124 278.955 235.537 277.353 237.333 276.226C239.129 275.099 241.18 274.535 243.487 274.535C245.793 274.535 247.844 275.099 249.64 276.226C251.436 277.353 252.849 278.955 253.879 281.032C254.909 283.11 255.424 285.575 255.424 288.427ZM252.255 288.427C252.255 286.086 251.863 284.109 251.079 282.498C250.305 280.887 249.253 279.668 247.923 278.84C246.603 278.013 245.124 277.599 243.487 277.599C241.849 277.599 240.366 278.013 239.036 278.84C237.716 279.668 236.664 280.887 235.88 282.498C235.106 284.109 234.718 286.086 234.718 288.427C234.718 290.769 235.106 292.745 235.88 294.356C236.664 295.967 237.716 297.187 239.036 298.014C240.366 298.842 241.849 299.255 243.487 299.255C245.124 299.255 246.603 298.842 247.923 298.014C249.253 297.187 250.305 295.967 251.079 294.356C251.863 292.745 252.255 290.769 252.255 288.427ZM260.93 301.949V274.905H270.068C272.181 274.905 273.915 275.266 275.271 275.988C276.627 276.701 277.631 277.683 278.282 278.933C278.933 280.183 279.259 281.605 279.259 283.198C279.259 284.791 278.933 286.204 278.282 287.437C277.631 288.669 276.631 289.638 275.284 290.342C273.937 291.037 272.216 291.385 270.121 291.385H262.726V288.427H270.016C271.459 288.427 272.621 288.216 273.502 287.793C274.391 287.371 275.034 286.772 275.43 285.997C275.835 285.214 276.037 284.281 276.037 283.198C276.037 282.115 275.835 281.169 275.43 280.359C275.025 279.549 274.378 278.924 273.489 278.484C272.599 278.035 271.424 277.81 269.963 277.81H264.205V301.949H260.93ZM273.66 289.801L280.316 301.949H276.512L269.963 289.801H273.66Z" fill="black"/>
<path d="M387.642 155.834V144.795" stroke="black" stroke-width="2.1628" stroke-miterlimit="10" stroke-linecap="round" stroke-linejoin="round"/>
<path d="M379.936 159.027L372.131 151.221" stroke="black" stroke-width="2.1628" stroke-miterlimit="10" stroke-linecap="round" stroke-linejoin="round"/>
<path d="M376.745 166.732H365.706" stroke="black" stroke-width="2.1628" stroke-miterlimit="10" stroke-linecap="round" stroke-linejoin="round"/>
<path d="M379.936 174.438L372.131 182.243" stroke="black" stroke-width="2.1628" stroke-miterlimit="10" stroke-linecap="round" stroke-linejoin="round"/>
<path d="M387.642 177.629V188.668" stroke="black" stroke-width="2.1628" stroke-miterlimit="10" stroke-linecap="round" stroke-linejoin="round"/>
<path d="M395.348 174.438L403.154 182.243" stroke="black" stroke-width="2.1628" stroke-miterlimit="10" stroke-linecap="round" stroke-linejoin="round"/>
<path d="M398.54 166.732H409.579" stroke="black" stroke-width="2.1628" stroke-miterlimit="10" stroke-linecap="round" stroke-linejoin="round"/>
<path d="M395.348 159.027L403.154 151.221" stroke="black" stroke-width="2.1628" stroke-miterlimit="10" stroke-linecap="round" stroke-linejoin="round"/>
<path d="M41.414 210.801V202.822" stroke="black" stroke-width="2.1628" stroke-miterlimit="10" stroke-linecap="round" stroke-linejoin="round"/>
<path d="M35.844 213.109L30.202 207.467" stroke="black" stroke-width="2.1628" stroke-miterlimit="10" stroke-linecap="round" stroke-linejoin="round"/>
<path d="M33.537 218.68H25.558" stroke="black" stroke-width="2.1628" stroke-miterlimit="10" stroke-linecap="round" stroke-linejoin="round"/>
<path d="M35.844 224.25L30.202 229.892" stroke="black" stroke-width="2.1628" stroke-miterlimit="10" stroke-linecap="round" stroke-linejoin="round"/>
<path d="M41.414 226.557V234.536" stroke="black" stroke-width="2.1628" stroke-miterlimit="10" stroke-linecap="round" stroke-linejoin="round"/>
<path d="M46.984 224.25L52.626 229.892" stroke="black" stroke-width="2.1628" stroke-miterlimit="10" stroke-linecap="round" stroke-linejoin="round"/>
<path d="M49.291 218.68H57.271" stroke="black" stroke-width="2.1628" stroke-miterlimit="10" stroke-linecap="round" stroke-linejoin="round"/>
<path d="M46.984 213.109L52.626 207.467" stroke="black" stroke-width="2.1628" stroke-miterlimit="10" stroke-linecap="round" stroke-linejoin="round"/>
<path d="M257.336 45.9878V38.0078" stroke="black" stroke-width="2.1628" stroke-miterlimit="10" stroke-linecap="round" stroke-linejoin="round"/>
<path d="M251.766 48.2943L246.124 42.6523" stroke="black" stroke-width="2.1628" stroke-miterlimit="10" stroke-linecap="round" stroke-linejoin="round"/>
<path d="M249.459 53.8652H241.48" stroke="black" stroke-width="2.1628" stroke-miterlimit="10" stroke-linecap="round" stroke-linejoin="round"/>
<path d="M251.766 59.4355L246.124 65.0776" stroke="black" stroke-width="2.1628" stroke-miterlimit="10" stroke-linecap="round" stroke-linejoin="round"/>
<path d="M257.336 61.7422V69.7212" stroke="black" stroke-width="2.1628" stroke-miterlimit="10" stroke-linecap="round" stroke-linejoin="round"/>
<path d="M262.906 59.4355L268.548 65.0776" stroke="black" stroke-width="2.1628" stroke-miterlimit="10" stroke-linecap="round" stroke-linejoin="round"/>
<path d="M265.213 53.8652H273.192" stroke="black" stroke-width="2.1628" stroke-miterlimit="10" stroke-linecap="round" stroke-linejoin="round"/>
<path d="M262.906 48.2943L268.548 42.6523" stroke="black" stroke-width="2.1628" stroke-miterlimit="10" stroke-linecap="round" stroke-linejoin="round"/>
<path d="M354.788 267.629H81.027V310.727H354.788V267.629Z" stroke="black" stroke-width="2.4187" stroke-miterlimit="10" stroke-linecap="round" stroke-linejoin="round"/>
<path d="M102.361 112.933V78.4043H281.854V155.124" stroke="black" stroke-width="2.1628" stroke-miterlimit="10" stroke-linecap="round" stroke-linejoin="round"/>
<path d="M218.589 53.8652V97.0952H337.617V116.763" stroke="black" stroke-width="2.1628" stroke-miterlimit="10" stroke-linecap="round" stroke-linejoin="round"/>
<path d="M106.644 117.217C106.644 119.583 104.726 121.5 102.361 121.5C99.995 121.5 98.078 119.582 98.078 117.217C98.078 114.852 99.996 112.934 102.361 112.934C104.727 112.934 106.644 114.851 106.644 117.217Z" stroke="black" stroke-width="2.1628" stroke-miterlimit="10" stroke-linecap="round" stroke-linejoin="round"/>
<path d="M218.589 53.8648C220.954 53.8648 222.872 51.9473 222.872 49.5818C222.872 47.2164 220.954 45.2988 218.589 45.2988C216.224 45.2988 214.306 47.2164 214.306 49.5818C214.306 51.9473 216.224 53.8648 218.589 53.8648Z" stroke="black" stroke-width="2.1628" stroke-miterlimit="10" stroke-linecap="round" stroke-linejoin="round"/>
<path d="M341.9 121.498C341.9 123.863 339.982 125.781 337.617 125.781C335.251 125.781 333.334 123.863 333.334 121.498C333.334 119.132 335.252 117.215 337.617 117.215C339.982 117.215 341.9 119.133 341.9 121.498Z" stroke="black" stroke-width="2.1628" stroke-miterlimit="10" stroke-linecap="round" stroke-linejoin="round"/>
<path d="M286.137 160.117C286.137 162.482 284.219 164.4 281.854 164.4C279.489 164.4 277.571 162.482 277.571 160.117C277.571 157.751 279.489 155.834 281.854 155.834C284.219 155.834 286.137 157.752 286.137 160.117Z" stroke="black" stroke-width="2.1628" stroke-miterlimit="10" stroke-linecap="round" stroke-linejoin="round"/>
<path d="M74.448 245.898L64.314 256.032" stroke="black" stroke-width="2.1628" stroke-miterlimit="10" stroke-linecap="round" stroke-linejoin="round"/>
<path d="M64.314 245.898L74.448 256.032" stroke="black" stroke-width="2.1628" stroke-miterlimit="10" stroke-linecap="round" stroke-linejoin="round"/>
<path d="M79.515 98.7344L69.381 108.869" stroke="black" stroke-width="2.1628" stroke-miterlimit="10" stroke-linecap="round" stroke-linejoin="round"/>
<path d="M69.381 98.7344L79.515 108.869" stroke="black" stroke-width="2.1628" stroke-miterlimit="10" stroke-linecap="round" stroke-linejoin="round"/>
<path d="M408.221 213.611L398.086 223.746" stroke="black" stroke-width="2.1628" stroke-miterlimit="10" stroke-linecap="round" stroke-linejoin="round"/>
<path d="M398.086 213.611L408.221 223.746" stroke="black" stroke-width="2.1628" stroke-miterlimit="10" stroke-linecap="round" stroke-linejoin="round"/>
<path d="M120.623 40.8952C117.391 40.8952 114.433 42.0582 112.136 43.9842C109.79 36.9222 103.142 31.8242 95.293 31.8242C86.506 31.8242 79.228 38.2132 77.806 46.5952C76.88 46.3302 75.905 46.1792 74.893 46.1792C69.05 46.1792 64.314 50.9162 64.314 56.7582C64.314 62.1332 68.326 66.5612 73.516 67.2382V67.3382H120.623C127.925 67.3382 133.845 61.4192 133.845 54.1162C133.845 46.8152 127.925 40.8952 120.623 40.8952Z" stroke="black" stroke-width="2.2614" stroke-miterlimit="10" stroke-linecap="round" stroke-linejoin="round"/>
<path d="M365.758 108.153C368.106 108.153 370.255 108.997 371.924 110.396C373.628 105.266 378.458 101.562 384.16 101.562C390.544 101.562 395.831 106.205 396.864 112.294C397.537 112.101 398.245 111.992 398.98 111.992C403.225 111.992 406.666 115.433 406.666 119.678C406.666 123.583 403.752 126.799 399.981 127.29V127.363H365.759C360.454 127.363 356.154 123.062 356.154 117.758C356.154 112.454 360.453 108.153 365.758 108.153Z" stroke="black" stroke-width="2.1628" stroke-miterlimit="10" stroke-linecap="round" stroke-linejoin="round"/>
<path d="M412.942 289.847C410.973 289.847 409.171 290.556 407.771 291.729C406.342 287.427 402.291 284.32 397.509 284.32C392.155 284.32 387.721 288.213 386.855 293.32C386.291 293.159 385.697 293.067 385.08 293.067C381.52 293.067 378.634 295.953 378.634 299.513C378.634 302.788 381.078 305.486 384.241 305.898V305.959H412.941C417.39 305.959 420.997 302.353 420.997 297.904C420.997 293.454 417.391 289.847 412.942 289.847Z" stroke="black" stroke-width="2.1628" stroke-miterlimit="10" stroke-linecap="round" stroke-linejoin="round"/>
<path d="M23.406 272.848C25.754 272.848 27.903 273.693 29.572 275.092C31.276 269.962 36.106 266.258 41.808 266.258C48.192 266.258 53.479 270.9 54.512 276.989C55.185 276.796 55.893 276.687 56.628 276.687C60.873 276.687 64.314 280.128 64.314 284.373C64.314 288.278 61.4 291.495 57.629 291.986V292.058H23.406C18.101 292.058 13.801 287.758 13.801 282.453C13.801 277.148 18.101 272.848 23.406 272.848Z" stroke="black" stroke-width="2.1628" stroke-miterlimit="10" stroke-linecap="round" stroke-linejoin="round"/>
<path d="M133.845 34.5527C133.845 34.5527 194.285 -14.7244 276.405 7.97765C362.668 31.8246 379.936 93.3347 379.936 93.3347" stroke="black" stroke-width="2.1628" stroke-miterlimit="10" stroke-linecap="round" stroke-linejoin="round" stroke-dasharray="3.27 7.62"/>
<path d="M42.586 177.775C19.155 181.409 7.376 231.138 33.732 250.879" stroke="black" stroke-width="2.0166" stroke-miterlimit="10" stroke-linecap="round" stroke-linejoin="round" stroke-dasharray="3.05 7.11"/>
<path d="M337.617 321.261C337.617 321.261 377.755 338.807 395.349 314.328" stroke="black" stroke-width="2.1628" stroke-miterlimit="10" stroke-linecap="round" stroke-linejoin="round" stroke-dasharray="3.27 7.62"/>
<path d="M146.666 121.498V96.1523" stroke="black" stroke-width="2.1628" stroke-miterlimit="10" stroke-linecap="round" stroke-linejoin="round"/>
<path d="M140.548 121.498V108.869" stroke="black" stroke-width="2.1628" stroke-miterlimit="10" stroke-linecap="round" stroke-linejoin="round"/>
<path d="M239.823 127.363V108.826" stroke="black" stroke-width="2.1628" stroke-miterlimit="10" stroke-linecap="round" stroke-linejoin="round"/>
<path d="M232.873 125.782V118.094" stroke="black" stroke-width="2.1628" stroke-miterlimit="10" stroke-linecap="round" stroke-linejoin="round"/>
<path d="M226.707 125.783V112.934" stroke="black" stroke-width="2.1628" stroke-miterlimit="10" stroke-linecap="round" stroke-linejoin="round"/>
<path d="M152.547 121.499V108.826" stroke="black" stroke-width="2.1628" stroke-miterlimit="10" stroke-linecap="round" stroke-linejoin="round"/>
<path d="M320.548 125.027V119.357" stroke="black" stroke-width="2.1628" stroke-miterlimit="10" stroke-linecap="round" stroke-linejoin="round"/>
<path d="M314.43 125.027V111.217" stroke="black" stroke-width="2.1628" stroke-miterlimit="10" stroke-linecap="round" stroke-linejoin="round"/>
<path d="M326.429 125.026V115.162" stroke="black" stroke-width="2.1628" stroke-miterlimit="10" stroke-linecap="round" stroke-linejoin="round"/>
</svg>
