<svg width="228" height="80" viewBox="0 0 228 80" fill="none" xmlns="http://www.w3.org/2000/svg">
<path d="M82.656 36.25V13.85H86.624L93.664 24.218L100.64 13.85H104.64V36.25H100.928V19.706L93.632 30.49L86.368 19.77V36.25H82.656ZM109.937 36.25V13.85H113.649V36.25H109.937ZM128.665 36.634C126.51 36.634 124.59 36.1433 122.905 35.162C121.241 34.1593 119.929 32.794 118.969 31.066C118.03 29.3167 117.561 27.3113 117.561 25.05C117.561 22.7887 118.03 20.794 118.969 19.066C119.929 17.3167 121.241 15.9513 122.905 14.97C124.569 13.9673 126.478 13.466 128.633 13.466C130.083 13.466 131.449 13.7327 132.729 14.266C134.009 14.778 135.139 15.4927 136.121 16.41C137.123 17.3273 137.891 18.394 138.425 19.61L135.033 20.986C134.649 20.1753 134.126 19.4607 133.465 18.842C132.825 18.202 132.089 17.7113 131.257 17.37C130.425 17.0287 129.55 16.858 128.633 16.858C127.225 16.858 125.966 17.21 124.857 17.914C123.769 18.618 122.905 19.5887 122.265 20.826C121.646 22.042 121.337 23.45 121.337 25.05C121.337 26.65 121.646 28.0687 122.265 29.306C122.905 30.5433 123.779 31.514 124.889 32.218C126.019 32.922 127.299 33.274 128.729 33.274C129.667 33.274 130.542 33.0927 131.353 32.73C132.185 32.346 132.921 31.8233 133.561 31.162C134.222 30.5007 134.745 29.7327 135.128 28.858L138.521 30.234C137.987 31.4927 137.23 32.6127 136.249 33.594C135.267 34.554 134.126 35.3007 132.825 35.834C131.523 36.3673 130.137 36.634 128.665 36.634ZM157.069 36.25V13.85H160.782V36.25H157.069ZM142.094 36.25V13.85H145.806V36.25H142.094ZM145.006 26.458V23.066H158.574V26.458H145.006ZM166.094 36.25V13.85H179.885V17.242H169.806V23.194H178.702V26.522H169.806V32.858H179.982V36.25H166.094ZM184.969 36.25V13.85H188.681V32.858H198.825V36.25H184.969ZM201.937 36.25V13.85H215.729V17.242H205.649V23.194H214.545V26.522H205.649V32.858H215.825V36.25H201.937ZM82.656 66.25V43.85H86.368V62.858H96.512V66.25H82.656ZM99.6248 66.25V43.85H113.417V47.242H103.337V53.194H112.233V56.522H103.337V62.858H113.513V66.25H99.6248ZM128.452 66.634C126.233 66.634 124.27 66.1433 122.564 65.162C120.857 64.1807 119.513 62.8153 118.532 61.066C117.572 59.3167 117.092 57.3113 117.092 55.05C117.092 52.7887 117.572 50.794 118.532 49.066C119.513 47.3167 120.846 45.9513 122.532 44.97C124.217 43.9673 126.158 43.466 128.356 43.466C130.574 43.466 132.526 43.9673 134.212 44.97C135.918 45.9513 137.241 47.3167 138.18 49.066C139.14 50.794 139.62 52.7887 139.62 55.05C139.62 57.3113 139.14 59.3167 138.18 61.066C137.241 62.8153 135.929 64.1807 134.244 65.162C132.58 66.1433 130.649 66.634 128.452 66.634ZM128.452 63.242C129.902 63.242 131.182 62.89 132.292 62.186C133.401 61.482 134.265 60.522 134.884 59.306C135.524 58.0687 135.844 56.65 135.844 55.05C135.844 53.4713 135.524 52.0633 134.884 50.826C134.244 49.5887 133.358 48.6287 132.228 47.946C131.118 47.242 129.828 46.89 128.356 46.89C126.905 46.89 125.614 47.242 124.484 47.946C123.374 48.6287 122.489 49.5887 121.828 50.826C121.188 52.042 120.868 53.45 120.868 55.05C120.868 56.65 121.188 58.0687 121.828 59.306C122.489 60.522 123.385 61.482 124.516 62.186C125.668 62.89 126.98 63.242 128.452 63.242ZM143.562 66.25V43.85H147.402L159.306 60.042V43.85H163.018V66.25H159.306L147.274 49.866V66.25H143.562ZM168.344 66.25V43.85H182.135V47.242H172.056V53.194H180.952V56.522H172.056V62.858H182.232V66.25H168.344Z" fill="#1A1A1A"/>
<path d="M12 53H68V62C68 65.3137 65.3137 68 62 68H18C14.6863 68 12 65.3137 12 62V53Z" fill="#1A1A1A"/>
<path d="M53 12H62C65.3137 12 68 14.6863 68 18V47.5H53V12Z" fill="#1A1A1A"/>
<rect x="32.5" y="12" width="15" height="35.5" fill="#1A1A1A"/>
<path d="M12 18C12 14.6863 14.6863 12 18 12H27V47.5H12V18Z" fill="#1A1A1A"/>
</svg>
