<svg width="24" height="24" viewBox="0 0 24 24" fill="none" xmlns="http://www.w3.org/2000/svg">
<path d="M14.25 10.5002C14.25 10.6991 14.171 10.8899 14.0303 11.0305C13.8896 11.1712 13.6989 11.2502 13.5 11.2502H11.25V13.5002C11.25 13.6991 11.171 13.8899 11.0303 14.0305C10.8896 14.1712 10.6989 14.2502 10.5 14.2502C10.3011 14.2502 10.1103 14.1712 9.96964 14.0305C9.82899 13.8899 9.74997 13.6991 9.74997 13.5002V11.2502H7.49997C7.30106 11.2502 7.11029 11.1712 6.96964 11.0305C6.82899 10.8899 6.74997 10.6991 6.74997 10.5002C6.74997 10.3013 6.82899 10.1105 6.96964 9.96988C7.11029 9.82923 7.30106 9.75021 7.49997 9.75021H9.74997V7.50021C9.74997 7.3013 9.82899 7.11054 9.96964 6.96988C10.1103 6.82923 10.3011 6.75021 10.5 6.75021C10.6989 6.75021 10.8896 6.82923 11.0303 6.96988C11.171 7.11054 11.25 7.3013 11.25 7.50021V9.75021H13.5C13.6989 9.75021 13.8896 9.82923 14.0303 9.96988C14.171 10.1105 14.25 10.3013 14.25 10.5002ZM21.5306 21.5308C21.4609 21.6006 21.3782 21.6559 21.2872 21.6936C21.1961 21.7314 21.0985 21.7508 21 21.7508C20.9014 21.7508 20.8038 21.7314 20.7128 21.6936C20.6217 21.6559 20.539 21.6006 20.4693 21.5308L15.7762 16.8368C14.1428 18.1973 12.0478 18.8757 9.92691 18.7309C7.80604 18.5861 5.82265 17.6293 4.38932 16.0593C2.95599 14.4894 2.18308 12.4274 2.23138 10.3021C2.27968 8.17687 3.14547 6.15205 4.64864 4.64888C6.15181 3.14571 8.17663 2.27993 10.3019 2.23163C12.4271 2.18333 14.4892 2.95623 16.0591 4.38956C17.629 5.82289 18.5859 7.80629 18.7307 9.92715C18.8755 12.048 18.1971 14.1431 16.8365 15.7765L21.5306 20.4696C21.6003 20.5392 21.6556 20.622 21.6934 20.713C21.7311 20.8041 21.7506 20.9017 21.7506 21.0002C21.7506 21.0988 21.7311 21.1964 21.6934 21.2874C21.6556 21.3785 21.6003 21.4612 21.5306 21.5308ZM10.5 17.2502C11.835 17.2502 13.14 16.8543 14.2501 16.1126C15.3601 15.3709 16.2253 14.3167 16.7362 13.0833C17.2471 11.8499 17.3807 10.4927 17.1203 9.18335C16.8598 7.87398 16.2169 6.67125 15.2729 5.72724C14.3289 4.78324 13.1262 4.14036 11.8168 3.87991C10.5075 3.61946 9.15026 3.75314 7.91686 4.26403C6.68346 4.77492 5.62925 5.64008 4.88755 6.75011C4.14585 7.86015 3.74997 9.16519 3.74997 10.5002C3.75195 12.2898 4.46375 14.0056 5.72919 15.271C6.99463 16.5364 8.71037 17.2482 10.5 17.2502Z" fill="#1A1A1A"/>
</svg>
