<svg width="64" height="64" viewBox="0 0 64 64" fill="none" xmlns="http://www.w3.org/2000/svg">
<path d="M0 0H64V64H0V0Z" fill="#027B5B"/>
<path d="M12.7513 13.5014C14.5252 13.5002 16.2991 13.4989 18.0743 13.5014C18.058 15.8367 18.0768 18.1706 18.063 20.5059C18.5681 19.7871 19.2269 19.1345 20.087 18.8682C21.6296 18.3832 23.4948 18.7207 24.5999 19.9571C25.7113 21.1959 26.0888 22.9036 26.1351 24.525C26.1613 26.1514 26.005 27.8553 25.1975 29.3005C24.6474 30.3168 23.6861 31.1207 22.5472 31.3732C21.4108 31.627 20.1132 31.5907 19.1244 30.9106C18.4456 30.4543 18.0705 29.698 17.7242 28.983C17.7467 29.738 17.7042 30.4906 17.6892 31.2444C16.0428 31.2444 14.3964 31.2444 12.75 31.2444C12.75 25.3301 12.75 19.4158 12.7513 13.5014Z" fill="#FAFCFC"/>
<path d="M41.9706 16.0892C43.7483 15.5167 45.5022 14.8716 47.2799 14.3003C47.2649 15.8492 47.2749 17.3993 47.2737 18.9482C48.0812 18.9482 48.8901 18.947 49.7002 18.947C49.6902 20.1196 49.6989 21.291 49.6926 22.4623C48.8838 22.4761 48.0725 22.4411 47.2649 22.4811C47.2899 23.6975 47.2512 24.9138 47.2837 26.1302C47.2974 26.6715 47.5312 27.2841 48.0687 27.4991C48.6113 27.6166 49.1763 27.5078 49.7014 27.3503C49.6901 28.5254 49.6952 29.7018 49.6964 30.8769C48.2125 31.3382 46.6361 31.6645 45.081 31.4395C44.1409 31.302 43.2408 30.7982 42.7245 29.9881C42.1469 29.1117 41.9907 28.0366 41.9519 27.0103C41.9481 25.4939 41.9519 23.9787 41.9506 22.4636C41.3306 22.4648 40.7118 22.4561 40.093 22.4761C40.0705 21.2997 40.0855 20.1234 40.0855 18.9457C40.7068 18.9495 41.3281 18.947 41.9506 18.947C41.9631 17.9944 41.9244 17.0393 41.9706 16.0892Z" fill="#FAFCFC"/>
<path d="M12.9652 34.1437C14.6928 33.5062 16.5693 33.4774 18.3894 33.4987C20.0396 33.5687 21.7473 34.0475 23.0024 35.1626C24.6626 36.6165 24.7313 39.6005 22.9849 41.0094C22.5386 41.3857 22.0085 41.647 21.456 41.827C22.2573 42.1083 23.0562 42.4921 23.6087 43.1609C24.495 44.1847 24.6363 45.6649 24.3163 46.9387C24.0275 48.1063 23.1499 49.0539 22.0936 49.5915C20.1759 50.6316 17.9081 50.6103 15.7954 50.4053C14.8041 50.3116 13.8278 50.1128 12.8677 49.854C12.8277 48.5776 12.8677 47.2988 12.8477 46.0236C14.4953 46.57 16.3017 46.9325 18.0207 46.5199C19.1733 46.2299 19.232 44.4385 18.2032 43.9497C17.1156 43.4084 15.8417 43.6172 14.6853 43.7709C14.6916 42.5658 14.6866 41.3594 14.6878 40.1518C15.5854 40.1943 16.4918 40.2456 17.3818 40.0968C17.9194 40.0018 18.5282 39.7318 18.6757 39.1542C18.7582 38.6917 18.7082 38.1654 18.3882 37.8003C18.0244 37.3753 17.4494 37.2078 16.908 37.1753C15.5779 37.1065 14.239 37.3378 12.9939 37.8003C12.9502 36.584 13.0002 35.3626 12.9652 34.1437Z" fill="#F9DC1C"/>
<path d="M27.1218 36.0606C28.3607 34.5304 30.2771 33.6516 32.2248 33.5203C34.035 33.4465 35.8789 33.4728 37.6403 33.9528C37.6153 35.2117 37.6403 36.4718 37.6266 37.7307C36.1927 37.3294 34.6975 37.0457 33.2037 37.2132C32.2961 37.3357 31.3935 37.8032 30.9322 38.6196C30.6096 39.1671 30.5371 39.8097 30.4896 40.431C31.5672 39.5884 33.0011 39.3896 34.3313 39.4709C36.0152 39.5796 37.6128 40.601 38.3879 42.1036C38.968 43.2238 39.0692 44.5389 38.8905 45.774C38.7004 47.0829 37.9979 48.3205 36.9315 49.1118C35.3626 50.3357 33.2636 50.6957 31.3247 50.4445C29.632 50.2382 28.0469 49.3394 26.9968 47.9992C25.7667 46.5128 25.2166 44.5639 25.1804 42.655C25.1304 40.3397 25.5917 37.8757 27.1218 36.0606Z" fill="#F9DC1C"/>
<path d="M40.1214 33.7778C43.598 33.7765 47.0745 33.7765 50.5499 33.7778C50.5461 35.0429 50.5499 36.308 50.5474 37.5732C48.6872 37.5882 46.8245 37.5469 44.9656 37.5944C44.9831 38.432 44.9868 39.2733 44.9643 40.1122C46.0194 40.0922 47.1133 39.9334 48.1309 40.2984C49.586 40.786 50.7162 42.0874 51.0549 43.5788C51.3775 45.0151 51.2925 46.6103 50.5424 47.9042C49.8373 49.1168 48.5384 49.8581 47.2108 50.2019C44.8143 50.7995 42.2991 50.4757 39.9501 49.8281C39.9151 48.5717 39.9438 47.3154 39.9338 46.059C41.4415 46.439 43.0667 46.8103 44.5931 46.319C45.8632 45.9252 46.0519 44.025 45.0506 43.2525C44.4493 42.7999 43.6705 42.6899 42.9379 42.6587C42.1178 42.6462 41.2965 42.7549 40.4989 42.9437C40.3289 42.9762 40.1814 43.0737 40.0464 43.175C40.0851 43.0387 40.1114 42.8999 40.1226 42.7599C40.1189 39.7659 40.1201 36.7706 40.1214 33.7778Z" fill="#F9DC1C"/>
<path d="M28.6357 20.4155C29.9896 19.0566 32.0023 18.6579 33.8562 18.6666C35.2589 18.6266 36.7415 18.9791 37.7954 19.9517C38.888 20.9606 39.3943 22.4432 39.593 23.8834C39.728 24.7534 39.7118 25.636 39.7093 26.5136C37.2453 26.5136 34.7826 26.5136 32.3173 26.5136C32.3573 26.9474 32.4461 27.4075 32.7774 27.7187C33.3649 28.275 34.2213 28.35 34.9901 28.4013C36.3365 28.4238 37.7329 28.2788 38.9342 27.6237C38.9242 28.6838 38.9342 29.7452 38.9255 30.8065C37.4203 31.3353 35.8164 31.4879 34.2313 31.5166C32.4336 31.5491 30.5021 31.2316 29.097 30.0265C27.7881 28.9201 27.2081 27.1837 27.1318 25.5148C27.0156 23.7233 27.3268 21.7432 28.6357 20.4155Z" fill="#FAFCFC"/>
<path d="M32.7937 21.9682C33.2187 21.3531 34.2676 21.3143 34.6901 21.9532C35.0701 22.532 35.0939 23.257 35.1064 23.9258C34.18 23.9271 33.255 23.9271 32.3286 23.9271C32.3536 23.257 32.3911 22.5357 32.7937 21.9682Z" fill="#027B5B"/>
<path d="M18.9571 22.3534C19.4559 22.1921 20.0472 22.4396 20.2734 22.9172C20.5997 23.5623 20.5885 24.3111 20.5985 25.0174C20.5735 25.725 20.5385 26.49 20.1347 27.1001C19.7434 27.7039 18.7158 27.7052 18.3382 27.0851C17.9795 26.5088 17.9432 25.7987 17.9395 25.1387C17.9395 24.5011 17.9382 23.8485 18.127 23.2335C18.2482 22.8347 18.5345 22.4534 18.9571 22.3534Z" fill="#027B5B"/>
<path d="M31.6231 42.675C32.3745 42.4 33.3321 42.6287 33.7508 43.3426C34.2621 44.2151 34.2271 45.3915 33.6846 46.2403C33.1495 47.1354 31.7044 47.2404 31.0418 46.4404C30.4705 45.7891 30.4168 44.8427 30.593 44.0289C30.7005 43.4563 31.0506 42.88 31.6231 42.675Z" fill="#027B5B"/>
</svg>
