<svg width="64" height="64" viewBox="0 0 64 64" fill="none" xmlns="http://www.w3.org/2000/svg">
<g clip-path="url(#clip0_89_212)">
<path d="M62.9525 0.966309H1.06901V63.0339H62.9525V0.966309Z" fill="#C0A971"/>
<path d="M61.9864 1.93241V62.0676H2.03529V1.93241H61.9864ZM63.9648 0H0.102864V64H63.9648V0Z" fill="#C0A971"/>
<path d="M4.9336 26.5474C4.9336 31.8386 5.80779 36.8076 8.52239 40.9026V37.3138C8.52239 32.8968 12.1112 29.8142 15.7 27.7436C11.9731 29.078 7.87824 28.2498 4.9336 26.5474Z" fill="#232323"/>
<path d="M8.01632 22.7748H6.82005C6.63601 22.0846 8.52243 20.8884 9.02853 21.7626L8.01632 22.7748ZM4.24349 22.2686C5.39375 23.0049 6.82005 23.2809 8.15435 23.0969C9.3506 23.925 11.053 21.5785 12.7553 21.5785C15.3319 21.2565 18.5527 20.8884 20.2549 23.0969L19.4268 21.3945C17.0343 21.2105 14.9639 20.3822 13.1234 19.3241C9.39662 17.6677 7.5102 23.0969 4.24349 22.2686Z" fill="#232323"/>
<path d="M2.03516 13.5272C3.23141 13.8494 4.42768 14.2174 5.62393 14.2174C8.20051 13.2052 8.89065 11.1347 7.83243 8.42013C6.45212 6.39569 4.38167 5.01538 2.03516 4.50928V13.5272Z" fill="#232323"/>
<path d="M19.1508 62.0675C19.6109 61.6534 19.9789 61.1934 20.3471 60.6872C27.2025 51.8072 13.8596 46.6542 14.1817 38.1423C14.5037 34.7375 16.3903 32.161 18.5987 29.4003L18.4147 29.2163C16.3441 31.2867 15.516 32.6211 14.1357 34.6915C10.0408 43.0654 15.8381 54.6599 9.85677 61.8375L19.1508 62.0675Z" fill="#232323"/>
<path d="M46.8033 31.9768C46.8033 44.2614 41.006 55.0277 31.942 62.0213H61.9867V1.93213H31.942C41.3281 9.06369 46.8493 20.1981 46.8033 31.9768Z" fill="#232323"/>
<path d="M2.0356 62.0678H7.14272L8.33899 60.8716C15.3325 51.3014 6.95868 44.63 1.85156 37.1304L2.0356 62.0678Z" fill="#232323"/>
<path d="M16.2063 1.93213H2.03516V2.94436C3.46147 3.17441 4.84177 3.54249 6.13005 4.14062C9.02869 5.843 11.2372 8.6036 10.9151 12.0083L17.2185 11.3182C18.0927 9.24774 18.4148 6.02702 17.5405 4.32466C17.3105 3.40445 16.8504 2.62228 16.2063 1.93213Z" fill="#232323"/>
<path d="M19.1511 1.93246C20.5313 3.81887 20.5313 6.21141 20.6693 8.09782C23.246 6.21141 26.3287 5.01514 29.5493 5.88933C27.3408 4.18695 25.7765 2.80666 23.0619 1.79443L19.1511 1.93246Z" fill="#232323"/>
<path d="M31.8036 32.5289L31.2975 33.9091L30.6073 32.2069C29.0889 32.5289 27.5247 33.035 26.6964 34.7834C26.5124 35.2895 26.8805 36.1637 26.3744 36.4858C25.3621 36.3017 25.8683 34.5994 25.8683 33.5871C27.0645 32.3909 30.2852 29.8143 31.5275 30.8725C31.8036 30.9646 31.9416 31.8387 31.8036 32.5289ZM24.948 44.8135C24.1199 44.1234 24.442 42.9271 24.442 42.099L24.948 41.5929C25.7763 44.3074 28.0307 41.0867 29.7331 41.4089C30.5613 41.0867 30.2392 39.8905 31.1135 40.0285C32.4477 44.3074 27.3405 43.4333 24.948 44.8135ZM37.2328 45.3197C37.9229 39.6605 37.4168 33.6791 33.3219 29.7683C32.4937 29.5842 31.2515 30.0903 30.6073 29.2622C28.7209 30.9646 26.3284 31.6547 24.626 33.5411C22.7396 34.0473 20.8532 32.851 18.9668 32.5289V31.8387C16.3901 33.5411 17.0803 36.9458 16.5743 39.5225C17.2644 42.421 20.4851 43.6173 22.5555 45.3197C25.8223 45.8258 28.7209 44.4455 31.4355 43.4333C31.9416 43.9394 32.6317 44.3074 32.3096 44.9515C30.1012 48.0342 26.8344 49.4146 23.1076 49.0465C25.3161 53.3254 23.7977 58.2485 21.4053 62.0213H23.6137C30.4232 58.9846 36.7267 54.1997 37.2328 45.3197Z" fill="#232323"/>
<path d="M42.2023 22.2687C40.3159 15.7812 34.5185 7.08533 26.8349 7.59143C23.9363 7.77549 21.0376 9.98395 20.0253 11.6863C22.2339 13.0206 24.3043 14.5849 26.1908 16.2873C26.0067 16.9775 26.5128 17.8056 25.6847 18.1737C24.6724 17.2996 23.7983 15.2751 22.4179 15.9652C23.4301 18.1737 26.1908 18.3577 28.2152 18.8639C29.0433 19.6921 28.7213 21.0724 30.4236 20.3823C31.2519 20.5663 31.6199 21.5785 31.804 22.2687C30.4237 24.8452 26.6968 23.0968 24.6264 23.6489C26.3288 24.3391 28.2152 24.4771 29.7335 25.5353C31.2519 26.5936 31.804 24.1551 32.4481 23.3268C35.1627 24.0171 33.6444 26.9156 34.8407 28.434C40.6379 34.4153 39.4416 44.9976 36.5431 51.8531C44.5948 44.8136 43.9047 28.756 42.2023 22.2687Z" fill="#232323"/>
</g>
<defs>
<clipPath id="clip0_89_212">
<rect width="64" height="64" fill="white"/>
</clipPath>
</defs>
</svg>
