<svg width="64" height="65" viewBox="0 0 64 65" fill="none" xmlns="http://www.w3.org/2000/svg">
<g clip-path="url(#clip0_89_206)">
<path d="M62.7469 5.8449C62.8803 5.79592 63.015 5.75238 63.151 5.71429C63.2871 5.67619 63.4245 5.64218 63.5633 5.61225C63.6993 5.58503 63.8381 5.56054 63.9796 5.53878C63.6231 6.30068 63.2775 7.06667 62.9428 7.83674C62.6109 8.6068 62.2911 9.38231 61.9837 10.1633C61.6762 10.9442 61.3823 11.7293 61.102 12.5184C60.819 13.3075 60.5497 14.1007 60.2939 14.898C59.5701 17.1429 58.9483 19.4177 58.4286 21.7225C57.7102 24.9306 56.7673 30.8122 56.6612 31.1184C56.5551 31.4245 56.4204 31.7225 56.2571 32.0041C56.0898 32.2857 55.8979 32.551 55.6816 32.8C55.4653 33.0449 55.2245 33.2694 54.9633 33.4694C54.702 33.6694 54.4204 33.8449 54.1265 33.9918C54.0857 34.0054 54.0449 34.0122 54.0041 34.0122C53.9605 34.0122 53.9197 34.0054 53.8816 33.9918C53.8408 33.9782 53.8041 33.9592 53.7714 33.9347C53.7388 33.9075 53.7116 33.8776 53.6898 33.8449C53.6082 33.7347 53.7714 33.5551 53.8531 33.4531C54.0082 33.2816 54.1428 33.0898 54.2531 32.8816C54.3633 32.6776 54.4449 32.4571 54.502 32.2327C54.5551 32.0041 54.5796 31.7755 54.5755 31.5429C54.5714 31.3102 54.5388 31.0776 54.4775 30.8531C54.0245 28.6082 46.1837 28.3143 36.4163 30.7306C26.649 33.1469 19.9714 37.0776 20.6816 39.2531C20.7388 39.4776 20.8245 39.698 20.9347 39.902C21.049 40.1061 21.1837 40.298 21.3428 40.4694C21.502 40.6408 21.6816 40.7959 21.8816 40.9225C22.0775 41.0531 22.2939 41.1592 22.5143 41.2367C22.6367 41.2898 22.8653 41.3674 22.849 41.498C22.8463 41.5388 22.8381 41.5782 22.8245 41.6163C22.8082 41.6544 22.785 41.6884 22.7551 41.7184C22.7279 41.7483 22.6952 41.7728 22.6571 41.7918C22.6218 41.8109 22.5837 41.8231 22.5428 41.8286C22.2082 41.8408 21.8775 41.8163 21.5469 41.7633C21.2204 41.7102 20.898 41.6286 20.5837 41.5143C20.2735 41.4 19.9755 41.2571 19.6898 41.0857C19.4082 40.9143 19.1428 40.7184 18.898 40.4939C18.8939 40.498 15.1102 35.5061 12.8939 33.0327C11.298 31.2571 9.62856 29.5265 7.88571 27.898C7.26802 27.3156 6.63945 26.7429 5.99999 26.1796C5.36326 25.6136 4.717 25.0585 4.06122 24.5143C3.40816 23.9701 2.74557 23.4354 2.07346 22.9102C1.40135 22.385 0.719721 21.8708 0.0285645 21.3673C0.161898 21.3102 0.295231 21.2571 0.428564 21.2082C0.564619 21.1592 0.700673 21.1143 0.836728 21.0735C0.975503 21.0354 1.11564 21 1.25714 20.9673C1.39591 20.9374 1.53605 20.9116 1.67754 20.8898C4.14693 20.7061 6.39999 22.5551 7.62448 23.5918H7.63265C8.55509 22.5551 10.3877 20.6245 12.6082 20.3551C12.6653 20.6163 12.7061 21.1265 12.7306 21.4041C12.7633 21.8449 12.751 22.2898 12.6898 22.7265C12.6286 23.1673 12.5184 23.5959 12.3633 24.0122C12.2082 24.4327 12.0082 24.8286 11.7673 25.2041C11.5265 25.5796 11.2449 25.9306 10.9265 26.2449C11.3714 26.4816 11.8245 26.6857 12.2939 26.8653C12.7633 27.0449 13.2408 27.2 13.7265 27.3225C14.2163 27.449 14.7102 27.5429 15.2082 27.6082C15.7061 27.6776 16.2082 27.7143 16.7102 27.7225C16.8272 27.7116 16.9428 27.698 17.0571 27.6816C17.1741 27.6626 17.2898 27.6408 17.4041 27.6163C17.5156 27.5891 17.6272 27.5592 17.7388 27.5265C17.8503 27.4912 17.9605 27.4531 18.0694 27.4122C18.5224 27.2367 18.9469 27 19.3306 26.702C19.7102 26.4041 20.0449 26.0571 20.3224 25.6612C20.5959 25.2694 20.8082 24.8408 20.9551 24.3878C21.098 23.9306 21.1755 23.4612 21.1755 22.9837C21.6816 23.298 22.2408 23.5184 22.8286 23.6367C23.4163 23.7551 24.0204 23.7633 24.6122 23.6694C25.2041 23.5714 25.7755 23.3714 26.2898 23.0735C26.8082 22.7755 27.2653 22.3878 27.6367 21.9306C27.6939 21.8435 27.7483 21.7565 27.8 21.6694C27.8544 21.5823 27.9075 21.4939 27.9592 21.4041C28.0109 21.3143 28.0612 21.2245 28.1102 21.1347C28.1565 21.0422 28.2041 20.9497 28.2531 20.8571C28.3292 20.7048 28.4027 20.5524 28.4735 20.4C28.4898 20.3388 28.5143 20.2776 28.5306 20.2163C28.5347 20.2245 28.5347 20.2408 28.5388 20.249C28.8 19.6571 29.0122 19.049 29.1755 18.4245C29.3388 17.8 29.449 17.1633 29.5102 16.5224C29.5673 15.8776 29.5755 15.2327 29.5306 14.5918C29.4857 13.951 29.3877 13.3102 29.2408 12.6816C29.2082 12.698 29.1755 12.7102 29.1388 12.7265C28.6816 12.9102 28.2041 13.0408 27.7184 13.1184C27.2286 13.1959 26.7347 13.2204 26.2408 13.1837C25.7469 13.151 25.2571 13.0612 24.7837 12.9184C24.3143 12.7755 23.8571 12.5796 23.4326 12.3347C23.3864 12.3075 23.3401 12.2803 23.2939 12.2531C23.2476 12.2259 23.2027 12.1986 23.1592 12.1714C23.1129 12.1415 23.068 12.1116 23.0245 12.0816C22.9809 12.0517 22.9374 12.0218 22.8939 11.9918C22.9156 11.9429 22.9388 11.8952 22.9633 11.849C22.985 11.8027 23.0095 11.7565 23.0367 11.7102C23.0612 11.6639 23.0857 11.6177 23.1102 11.5714C23.1374 11.5252 23.1646 11.4789 23.1918 11.4327C23.4163 11.0612 23.6775 10.7143 23.9755 10.3918C24.2735 10.0735 24.6041 9.78367 24.9633 9.53061C25.3224 9.27755 25.7061 9.06122 26.1102 8.88571C26.5143 8.7102 26.9388 8.57551 27.3714 8.48163C27.5714 8.44082 27.7796 8.40816 27.9837 8.38367C26.8367 6.48571 26.498 2.83674 27.7265 0.804082C27.7592 0.746939 27.7932 0.691157 27.8286 0.636735C27.8639 0.582313 27.9007 0.527891 27.9388 0.473469C27.9769 0.419048 28.015 0.365986 28.0531 0.314286C28.0939 0.262585 28.1347 0.210884 28.1755 0.159184L28.302 0L28.4857 0.0734694C28.5537 0.103401 28.6231 0.133333 28.6939 0.163265C28.7619 0.195918 28.8299 0.228571 28.898 0.261225C28.966 0.293878 29.034 0.327891 29.102 0.363265C29.1701 0.398639 29.2367 0.435374 29.302 0.473469C31.3796 1.67755 33.0735 4.98776 33.0082 7.18776C33.2 7.1102 33.3959 7.0449 33.5918 6.98776C34.0694 6.84898 34.5592 6.76327 35.0571 6.73469C35.551 6.7102 36.049 6.73878 36.5388 6.82041C37.0286 6.90612 37.5061 7.0449 37.9633 7.23674C38.4204 7.42857 38.8531 7.66939 39.2531 7.95918C39.2286 8.00544 39.2054 8.0517 39.1837 8.09796C39.1592 8.14422 39.1347 8.19048 39.1102 8.23674C39.083 8.28299 39.0571 8.32925 39.0326 8.37551C39.0054 8.42177 38.9782 8.46667 38.951 8.5102C38.698 8.92653 38.3959 9.31021 38.0531 9.65714C37.7102 10.0041 37.3265 10.3143 36.9102 10.5755C36.4939 10.8367 36.049 11.049 35.5796 11.2122C35.1143 11.3755 34.6286 11.4816 34.1388 11.5347C34.102 11.5388 34.0653 11.5429 34.0286 11.5429C34.2286 12.2163 34.4816 12.8735 34.7959 13.5061C35.1061 14.1347 35.4735 14.7388 35.8898 15.3102C36.3061 15.8816 36.7755 16.4122 37.2857 16.9061C37.7959 17.3959 38.351 17.8449 38.9388 18.2449C39.2204 18.4367 39.5102 18.6163 39.8041 18.7837C40.3551 19.0082 40.9428 19.1347 41.5428 19.1551C42.1388 19.1755 42.7347 19.0898 43.298 18.902C43.8653 18.7102 44.3878 18.4245 44.849 18.049C45.3061 17.6776 45.6898 17.2245 45.9837 16.7143C46.2163 17.1347 46.5102 17.5143 46.8571 17.849C47.2041 18.1837 47.6041 18.4612 48.0367 18.6816C48.4694 18.902 48.9347 19.0531 49.4122 19.1388C49.8939 19.2245 50.3837 19.2408 50.8653 19.1837C51.0585 19.1701 51.2503 19.1456 51.4408 19.1102C51.6286 19.0748 51.815 19.0272 52 18.9673C52.1823 18.9075 52.3605 18.8381 52.5347 18.7592C52.7088 18.6776 52.8775 18.5864 53.0408 18.4857C53.4136 18.249 53.7728 17.9932 54.1184 17.7184C54.4639 17.4463 54.7945 17.1565 55.1102 16.849C55.4231 16.5415 55.7197 16.219 56 15.8816C56.2803 15.5442 56.5415 15.1932 56.7837 14.8286C56.3469 14.698 55.9265 14.5265 55.5306 14.3102C55.1347 14.0939 54.7592 13.8367 54.4204 13.5469C54.0775 13.2531 53.7673 12.9265 53.498 12.5714C53.2286 12.2163 52.9959 11.8327 52.8082 11.4286C52.7782 11.3687 52.751 11.3061 52.7265 11.2408C52.6993 11.1782 52.6735 11.1143 52.649 11.049C52.6245 10.9864 52.6014 10.9225 52.5796 10.8571C52.5551 10.7918 52.5333 10.7265 52.5143 10.6612C53.0082 10.4694 53.5265 10.3388 54.0531 10.2735C54.5837 10.2082 55.1184 10.2041 55.6449 10.2653C56.1755 10.3265 56.6939 10.4531 57.1918 10.6408C57.6857 10.8245 58.1592 11.0735 58.5918 11.3714H58.6C58.6286 10.8 58.7429 10.2367 58.9306 9.69796C59.1143 9.1551 59.3796 8.6449 59.7061 8.17143C60.0367 7.70204 60.4326 7.27755 60.8775 6.90612C61.3265 6.53878 61.8245 6.23265 62.3551 5.99592C62.4857 5.9415 62.6163 5.89116 62.7469 5.8449Z" fill="#F7760D"/>
<path d="M27.8571 35.5509C29.1714 35.0013 30.5048 34.4965 31.8571 34.0367C33.2095 33.5768 34.5769 33.1618 35.9592 32.7918C37.3388 32.419 38.7306 32.0938 40.1347 31.8163C41.536 31.536 42.9469 31.3033 44.3673 31.1183C45.7877 30.9305 55.4531 32.1836 55.4531 44.8693C55.4531 57.555 46.1959 64.7999 33.5959 64.7999C20.9959 64.7999 14.351 59.3836 14.351 53.6163C14.351 47.8489 18.6041 46.9305 20.5837 46.9305C22.5592 46.9305 26.1388 48.6693 26.1388 53.1918C26.1388 53.1918 22.5755 52.3387 22.5755 55.3428C22.5755 58.3428 26.7877 60.2122 32.5592 60.2122C38.3265 60.2122 46.4775 57.7469 46.4775 46.7632C46.4775 35.0448 40.9143 34.5224 37.049 34.5224V54.6244C37.0653 54.8693 37.1265 55.1101 37.2367 55.3305C37.3469 55.5509 37.502 55.7469 37.6898 55.9101C37.8735 56.0775 38.0939 56.204 38.3306 56.2856C38.5673 56.3673 38.8204 56.404 39.0694 56.3918C39.3224 56.3795 37.0367 58.0652 32.0041 58.0652C26.9714 58.0652 25.5388 56.4897 25.5388 56.4897C25.5388 56.4897 27.9184 56.4979 27.9184 54.4489C27.9184 52.404 27.8571 35.5509 27.8571 35.5509Z" fill="#61B510"/>
</g>
<defs>
<clipPath id="clip0_89_206">
<rect width="64" height="64.8163" fill="white"/>
</clipPath>
</defs>
</svg>
