<svg width="64" height="67" viewBox="0 0 64 67" fill="none" xmlns="http://www.w3.org/2000/svg">
<path d="M13.4827 26.048C17.6427 24.128 22.0373 22.9547 26.3467 22.4427C26.816 22.3787 27.008 22.6987 26.9653 23.0614C26.4107 26.368 26.048 29.7387 25.8987 33.1094C25.856 33.4934 25.664 33.7494 25.216 33.8347C22.8267 34.304 20.5013 35.0294 17.92 36.2027C20.224 40.2134 23.04 43.904 26.112 46.976C26.4747 47.3387 26.6667 47.7227 26.7733 48.3627C27.584 53.5254 28.9707 58.7307 30.848 63.6587C30.9547 63.936 30.9547 64.128 30.8053 64.2774C30.6347 64.448 30.3573 64.448 30.1013 64.2774C11.4347 52.9707 0.192 32.6187 0 11.264C0 10.752 0.170667 10.368 0.618667 10.1334C10.5173 4.56538 21.6533 1.89871 32.832 2.13338C33.3227 2.13338 33.5147 2.58138 33.3227 2.98671C31.7867 6.18671 30.4853 9.45071 29.4827 12.7147C29.376 13.0987 29.12 13.2907 28.7147 13.312C22.7413 13.6107 16.9173 14.976 11.584 17.1947C11.968 20.224 12.6293 23.2107 13.504 26.0694L13.4827 26.048ZM34.1333 13.3334C33.7707 13.2907 33.5147 12.9707 33.6213 12.5867C34.7947 9.17338 36.1387 5.97338 37.6747 2.98671C37.8453 2.62404 38.1653 2.49604 38.5707 2.53871C46.9973 3.47738 54.9547 6.14404 62.0587 10.112C62.4853 10.3467 62.6773 10.7307 62.6773 11.2427C62.528 31.4667 52.416 50.7947 35.3707 62.5067C35.0507 62.7414 34.624 62.6134 34.496 62.2294C33.2587 58.9014 32.256 55.5307 31.5307 52.2667C31.424 51.84 31.5307 51.4987 31.872 51.2427C42.1973 43.1147 49.408 30.976 51.1573 17.1734C45.9093 14.9974 40.2133 13.6534 34.176 13.3334H34.1333Z" fill="#0070EB"/>
</svg>
