<svg width="264" height="328" viewBox="0 0 264 328" fill="none" xmlns="http://www.w3.org/2000/svg">
<rect y="288" width="102" height="40" rx="20" fill="#1A1A1A"/>
<path d="M33.6453 306.033C33.3508 305.725 33.0461 305.408 32.9313 305.129C32.825 304.873 32.8187 304.45 32.8125 304.04C32.8008 303.277 32.7883 302.413 32.1875 301.812C31.5867 301.212 30.7227 301.199 29.9602 301.187C29.55 301.181 29.1266 301.175 28.8711 301.069C28.593 300.954 28.275 300.649 27.9672 300.355C27.4281 299.837 26.8156 299.25 26 299.25C25.1844 299.25 24.5727 299.837 24.0328 300.355C23.725 300.649 23.4078 300.954 23.1289 301.069C22.875 301.175 22.45 301.181 22.0398 301.187C21.2773 301.199 20.4133 301.212 19.8125 301.812C19.2117 302.413 19.2031 303.277 19.1875 304.04C19.1812 304.45 19.175 304.873 19.0687 305.129C18.9539 305.407 18.6492 305.725 18.3547 306.033C17.8367 306.572 17.25 307.184 17.25 308C17.25 308.816 17.8367 309.427 18.3547 309.967C18.6492 310.275 18.9539 310.592 19.0687 310.871C19.175 311.127 19.1812 311.55 19.1875 311.96C19.1992 312.723 19.2117 313.587 19.8125 314.187C20.4133 314.788 21.2773 314.801 22.0398 314.812C22.45 314.819 22.8734 314.825 23.1289 314.931C23.407 315.046 23.725 315.351 24.0328 315.645C24.5719 316.163 25.1844 316.75 26 316.75C26.8156 316.75 27.4273 316.163 27.9672 315.645C28.275 315.351 28.5922 315.046 28.8711 314.931C29.1266 314.825 29.55 314.819 29.9602 314.812C30.7227 314.801 31.5867 314.788 32.1875 314.187C32.7883 313.587 32.8008 312.723 32.8125 311.96C32.8187 311.55 32.825 311.127 32.9313 310.871C33.0461 310.593 33.3508 310.275 33.6453 309.967C34.1633 309.428 34.75 308.816 34.75 308C34.75 307.184 34.1633 306.573 33.6453 306.033ZM32.743 309.102C32.3687 309.493 31.9812 309.897 31.7758 310.393C31.5789 310.87 31.5703 311.414 31.5625 311.941C31.5547 312.488 31.5461 313.061 31.3031 313.303C31.0602 313.545 30.4914 313.555 29.9414 313.562C29.4141 313.57 28.8695 313.579 28.393 313.776C27.8969 313.981 27.493 314.369 27.1023 314.743C26.7117 315.117 26.3125 315.5 26 315.5C25.6875 315.5 25.2852 315.116 24.8977 314.743C24.5102 314.37 24.1031 313.981 23.607 313.776C23.1305 313.579 22.5859 313.57 22.0586 313.562C21.5117 313.555 20.9391 313.546 20.6969 313.303C20.4547 313.06 20.4453 312.491 20.4375 311.941C20.4297 311.414 20.4211 310.87 20.2242 310.393C20.0187 309.897 19.6312 309.493 19.257 309.102C18.8828 308.712 18.5 308.312 18.5 308C18.5 307.688 18.8844 307.285 19.257 306.898C19.6297 306.51 20.0187 306.103 20.2242 305.607C20.4211 305.13 20.4297 304.586 20.4375 304.059C20.4453 303.512 20.4539 302.939 20.6969 302.697C20.9398 302.455 21.5086 302.445 22.0586 302.437C22.5859 302.43 23.1305 302.421 23.607 302.224C24.1031 302.019 24.507 301.631 24.8977 301.257C25.2883 300.883 25.6875 300.5 26 300.5C26.3125 300.5 26.7148 300.884 27.1023 301.257C27.4898 301.63 27.8969 302.019 28.393 302.224C28.8695 302.421 29.4141 302.43 29.9414 302.437C30.4883 302.445 31.0609 302.454 31.3031 302.697C31.5453 302.94 31.5547 303.509 31.5625 304.059C31.5703 304.586 31.5789 305.13 31.7758 305.607C31.9812 306.103 32.3687 306.507 32.743 306.898C33.1172 307.288 33.5 307.688 33.5 308C33.5 308.312 33.1156 308.715 32.743 309.102ZM29.5672 305.683C29.6253 305.741 29.6714 305.81 29.7029 305.886C29.7343 305.962 29.7505 306.043 29.7505 306.125C29.7505 306.207 29.7343 306.288 29.7029 306.364C29.6714 306.44 29.6253 306.509 29.5672 306.567L25.1922 310.942C25.1341 311 25.0652 311.046 24.9893 311.078C24.9135 311.109 24.8321 311.125 24.75 311.125C24.6679 311.125 24.5865 311.109 24.5107 311.078C24.4348 311.046 24.3659 311 24.3078 310.942L22.4328 309.067C22.3155 308.95 22.2497 308.791 22.2497 308.625C22.2497 308.459 22.3155 308.3 22.4328 308.183C22.5501 308.066 22.7091 308 22.875 308C23.0409 308 23.1999 308.066 23.3172 308.183L24.75 309.616L28.6828 305.683C28.7409 305.625 28.8098 305.579 28.8857 305.547C28.9615 305.516 29.0429 305.5 29.125 305.5C29.2071 305.5 29.2885 305.516 29.3643 305.547C29.4402 305.579 29.5091 305.625 29.5672 305.683Z" fill="white"/>
<path d="M48.928 314L53.504 302.8H54.928L50.288 314H48.928ZM48.784 314L44.144 302.8H45.568L50.128 314H48.784ZM58.7571 314.192C57.9785 314.192 57.2905 314.016 56.6931 313.664C56.0958 313.301 55.6265 312.805 55.2851 312.176C54.9545 311.547 54.7891 310.821 54.7891 310C54.7891 309.179 54.9545 308.453 55.2851 307.824C55.6265 307.195 56.0905 306.704 56.6771 306.352C57.2745 305.989 57.9571 305.808 58.7251 305.808C59.4718 305.808 60.1171 305.995 60.6611 306.368C61.2051 306.731 61.6265 307.243 61.9251 307.904C62.2238 308.565 62.3731 309.344 62.3731 310.24H55.7651L56.0851 309.968C56.0851 310.608 56.1971 311.157 56.4211 311.616C56.6558 312.075 56.9811 312.427 57.3971 312.672C57.8131 312.907 58.2878 313.024 58.8211 313.024C59.3865 313.024 59.8611 312.891 60.2451 312.624C60.6398 312.357 60.9438 312.005 61.1571 311.568L62.2611 312.128C62.0585 312.544 61.7865 312.907 61.4451 313.216C61.1145 313.525 60.7198 313.765 60.2611 313.936C59.8131 314.107 59.3118 314.192 58.7571 314.192ZM56.1651 309.424L55.8291 309.168H61.3491L61.0131 309.44C61.0131 308.928 60.9118 308.485 60.7091 308.112C60.5065 307.739 60.2345 307.451 59.8931 307.248C59.5518 307.045 59.1571 306.944 58.7091 306.944C58.2718 306.944 57.8558 307.045 57.4611 307.248C57.0771 307.451 56.7625 307.739 56.5171 308.112C56.2825 308.475 56.1651 308.912 56.1651 309.424ZM64.3715 309.664C64.3715 308.8 64.5368 308.101 64.8675 307.568C65.1982 307.024 65.6195 306.624 66.1315 306.368C66.6542 306.101 67.2035 305.968 67.7795 305.968V307.168C67.3102 307.168 66.8568 307.248 66.4195 307.408C65.9928 307.557 65.6408 307.808 65.3635 308.16C65.0862 308.512 64.9475 308.992 64.9475 309.6L64.3715 309.664ZM63.6675 314V306H64.9475V314H63.6675ZM68.8338 314V306H70.1138V314H68.8338ZM69.4898 304.144C69.2764 304.144 69.0898 304.064 68.9298 303.904C68.7698 303.744 68.6898 303.557 68.6898 303.344C68.6898 303.12 68.7698 302.933 68.9298 302.784C69.0898 302.624 69.2764 302.544 69.4898 302.544C69.7138 302.544 69.9004 302.624 70.0498 302.784C70.2098 302.933 70.2898 303.12 70.2898 303.344C70.2898 303.557 70.2098 303.744 70.0498 303.904C69.9004 304.064 69.7138 304.144 69.4898 304.144ZM72.9525 314V305.088C72.9525 304.256 73.1445 303.632 73.5285 303.216C73.9232 302.789 74.5205 302.576 75.3205 302.576C75.5338 302.576 75.7738 302.613 76.0405 302.688C76.3072 302.763 76.5898 302.869 76.8885 303.008L76.4085 304.016C76.1632 303.92 75.9552 303.845 75.7845 303.792C75.6138 303.739 75.4698 303.712 75.3525 303.712C74.9792 303.712 74.6965 303.835 74.5045 304.08C74.3232 304.315 74.2325 304.683 74.2325 305.184V314H72.9525ZM71.4805 307.104V306H76.5525V307.104H71.4805ZM78.4588 317.392C78.2561 317.392 78.0214 317.349 77.7548 317.264C77.4881 317.189 77.2054 317.088 76.9068 316.96L77.3868 315.888C77.6321 315.995 77.8454 316.075 78.0268 316.128C78.2188 316.181 78.3681 316.208 78.4748 316.208C78.7628 316.208 78.9974 316.128 79.1788 315.968C79.3708 315.819 79.5308 315.6 79.6588 315.312L80.5708 313.136L83.5308 306H84.9068L81.0668 315.12C80.8641 315.589 80.6508 315.995 80.4268 316.336C80.2134 316.677 79.9521 316.939 79.6428 317.12C79.3334 317.301 78.9388 317.392 78.4588 317.392ZM80.2188 314L76.7628 306H78.1228L81.0988 313.12L81.4828 314H80.2188Z" fill="white"/>
<path d="M155 236H68C61.3726 236 56 241.373 56 248V288" stroke="#1A1A1A"/>
<rect x="155" y="216" width="109" height="40" rx="20" fill="#1A1A1A"/>
<path d="M188.759 231.732L185.268 228.241C185.152 228.125 185.014 228.033 184.862 227.97C184.711 227.907 184.548 227.875 184.384 227.875C184.22 227.875 184.057 227.907 183.906 227.97C183.754 228.033 183.616 228.125 183.5 228.241L173.866 237.875C173.75 237.99 173.657 238.128 173.595 238.28C173.532 238.432 173.499 238.594 173.5 238.758V242.25C173.5 242.581 173.632 242.899 173.866 243.134C174.101 243.368 174.418 243.5 174.75 243.5H187.875C188.041 243.5 188.2 243.434 188.317 243.317C188.434 243.2 188.5 243.041 188.5 242.875C188.5 242.709 188.434 242.55 188.317 242.433C188.2 242.316 188.041 242.25 187.875 242.25H180.009L188.759 233.5C188.875 233.384 188.968 233.246 189.03 233.094C189.093 232.943 189.126 232.78 189.126 232.616C189.126 232.452 189.093 232.289 189.03 232.137C188.968 231.986 188.875 231.848 188.759 231.732ZM178.241 242.25H174.75V238.758L181.625 231.883L185.116 235.375L178.241 242.25ZM186 234.491L182.509 231L184.384 229.125L187.875 232.616L186 234.491Z" fill="white"/>
<path d="M200.488 242V230.8H203.896C204.952 230.8 205.88 231.04 206.68 231.52C207.491 231.989 208.125 232.645 208.584 233.488C209.043 234.331 209.272 235.301 209.272 236.4C209.272 237.488 209.043 238.453 208.584 239.296C208.125 240.139 207.491 240.8 206.68 241.28C205.88 241.76 204.952 242 203.896 242H200.488ZM201.848 240.752H203.896C204.461 240.752 204.984 240.645 205.464 240.432C205.944 240.208 206.365 239.893 206.728 239.488C207.101 239.083 207.389 238.619 207.592 238.096C207.805 237.563 207.912 236.997 207.912 236.4C207.912 235.803 207.805 235.243 207.592 234.72C207.389 234.187 207.101 233.717 206.728 233.312C206.365 232.907 205.944 232.597 205.464 232.384C204.984 232.16 204.461 232.048 203.896 232.048H201.848V240.752ZM214.32 242.192C213.541 242.192 212.853 242.016 212.256 241.664C211.658 241.301 211.189 240.805 210.848 240.176C210.517 239.547 210.352 238.821 210.352 238C210.352 237.179 210.517 236.453 210.848 235.824C211.189 235.195 211.653 234.704 212.24 234.352C212.837 233.989 213.52 233.808 214.288 233.808C215.034 233.808 215.68 233.995 216.224 234.368C216.768 234.731 217.189 235.243 217.488 235.904C217.786 236.565 217.936 237.344 217.936 238.24H211.328L211.648 237.968C211.648 238.608 211.76 239.157 211.984 239.616C212.218 240.075 212.544 240.427 212.96 240.672C213.376 240.907 213.85 241.024 214.384 241.024C214.949 241.024 215.424 240.891 215.808 240.624C216.202 240.357 216.506 240.005 216.72 239.568L217.824 240.128C217.621 240.544 217.349 240.907 217.008 241.216C216.677 241.525 216.282 241.765 215.824 241.936C215.376 242.107 214.874 242.192 214.32 242.192ZM211.728 237.424L211.392 237.168H216.912L216.576 237.44C216.576 236.928 216.474 236.485 216.272 236.112C216.069 235.739 215.797 235.451 215.456 235.248C215.114 235.045 214.72 234.944 214.272 234.944C213.834 234.944 213.418 235.045 213.024 235.248C212.64 235.451 212.325 235.739 212.08 236.112C211.845 236.475 211.728 236.912 211.728 237.424ZM222.03 242.192C221.443 242.192 220.931 242.107 220.494 241.936C220.057 241.755 219.689 241.52 219.39 241.232C219.102 240.944 218.894 240.629 218.766 240.288L219.886 239.824C220.067 240.187 220.339 240.48 220.702 240.704C221.065 240.928 221.465 241.04 221.902 241.04C222.403 241.04 222.825 240.944 223.166 240.752C223.507 240.549 223.678 240.267 223.678 239.904C223.678 239.573 223.55 239.307 223.294 239.104C223.049 238.901 222.681 238.736 222.19 238.608L221.422 238.4C220.697 238.208 220.131 237.92 219.726 237.536C219.321 237.141 219.118 236.699 219.118 236.208C219.118 235.451 219.363 234.864 219.854 234.448C220.355 234.021 221.097 233.808 222.078 233.808C222.547 233.808 222.974 233.877 223.358 234.016C223.742 234.155 224.073 234.352 224.35 234.608C224.627 234.853 224.83 235.147 224.958 235.488L223.838 235.984C223.699 235.621 223.47 235.36 223.15 235.2C222.83 235.04 222.441 234.96 221.982 234.96C221.491 234.96 221.107 235.067 220.83 235.28C220.553 235.483 220.414 235.771 220.414 236.144C220.414 236.357 220.526 236.56 220.75 236.752C220.985 236.933 221.326 237.083 221.774 237.2L222.574 237.408C223.097 237.536 223.534 237.728 223.886 237.984C224.238 238.229 224.505 238.512 224.686 238.832C224.867 239.152 224.958 239.493 224.958 239.856C224.958 240.336 224.83 240.752 224.574 241.104C224.318 241.456 223.971 241.728 223.534 241.92C223.097 242.101 222.595 242.192 222.03 242.192ZM226.443 242V234H227.723V242H226.443ZM227.099 232.144C226.886 232.144 226.699 232.064 226.539 231.904C226.379 231.744 226.299 231.557 226.299 231.344C226.299 231.12 226.379 230.933 226.539 230.784C226.699 230.624 226.886 230.544 227.099 230.544C227.323 230.544 227.51 230.624 227.659 230.784C227.819 230.933 227.899 231.12 227.899 231.344C227.899 231.557 227.819 231.744 227.659 231.904C227.51 232.064 227.323 232.144 227.099 232.144ZM232.962 245.392C232.45 245.392 231.981 245.339 231.554 245.232C231.138 245.136 230.781 245.024 230.482 244.896C230.194 244.779 229.986 244.677 229.858 244.592L230.338 243.552C230.477 243.627 230.674 243.717 230.93 243.824C231.186 243.941 231.485 244.037 231.826 244.112C232.178 244.197 232.551 244.24 232.946 244.24C233.458 244.24 233.917 244.133 234.322 243.92C234.738 243.717 235.058 243.392 235.282 242.944C235.517 242.507 235.634 241.941 235.634 241.248V234H236.914V241.232C236.914 242.149 236.743 242.917 236.402 243.536C236.061 244.155 235.591 244.619 234.994 244.928C234.397 245.237 233.719 245.392 232.962 245.392ZM232.914 241.936C232.199 241.936 231.57 241.765 231.026 241.424C230.482 241.083 230.055 240.608 229.746 240C229.447 239.381 229.298 238.677 229.298 237.888C229.298 237.077 229.447 236.368 229.746 235.76C230.055 235.141 230.482 234.661 231.026 234.32C231.57 233.979 232.199 233.808 232.914 233.808C233.586 233.808 234.173 233.979 234.674 234.32C235.175 234.661 235.565 235.141 235.842 235.76C236.13 236.368 236.274 237.077 236.274 237.888C236.274 238.688 236.13 239.392 235.842 240C235.565 240.608 235.175 241.083 234.674 241.424C234.173 241.765 233.586 241.936 232.914 241.936ZM233.218 240.832C233.687 240.832 234.103 240.704 234.466 240.448C234.829 240.192 235.111 239.845 235.314 239.408C235.517 238.96 235.618 238.443 235.618 237.856C235.618 237.291 235.511 236.789 235.298 236.352C235.095 235.904 234.813 235.557 234.45 235.312C234.098 235.056 233.682 234.928 233.202 234.928C232.701 234.928 232.253 235.056 231.858 235.312C231.474 235.557 231.17 235.904 230.946 236.352C230.733 236.789 230.626 237.291 230.626 237.856C230.626 238.443 230.738 238.96 230.962 239.408C231.186 239.845 231.49 240.192 231.874 240.448C232.269 240.704 232.717 240.832 233.218 240.832ZM238.833 242V234H240.033L240.113 235.472V242H238.833ZM244.449 242V237.904H245.729V242H244.449ZM244.449 237.904C244.449 237.115 244.358 236.512 244.177 236.096C243.995 235.68 243.745 235.397 243.425 235.248C243.105 235.088 242.742 235.008 242.337 235.008C241.633 235.008 241.083 235.259 240.689 235.76C240.305 236.251 240.113 236.949 240.113 237.856H239.489C239.489 237.013 239.611 236.288 239.857 235.68C240.102 235.072 240.459 234.608 240.929 234.288C241.398 233.968 241.963 233.808 242.625 233.808C243.254 233.808 243.798 233.936 244.257 234.192C244.726 234.437 245.089 234.832 245.345 235.376C245.611 235.92 245.739 236.635 245.729 237.52V237.904H244.449Z" fill="white"/>
<path d="M112 164H198C204.627 164 210 169.373 210 176V216" stroke="#1A1A1A"/>
<rect y="144" width="112" height="40" rx="20" fill="#1A1A1A"/>
<path d="M33.5 164C33.5 164.166 33.4341 164.325 33.3169 164.442C33.1997 164.559 33.0407 164.625 32.875 164.625H26C25.8342 164.625 25.6752 164.559 25.558 164.442C25.4408 164.325 25.375 164.166 25.375 164C25.375 163.834 25.4408 163.675 25.558 163.558C25.6752 163.441 25.8342 163.375 26 163.375H32.875C33.0407 163.375 33.1997 163.441 33.3169 163.558C33.4341 163.675 33.5 163.834 33.5 164ZM26 159.625H32.875C33.0407 159.625 33.1997 159.559 33.3169 159.442C33.4341 159.325 33.5 159.166 33.5 159C33.5 158.834 33.4341 158.675 33.3169 158.558C33.1997 158.441 33.0407 158.375 32.875 158.375H26C25.8342 158.375 25.6752 158.441 25.558 158.558C25.4408 158.675 25.375 158.834 25.375 159C25.375 159.166 25.4408 159.325 25.558 159.442C25.6752 159.559 25.8342 159.625 26 159.625ZM32.875 168.375H26C25.8342 168.375 25.6752 168.441 25.558 168.558C25.4408 168.675 25.375 168.834 25.375 169C25.375 169.166 25.4408 169.325 25.558 169.442C25.6752 169.559 25.8342 169.625 26 169.625H32.875C33.0407 169.625 33.1997 169.559 33.3169 169.442C33.4341 169.325 33.5 169.166 33.5 169C33.5 168.834 33.4341 168.675 33.3169 168.558C33.1997 168.441 33.0407 168.375 32.875 168.375ZM22.4328 157.308L20.375 159.366L19.5672 158.558C19.4499 158.44 19.2908 158.375 19.125 158.375C18.9591 158.375 18.8001 158.44 18.6828 158.558C18.5655 158.675 18.4996 158.834 18.4996 159C18.4996 159.166 18.5655 159.325 18.6828 159.442L19.9328 160.692C19.9908 160.75 20.0598 160.796 20.1356 160.828C20.2115 160.859 20.2928 160.875 20.375 160.875C20.4571 160.875 20.5384 160.859 20.6143 160.828C20.6902 160.796 20.7591 160.75 20.8172 160.692L23.3172 158.192C23.4344 158.075 23.5003 157.916 23.5003 157.75C23.5003 157.584 23.4344 157.425 23.3172 157.308C23.1999 157.19 23.0408 157.125 22.875 157.125C22.7091 157.125 22.5501 157.19 22.4328 157.308ZM22.4328 162.308L20.375 164.366L19.5672 163.558C19.4499 163.44 19.2908 163.375 19.125 163.375C18.9591 163.375 18.8001 163.44 18.6828 163.558C18.5655 163.675 18.4996 163.834 18.4996 164C18.4996 164.082 18.5158 164.163 18.5472 164.239C18.5787 164.315 18.6247 164.384 18.6828 164.442L19.9328 165.692C19.9908 165.75 20.0598 165.796 20.1356 165.828C20.2115 165.859 20.2928 165.875 20.375 165.875C20.4571 165.875 20.5384 165.859 20.6143 165.828C20.6902 165.796 20.7591 165.75 20.8172 165.692L23.3172 163.192C23.4344 163.075 23.5003 162.916 23.5003 162.75C23.5003 162.584 23.4344 162.425 23.3172 162.308C23.1999 162.19 23.0408 162.125 22.875 162.125C22.7091 162.125 22.5501 162.19 22.4328 162.308ZM22.4328 167.308L20.375 169.366L19.5672 168.558C19.5091 168.5 19.4402 168.454 19.3643 168.422C19.2884 168.391 19.2071 168.375 19.125 168.375C19.0429 168.375 18.9615 168.391 18.8857 168.422C18.8098 168.454 18.7409 168.5 18.6828 168.558C18.6247 168.616 18.5787 168.685 18.5472 168.761C18.5158 168.836 18.4996 168.918 18.4996 169C18.4996 169.082 18.5158 169.163 18.5472 169.239C18.5787 169.315 18.6247 169.384 18.6828 169.442L19.9328 170.692C19.9908 170.75 20.0598 170.796 20.1356 170.828C20.2115 170.859 20.2928 170.875 20.375 170.875C20.4571 170.875 20.5384 170.859 20.6143 170.828C20.6902 170.796 20.7591 170.75 20.8172 170.692L23.3172 168.192C23.4344 168.075 23.5003 167.916 23.5003 167.75C23.5003 167.584 23.4344 167.425 23.3172 167.308C23.1999 167.19 23.0408 167.125 22.875 167.125C22.7091 167.125 22.5501 167.19 22.4328 167.308Z" fill="white"/>
<path d="M47.744 170V160.032H44.176V158.8H52.656V160.032H49.088V170H47.744ZM56.1477 170.192C55.3691 170.192 54.6811 170.016 54.0838 169.664C53.4864 169.301 53.0171 168.805 52.6757 168.176C52.3451 167.547 52.1797 166.821 52.1797 166C52.1797 165.179 52.3451 164.453 52.6757 163.824C53.0171 163.195 53.4811 162.704 54.0677 162.352C54.6651 161.989 55.3477 161.808 56.1157 161.808C56.8624 161.808 57.5078 161.995 58.0518 162.368C58.5958 162.731 59.0171 163.243 59.3158 163.904C59.6144 164.565 59.7638 165.344 59.7638 166.24H53.1557L53.4757 165.968C53.4757 166.608 53.5877 167.157 53.8117 167.616C54.0464 168.075 54.3717 168.427 54.7878 168.672C55.2038 168.907 55.6784 169.024 56.2118 169.024C56.7771 169.024 57.2518 168.891 57.6358 168.624C58.0304 168.357 58.3344 168.005 58.5477 167.568L59.6518 168.128C59.4491 168.544 59.1771 168.907 58.8358 169.216C58.5051 169.525 58.1104 169.765 57.6518 169.936C57.2038 170.107 56.7024 170.192 56.1477 170.192ZM53.5557 165.424L53.2197 165.168H58.7398L58.4037 165.44C58.4037 164.928 58.3024 164.485 58.0998 164.112C57.8971 163.739 57.6251 163.451 57.2838 163.248C56.9424 163.045 56.5477 162.944 56.0998 162.944C55.6624 162.944 55.2464 163.045 54.8517 163.248C54.4677 163.451 54.1531 163.739 53.9077 164.112C53.6731 164.475 53.5557 164.912 53.5557 165.424ZM63.8581 170.192C63.2715 170.192 62.7595 170.107 62.3221 169.936C61.8848 169.755 61.5168 169.52 61.2181 169.232C60.9301 168.944 60.7221 168.629 60.5941 168.288L61.7141 167.824C61.8955 168.187 62.1675 168.48 62.5301 168.704C62.8928 168.928 63.2928 169.04 63.7301 169.04C64.2315 169.04 64.6528 168.944 64.9941 168.752C65.3355 168.549 65.5061 168.267 65.5061 167.904C65.5061 167.573 65.3781 167.307 65.1221 167.104C64.8768 166.901 64.5088 166.736 64.0181 166.608L63.2501 166.4C62.5248 166.208 61.9595 165.92 61.5541 165.536C61.1488 165.141 60.9461 164.699 60.9461 164.208C60.9461 163.451 61.1915 162.864 61.6821 162.448C62.1835 162.021 62.9248 161.808 63.9061 161.808C64.3755 161.808 64.8021 161.877 65.1861 162.016C65.5701 162.155 65.9008 162.352 66.1781 162.608C66.4555 162.853 66.6581 163.147 66.7861 163.488L65.6661 163.984C65.5275 163.621 65.2981 163.36 64.9781 163.2C64.6581 163.04 64.2688 162.96 63.8101 162.96C63.3195 162.96 62.9355 163.067 62.6581 163.28C62.3808 163.483 62.2421 163.771 62.2421 164.144C62.2421 164.357 62.3541 164.56 62.5781 164.752C62.8128 164.933 63.1541 165.083 63.6021 165.2L64.4021 165.408C64.9248 165.536 65.3621 165.728 65.7141 165.984C66.0661 166.229 66.3328 166.512 66.5141 166.832C66.6955 167.152 66.7861 167.493 66.7861 167.856C66.7861 168.336 66.6581 168.752 66.4021 169.104C66.1461 169.456 65.7995 169.728 65.3621 169.92C64.9248 170.101 64.4235 170.192 63.8581 170.192ZM71.1993 170.192C70.4206 170.192 69.8179 169.989 69.3913 169.584C68.9646 169.179 68.7513 168.608 68.7513 167.872V159.504H70.0313V167.744C70.0313 168.149 70.1379 168.464 70.3513 168.688C70.5753 168.901 70.8846 169.008 71.2793 169.008C71.4073 169.008 71.5299 168.992 71.6473 168.96C71.7753 168.917 71.9406 168.821 72.1433 168.672L72.6393 169.712C72.3619 169.893 72.1113 170.016 71.8873 170.08C71.6633 170.155 71.4339 170.192 71.1993 170.192ZM67.3593 163.136V162H72.4313V163.136H67.3593ZM73.9981 170V162H75.2781V170H73.9981ZM74.6541 160.144C74.4408 160.144 74.2541 160.064 74.0941 159.904C73.9341 159.744 73.8541 159.557 73.8541 159.344C73.8541 159.12 73.9341 158.933 74.0941 158.784C74.2541 158.624 74.4408 158.544 74.6541 158.544C74.8781 158.544 75.0648 158.624 75.2141 158.784C75.3741 158.933 75.4541 159.12 75.4541 159.344C75.4541 159.557 75.3741 159.744 75.2141 159.904C75.0648 160.064 74.8781 160.144 74.6541 160.144ZM77.3169 170V162H78.5169L78.5969 163.472V170H77.3169ZM82.9329 170V165.904H84.2129V170H82.9329ZM82.9329 165.904C82.9329 165.115 82.8422 164.512 82.6609 164.096C82.4795 163.68 82.2289 163.397 81.9089 163.248C81.5889 163.088 81.2262 163.008 80.8209 163.008C80.1169 163.008 79.5675 163.259 79.1729 163.76C78.7889 164.251 78.5969 164.949 78.5969 165.856H77.9729C77.9729 165.013 78.0955 164.288 78.3409 163.68C78.5862 163.072 78.9435 162.608 79.4129 162.288C79.8822 161.968 80.4475 161.808 81.1089 161.808C81.7382 161.808 82.2822 161.936 82.7409 162.192C83.2102 162.437 83.5729 162.832 83.8289 163.376C84.0955 163.92 84.2235 164.635 84.2129 165.52V165.904H82.9329ZM89.1188 173.392C88.6068 173.392 88.1374 173.339 87.7108 173.232C87.2948 173.136 86.9374 173.024 86.6388 172.896C86.3508 172.779 86.1428 172.677 86.0148 172.592L86.4948 171.552C86.6334 171.627 86.8308 171.717 87.0868 171.824C87.3428 171.941 87.6414 172.037 87.9828 172.112C88.3348 172.197 88.7081 172.24 89.1028 172.24C89.6148 172.24 90.0734 172.133 90.4788 171.92C90.8948 171.717 91.2148 171.392 91.4388 170.944C91.6734 170.507 91.7908 169.941 91.7908 169.248V162H93.0708V169.232C93.0708 170.149 92.9001 170.917 92.5588 171.536C92.2174 172.155 91.7481 172.619 91.1508 172.928C90.5534 173.237 89.8761 173.392 89.1188 173.392ZM89.0708 169.936C88.3561 169.936 87.7268 169.765 87.1828 169.424C86.6388 169.083 86.2121 168.608 85.9028 168C85.6041 167.381 85.4548 166.677 85.4548 165.888C85.4548 165.077 85.6041 164.368 85.9028 163.76C86.2121 163.141 86.6388 162.661 87.1828 162.32C87.7268 161.979 88.3561 161.808 89.0708 161.808C89.7428 161.808 90.3294 161.979 90.8308 162.32C91.3321 162.661 91.7214 163.141 91.9988 163.76C92.2868 164.368 92.4308 165.077 92.4308 165.888C92.4308 166.688 92.2868 167.392 91.9988 168C91.7214 168.608 91.3321 169.083 90.8308 169.424C90.3294 169.765 89.7428 169.936 89.0708 169.936ZM89.3748 168.832C89.8441 168.832 90.2601 168.704 90.6228 168.448C90.9854 168.192 91.2681 167.845 91.4708 167.408C91.6734 166.96 91.7748 166.443 91.7748 165.856C91.7748 165.291 91.6681 164.789 91.4548 164.352C91.2521 163.904 90.9694 163.557 90.6068 163.312C90.2548 163.056 89.8388 162.928 89.3588 162.928C88.8574 162.928 88.4094 163.056 88.0148 163.312C87.6308 163.557 87.3268 163.904 87.1028 164.352C86.8894 164.789 86.7828 165.291 86.7828 165.856C86.7828 166.443 86.8948 166.96 87.1188 167.408C87.3428 167.845 87.6468 168.192 88.0308 168.448C88.4254 168.704 88.8734 168.832 89.3748 168.832Z" fill="white"/>
<path d="M157 92H68C61.3726 92 56 97.3726 56 104V144" stroke="#1A1A1A"/>
<rect x="157" y="72" width="107" height="40" rx="20" fill="#1A1A1A"/>
<path d="M186.75 100.125C186.75 100.291 186.684 100.45 186.567 100.567C186.45 100.684 186.291 100.75 186.125 100.75H179.875C179.709 100.75 179.55 100.684 179.433 100.567C179.316 100.45 179.25 100.291 179.25 100.125C179.25 99.9593 179.316 99.8003 179.433 99.6831C179.55 99.5659 179.709 99.5 179.875 99.5H186.125C186.291 99.5 186.45 99.5659 186.567 99.6831C186.684 99.8003 186.75 99.9593 186.75 100.125ZM189.875 90.125C189.878 91.167 189.642 92.1957 189.187 93.1328C188.731 94.0699 188.068 94.8905 187.247 95.5321C187.093 95.6497 186.969 95.8009 186.883 95.9741C186.797 96.1473 186.751 96.3379 186.75 96.5313V97C186.75 97.3316 186.618 97.6495 186.384 97.8839C186.149 98.1183 185.832 98.25 185.5 98.25H180.5C180.168 98.25 179.851 98.1183 179.616 97.8839C179.382 97.6495 179.25 97.3316 179.25 97V96.5313C179.25 96.3402 179.206 96.1517 179.122 95.9802C179.037 95.8088 178.915 95.6589 178.763 95.5422C177.944 94.9045 177.281 94.0887 176.824 93.1568C176.367 92.2249 176.128 91.2013 176.125 90.1633C176.105 86.4399 179.114 83.3391 182.834 83.25C183.751 83.228 184.663 83.3895 185.516 83.7251C186.37 84.0607 187.147 84.5636 187.803 85.2042C188.459 85.8448 188.98 86.6102 189.336 87.4553C189.692 88.3004 189.875 89.2081 189.875 90.125ZM188.625 90.125C188.625 89.3748 188.475 88.6321 188.184 87.9406C187.893 87.2491 187.467 86.6229 186.93 86.0987C186.393 85.5746 185.757 85.1631 185.058 84.8886C184.36 84.614 183.614 84.4819 182.864 84.5C179.817 84.5719 177.359 87.1086 177.375 90.1555C177.378 91.0044 177.574 91.8415 177.948 92.6036C178.322 93.3656 178.864 94.0325 179.534 94.5539C179.835 94.788 180.079 95.0879 180.246 95.4307C180.414 95.7734 180.501 96.1499 180.5 96.5313V97H185.5V96.5313C185.501 96.1488 185.589 95.7715 185.758 95.4283C185.927 95.0851 186.172 94.785 186.474 94.5508C187.146 94.0257 187.689 93.354 188.062 92.5869C188.435 91.8199 188.627 90.9778 188.625 90.125ZM187.366 89.3954C187.204 88.4901 186.769 87.6563 186.118 87.0061C185.468 86.3558 184.634 85.9205 183.729 85.7586C183.648 85.745 183.565 85.7474 183.485 85.7658C183.405 85.7842 183.329 85.8181 183.263 85.8657C183.196 85.9133 183.139 85.9736 183.095 86.0432C183.052 86.1127 183.022 86.1902 183.009 86.2711C182.995 86.3521 182.997 86.4349 183.016 86.5149C183.034 86.5949 183.068 86.6705 183.116 86.7374C183.163 86.8043 183.224 86.8612 183.293 86.9048C183.363 86.9483 183.44 86.9778 183.521 86.9914C184.816 87.2094 185.914 88.3079 186.134 89.6047C186.158 89.7503 186.234 89.8824 186.347 89.9776C186.459 90.0729 186.602 90.1251 186.75 90.125C186.785 90.1248 186.821 90.122 186.855 90.1164C187.019 90.0886 187.164 89.9969 187.26 89.8617C187.356 89.7265 187.394 89.5587 187.366 89.3954Z" fill="white"/>
<path d="M202.488 96V84.8H205.896C206.952 84.8 207.88 85.04 208.68 85.52C209.491 85.9893 210.125 86.6453 210.584 87.488C211.043 88.3307 211.272 89.3013 211.272 90.4C211.272 91.488 211.043 92.4533 210.584 93.296C210.125 94.1387 209.491 94.8 208.68 95.28C207.88 95.76 206.952 96 205.896 96H202.488ZM203.848 94.752H205.896C206.461 94.752 206.984 94.6453 207.464 94.432C207.944 94.208 208.365 93.8933 208.728 93.488C209.101 93.0827 209.389 92.6187 209.592 92.096C209.805 91.5627 209.912 90.9973 209.912 90.4C209.912 89.8027 209.805 89.2427 209.592 88.72C209.389 88.1867 209.101 87.7173 208.728 87.312C208.365 86.9067 207.944 86.5973 207.464 86.384C206.984 86.16 206.461 86.048 205.896 86.048H203.848V94.752ZM216.32 96.192C215.541 96.192 214.853 96.016 214.256 95.664C213.658 95.3013 213.189 94.8053 212.848 94.176C212.517 93.5467 212.352 92.8213 212.352 92C212.352 91.1787 212.517 90.4533 212.848 89.824C213.189 89.1947 213.653 88.704 214.24 88.352C214.837 87.9893 215.52 87.808 216.288 87.808C217.034 87.808 217.68 87.9947 218.224 88.368C218.768 88.7307 219.189 89.2427 219.488 89.904C219.786 90.5653 219.936 91.344 219.936 92.24H213.328L213.648 91.968C213.648 92.608 213.76 93.1573 213.984 93.616C214.218 94.0747 214.544 94.4267 214.96 94.672C215.376 94.9067 215.85 95.024 216.384 95.024C216.949 95.024 217.424 94.8907 217.808 94.624C218.202 94.3573 218.506 94.0053 218.72 93.568L219.824 94.128C219.621 94.544 219.349 94.9067 219.008 95.216C218.677 95.5253 218.282 95.7653 217.824 95.936C217.376 96.1067 216.874 96.192 216.32 96.192ZM213.728 91.424L213.392 91.168H218.912L218.576 91.44C218.576 90.928 218.474 90.4853 218.272 90.112C218.069 89.7387 217.797 89.4507 217.456 89.248C217.114 89.0453 216.72 88.944 216.272 88.944C215.834 88.944 215.418 89.0453 215.024 89.248C214.64 89.4507 214.325 89.7387 214.08 90.112C213.845 90.4747 213.728 90.912 213.728 91.424ZM222.03 96V87.088C222.03 86.256 222.222 85.632 222.606 85.216C223.001 84.7893 223.598 84.576 224.398 84.576C224.611 84.576 224.851 84.6133 225.118 84.688C225.385 84.7627 225.667 84.8693 225.966 85.008L225.486 86.016C225.241 85.92 225.033 85.8453 224.862 85.792C224.691 85.7387 224.547 85.712 224.43 85.712C224.057 85.712 223.774 85.8347 223.582 86.08C223.401 86.3147 223.31 86.6827 223.31 87.184V96H222.03ZM220.558 89.104V88H225.63V89.104H220.558ZM226.896 96V88H228.176V96H226.896ZM227.552 86.144C227.339 86.144 227.152 86.064 226.992 85.904C226.832 85.744 226.752 85.5573 226.752 85.344C226.752 85.12 226.832 84.9333 226.992 84.784C227.152 84.624 227.339 84.544 227.552 84.544C227.776 84.544 227.963 84.624 228.112 84.784C228.272 84.9333 228.352 85.12 228.352 85.344C228.352 85.5573 228.272 85.744 228.112 85.904C227.963 86.064 227.776 86.144 227.552 86.144ZM230.215 96V88H231.415L231.495 89.472V96H230.215ZM235.831 96V91.904H237.111V96H235.831ZM235.831 91.904C235.831 91.1147 235.74 90.512 235.559 90.096C235.378 89.68 235.127 89.3973 234.807 89.248C234.487 89.088 234.124 89.008 233.719 89.008C233.015 89.008 232.466 89.2587 232.071 89.76C231.687 90.2507 231.495 90.9493 231.495 91.856H230.871C230.871 91.0133 230.994 90.288 231.239 89.68C231.484 89.072 231.842 88.608 232.311 88.288C232.78 87.968 233.346 87.808 234.007 87.808C234.636 87.808 235.18 87.936 235.639 88.192C236.108 88.4373 236.471 88.832 236.727 89.376C236.994 89.92 237.122 90.6347 237.111 91.52V91.904H235.831ZM242.321 96.192C241.542 96.192 240.854 96.016 240.257 95.664C239.66 95.3013 239.19 94.8053 238.849 94.176C238.518 93.5467 238.353 92.8213 238.353 92C238.353 91.1787 238.518 90.4533 238.849 89.824C239.19 89.1947 239.654 88.704 240.241 88.352C240.838 87.9893 241.521 87.808 242.289 87.808C243.036 87.808 243.681 87.9947 244.225 88.368C244.769 88.7307 245.19 89.2427 245.489 89.904C245.788 90.5653 245.937 91.344 245.937 92.24H239.329L239.649 91.968C239.649 92.608 239.761 93.1573 239.985 93.616C240.22 94.0747 240.545 94.4267 240.961 94.672C241.377 94.9067 241.852 95.024 242.385 95.024C242.95 95.024 243.425 94.8907 243.809 94.624C244.204 94.3573 244.508 94.0053 244.721 93.568L245.825 94.128C245.622 94.544 245.35 94.9067 245.009 95.216C244.678 95.5253 244.284 95.7653 243.825 95.936C243.377 96.1067 242.876 96.192 242.321 96.192ZM239.729 91.424L239.393 91.168H244.913L244.577 91.44C244.577 90.928 244.476 90.4853 244.273 90.112C244.07 89.7387 243.798 89.4507 243.457 89.248C243.116 89.0453 242.721 88.944 242.273 88.944C241.836 88.944 241.42 89.0453 241.025 89.248C240.641 89.4507 240.326 89.7387 240.081 90.112C239.846 90.4747 239.729 90.912 239.729 91.424Z" fill="white"/>
<path d="M136 20H198C204.627 20 210 25.3726 210 32V72" stroke="#1A1A1A"/>
<rect width="136" height="40" rx="20" fill="#1A1A1A"/>
<path d="M33.9511 27.0668L30.0394 23.1558C31.1731 21.7947 31.7385 20.0488 31.6178 18.2814C31.4972 16.514 30.6998 14.8612 29.3915 13.6668C28.0833 12.4723 26.3649 11.8282 24.5938 11.8685C22.8228 11.9087 21.1354 12.6302 19.8828 13.8829C18.6302 15.1355 17.9087 16.8228 17.8684 18.5939C17.8282 20.3649 18.4723 22.0833 19.6667 23.3916C20.8611 24.6998 22.514 25.4972 24.2814 25.6179C26.0487 25.7386 27.7946 25.1732 29.1558 24.0394L33.0667 27.9512C33.1248 28.0092 33.1937 28.0553 33.2696 28.0867C33.3455 28.1181 33.4268 28.1343 33.5089 28.1343C33.591 28.1343 33.6723 28.1181 33.7482 28.0867C33.8241 28.0553 33.893 28.0092 33.9511 27.9512C34.0092 27.8931 34.0552 27.8241 34.0867 27.7483C34.1181 27.6724 34.1343 27.5911 34.1343 27.509C34.1343 27.4268 34.1181 27.3455 34.0867 27.2697C34.0552 27.1938 34.0092 27.1248 33.9511 27.0668ZM19.1339 18.759C19.1339 17.6464 19.4638 16.5589 20.0819 15.6339C20.7 14.7089 21.5785 13.9879 22.6063 13.5621C23.6341 13.1364 24.7651 13.025 25.8563 13.2421C26.9474 13.4591 27.9497 13.9948 28.7364 14.7815C29.5231 15.5682 30.0588 16.5704 30.2758 17.6616C30.4929 18.7527 30.3815 19.8837 29.9557 20.9116C29.53 21.9394 28.809 22.8179 27.884 23.436C26.959 24.0541 25.8714 24.384 24.7589 24.384C23.2676 24.3823 21.8378 23.7892 20.7833 22.7346C19.7287 21.6801 19.1356 20.2503 19.1339 18.759Z" fill="#FFFBF3"/>
<path d="M45.488 26V14.8H52.112V16.032H46.848V19.648H51.648V20.864H46.848V24.768H52.144V26H45.488ZM54.2688 26V18H55.4688L55.5328 19.12C55.7781 18.6933 56.0928 18.368 56.4768 18.144C56.8608 17.92 57.3088 17.808 57.8208 17.808C58.4608 17.808 59.0048 17.9573 59.4528 18.256C59.9114 18.5547 60.2421 19.008 60.4448 19.616C60.6688 19.0293 60.9941 18.5813 61.4208 18.272C61.8581 17.9627 62.3754 17.808 62.9728 17.808C63.8688 17.808 64.5728 18.1067 65.0848 18.704C65.6074 19.3013 65.8634 20.208 65.8528 21.424V26H64.5728V21.904C64.5728 21.1147 64.4874 20.512 64.3168 20.096C64.1568 19.68 63.9381 19.3973 63.6608 19.248C63.3834 19.088 63.0634 19.008 62.7008 19.008C62.0714 19.008 61.5808 19.2587 61.2288 19.76C60.8768 20.2507 60.7008 20.9493 60.7008 21.856V26H59.4208V21.904C59.4208 21.1147 59.3354 20.512 59.1648 20.096C59.0048 19.68 58.7808 19.3973 58.4928 19.248C58.2154 19.088 57.8954 19.008 57.5328 19.008C56.9141 19.008 56.4288 19.2587 56.0768 19.76C55.7248 20.2507 55.5488 20.9493 55.5488 21.856V26H54.2688ZM67.6381 29.2V18H68.8381L68.9181 19.472V29.2H67.6381ZM71.6221 26.192C70.9501 26.192 70.3581 26.016 69.8461 25.664C69.3448 25.312 68.9555 24.8213 68.6781 24.192C68.4008 23.552 68.2621 22.8213 68.2621 22C68.2621 21.168 68.4008 20.4373 68.6781 19.808C68.9555 19.1787 69.3448 18.688 69.8461 18.336C70.3581 17.984 70.9501 17.808 71.6221 17.808C72.3368 17.808 72.9661 17.984 73.5101 18.336C74.0541 18.688 74.4755 19.1787 74.7741 19.808C75.0835 20.4373 75.2381 21.168 75.2381 22C75.2381 22.8213 75.0835 23.552 74.7741 24.192C74.4755 24.8213 74.0541 25.312 73.5101 25.664C72.9661 26.016 72.3368 26.192 71.6221 26.192ZM71.3341 25.024C71.8355 25.024 72.2781 24.896 72.6621 24.64C73.0568 24.384 73.3661 24.0267 73.5901 23.568C73.8248 23.1093 73.9421 22.5867 73.9421 22C73.9421 21.4133 73.8301 20.8907 73.6061 20.432C73.3928 19.9733 73.0888 19.616 72.6941 19.36C72.2995 19.104 71.8515 18.976 71.3501 18.976C70.8808 18.976 70.4595 19.104 70.0861 19.36C69.7235 19.616 69.4355 19.9733 69.2221 20.432C69.0195 20.8907 68.9181 21.4133 68.9181 22C68.9181 22.5867 69.0195 23.1093 69.2221 23.568C69.4355 24.0267 69.7235 24.384 70.0861 24.64C70.4488 24.896 70.8648 25.024 71.3341 25.024ZM81.6193 26L81.5553 24.688V21.776C81.5553 21.1467 81.4859 20.6293 81.3473 20.224C81.2086 19.808 80.9899 19.4933 80.6913 19.28C80.3926 19.0667 80.0033 18.96 79.5233 18.96C79.0859 18.96 78.7073 19.0507 78.3873 19.232C78.0779 19.4027 77.8219 19.68 77.6193 20.064L76.4673 19.616C76.6699 19.2427 76.9153 18.9227 77.2033 18.656C77.4913 18.3787 77.8273 18.1707 78.2113 18.032C78.5953 17.8827 79.0326 17.808 79.5233 17.808C80.2699 17.808 80.8833 17.9573 81.3633 18.256C81.8539 18.544 82.2219 18.976 82.4673 19.552C82.7126 20.1173 82.8299 20.8213 82.8193 21.664L82.8033 26H81.6193ZM79.2193 26.192C78.2806 26.192 77.5446 25.9787 77.0113 25.552C76.4886 25.1147 76.2273 24.512 76.2273 23.744C76.2273 22.9333 76.4939 22.3147 77.0273 21.888C77.5713 21.4507 78.3286 21.232 79.2993 21.232H81.5873V22.304H79.5873C78.8406 22.304 78.3073 22.4267 77.9873 22.672C77.6779 22.9173 77.5233 23.2693 77.5233 23.728C77.5233 24.144 77.6779 24.4747 77.9873 24.72C78.2966 24.9547 78.7286 25.072 79.2833 25.072C79.7419 25.072 80.1419 24.976 80.4833 24.784C80.8246 24.5813 81.0859 24.2987 81.2673 23.936C81.4593 23.5627 81.5553 23.1253 81.5553 22.624H82.0993C82.0993 23.712 81.8539 24.5813 81.3633 25.232C80.8726 25.872 80.1579 26.192 79.2193 26.192ZM87.5355 26.192C86.7568 26.192 86.1542 25.9893 85.7275 25.584C85.3008 25.1787 85.0875 24.608 85.0875 23.872V15.504H86.3675V23.744C86.3675 24.1493 86.4742 24.464 86.6875 24.688C86.9115 24.9013 87.2208 25.008 87.6155 25.008C87.7435 25.008 87.8662 24.992 87.9835 24.96C88.1115 24.9173 88.2768 24.8213 88.4795 24.672L88.9755 25.712C88.6982 25.8933 88.4475 26.016 88.2235 26.08C87.9995 26.1547 87.7702 26.192 87.5355 26.192ZM83.6955 19.136V18H88.7675V19.136H83.6955ZM90.2544 26V14.8H91.5344V26H90.2544ZM95.8864 26V21.904H97.1664V26H95.8864ZM95.8864 21.904C95.8864 21.1147 95.7904 20.512 95.5984 20.096C95.417 19.68 95.1664 19.3973 94.8464 19.248C94.5264 19.088 94.1637 19.008 93.7584 19.008C93.0544 19.008 92.505 19.2587 92.1104 19.76C91.7264 20.2507 91.5344 20.9493 91.5344 21.856H90.9104C90.9104 21.0133 91.033 20.288 91.2784 19.68C91.5344 19.072 91.897 18.608 92.3664 18.288C92.8357 17.968 93.401 17.808 94.0624 17.808C94.681 17.808 95.225 17.936 95.6944 18.192C96.1637 18.4373 96.5264 18.832 96.7824 19.376C97.049 19.92 97.177 20.6347 97.1664 21.52V21.904H95.8864ZM98.9363 26V18H100.216V26H98.9363ZM99.5923 16.144C99.3789 16.144 99.1923 16.064 99.0323 15.904C98.8723 15.744 98.7923 15.5573 98.7923 15.344C98.7923 15.12 98.8723 14.9333 99.0323 14.784C99.1923 14.624 99.3789 14.544 99.5923 14.544C99.8163 14.544 100.003 14.624 100.152 14.784C100.312 14.9333 100.392 15.12 100.392 15.344C100.392 15.5573 100.312 15.744 100.152 15.904C100.003 16.064 99.8163 16.144 99.5923 16.144ZM101.855 26V24.976L106.575 19.12H101.855V18H108.239V18.992L103.503 24.88H108.271V26H101.855ZM113.298 26.192C112.52 26.192 111.832 26.016 111.234 25.664C110.637 25.3013 110.168 24.8053 109.826 24.176C109.496 23.5467 109.33 22.8213 109.33 22C109.33 21.1787 109.496 20.4533 109.826 19.824C110.168 19.1947 110.632 18.704 111.218 18.352C111.816 17.9893 112.498 17.808 113.266 17.808C114.013 17.808 114.658 17.9947 115.202 18.368C115.746 18.7307 116.168 19.2427 116.466 19.904C116.765 20.5653 116.914 21.344 116.914 22.24H110.306L110.626 21.968C110.626 22.608 110.738 23.1573 110.962 23.616C111.197 24.0747 111.522 24.4267 111.938 24.672C112.354 24.9067 112.829 25.024 113.362 25.024C113.928 25.024 114.402 24.8907 114.786 24.624C115.181 24.3573 115.485 24.0053 115.698 23.568L116.802 24.128C116.6 24.544 116.328 24.9067 115.986 25.216C115.656 25.5253 115.261 25.7653 114.802 25.936C114.354 26.1067 113.853 26.192 113.298 26.192ZM110.706 21.424L110.37 21.168H115.89L115.554 21.44C115.554 20.928 115.453 20.4853 115.25 20.112C115.048 19.7387 114.776 19.4507 114.434 19.248C114.093 19.0453 113.698 18.944 113.25 18.944C112.813 18.944 112.397 19.0453 112.002 19.248C111.618 19.4507 111.304 19.7387 111.058 20.112C110.824 20.4747 110.706 20.912 110.706 21.424Z" fill="white"/>
</svg>
