<svg width="738" height="40" viewBox="0 0 738 40" fill="none" xmlns="http://www.w3.org/2000/svg">
<rect x="636" width="102" height="40" rx="20" fill="#1A1A1A"/>
<path d="M669.645 18.0328C669.351 17.725 669.046 17.4078 668.931 17.1289C668.825 16.8734 668.819 16.45 668.812 16.0398C668.801 15.2773 668.788 14.4133 668.187 13.8125C667.587 13.2117 666.723 13.1992 665.96 13.1875C665.55 13.1812 665.127 13.175 664.871 13.0687C664.593 12.9539 664.275 12.6492 663.967 12.3547C663.428 11.8367 662.816 11.25 662 11.25C661.184 11.25 660.573 11.8367 660.033 12.3547C659.725 12.6492 659.408 12.9539 659.129 13.0687C658.875 13.175 658.45 13.1812 658.04 13.1875C657.277 13.1992 656.413 13.2117 655.812 13.8125C655.212 14.4133 655.203 15.2773 655.187 16.0398C655.181 16.45 655.175 16.8734 655.069 17.1289C654.954 17.407 654.649 17.725 654.355 18.0328C653.837 18.5719 653.25 19.1844 653.25 20C653.25 20.8156 653.837 21.4273 654.355 21.9672C654.649 22.275 654.954 22.5922 655.069 22.8711C655.175 23.1266 655.181 23.55 655.187 23.9602C655.199 24.7227 655.212 25.5867 655.812 26.1875C656.413 26.7883 657.277 26.8008 658.04 26.8125C658.45 26.8187 658.873 26.825 659.129 26.9313C659.407 27.0461 659.725 27.3508 660.033 27.6453C660.572 28.1633 661.184 28.75 662 28.75C662.816 28.75 663.427 28.1633 663.967 27.6453C664.275 27.3508 664.592 27.0461 664.871 26.9313C665.127 26.825 665.55 26.8187 665.96 26.8125C666.723 26.8008 667.587 26.7883 668.187 26.1875C668.788 25.5867 668.801 24.7227 668.812 23.9602C668.819 23.55 668.825 23.1266 668.931 22.8711C669.046 22.593 669.351 22.275 669.645 21.9672C670.163 21.4281 670.75 20.8156 670.75 20C670.75 19.1844 670.163 18.5727 669.645 18.0328ZM668.743 21.1023C668.369 21.493 667.981 21.8969 667.776 22.393C667.579 22.8695 667.57 23.4141 667.562 23.9414C667.555 24.4883 667.546 25.0609 667.303 25.3031C667.06 25.5453 666.491 25.5547 665.941 25.5625C665.414 25.5703 664.87 25.5789 664.393 25.7758C663.897 25.9812 663.493 26.3687 663.102 26.743C662.712 27.1172 662.312 27.5 662 27.5C661.688 27.5 661.285 27.1156 660.898 26.743C660.51 26.3703 660.103 25.9812 659.607 25.7758C659.13 25.5789 658.586 25.5703 658.059 25.5625C657.512 25.5547 656.939 25.5461 656.697 25.3031C656.455 25.0602 656.445 24.4914 656.437 23.9414C656.43 23.4141 656.421 22.8695 656.224 22.393C656.019 21.8969 655.631 21.493 655.257 21.1023C654.883 20.7117 654.5 20.3125 654.5 20C654.5 19.6875 654.884 19.2852 655.257 18.8977C655.63 18.5102 656.019 18.1031 656.224 17.607C656.421 17.1305 656.43 16.5859 656.437 16.0586C656.445 15.5117 656.454 14.9391 656.697 14.6969C656.94 14.4547 657.509 14.4453 658.059 14.4375C658.586 14.4297 659.13 14.4211 659.607 14.2242C660.103 14.0187 660.507 13.6312 660.898 13.257C661.288 12.8828 661.688 12.5 662 12.5C662.312 12.5 662.715 12.8844 663.102 13.257C663.49 13.6297 663.897 14.0187 664.393 14.2242C664.87 14.4211 665.414 14.4297 665.941 14.4375C666.488 14.4453 667.061 14.4539 667.303 14.6969C667.545 14.9398 667.555 15.5086 667.562 16.0586C667.57 16.5859 667.579 17.1305 667.776 17.607C667.981 18.1031 668.369 18.507 668.743 18.8977C669.117 19.2883 669.5 19.6875 669.5 20C669.5 20.3125 669.116 20.7148 668.743 21.1023ZM665.567 17.6828C665.625 17.7409 665.671 17.8098 665.703 17.8857C665.734 17.9615 665.75 18.0429 665.75 18.125C665.75 18.2071 665.734 18.2885 665.703 18.3643C665.671 18.4402 665.625 18.5091 665.567 18.5672L661.192 22.9422C661.134 23.0003 661.065 23.0464 660.989 23.0779C660.913 23.1093 660.832 23.1255 660.75 23.1255C660.668 23.1255 660.587 23.1093 660.511 23.0779C660.435 23.0464 660.366 23.0003 660.308 22.9422L658.433 21.0672C658.316 20.9499 658.25 20.7909 658.25 20.625C658.25 20.4591 658.316 20.3001 658.433 20.1828C658.55 20.0655 658.709 19.9997 658.875 19.9997C659.041 19.9997 659.2 20.0655 659.317 20.1828L660.75 21.6164L664.683 17.6828C664.741 17.6247 664.81 17.5786 664.886 17.5472C664.962 17.5157 665.043 17.4995 665.125 17.4995C665.207 17.4995 665.288 17.5157 665.364 17.5472C665.44 17.5786 665.509 17.6247 665.567 17.6828Z" fill="white"/>
<path d="M684.928 26L689.504 14.8H690.928L686.288 26H684.928ZM684.784 26L680.144 14.8H681.568L686.128 26H684.784ZM694.757 26.192C693.978 26.192 693.29 26.016 692.693 25.664C692.096 25.3013 691.626 24.8053 691.285 24.176C690.954 23.5467 690.789 22.8213 690.789 22C690.789 21.1787 690.954 20.4533 691.285 19.824C691.626 19.1947 692.09 18.704 692.677 18.352C693.274 17.9893 693.957 17.808 694.725 17.808C695.472 17.808 696.117 17.9947 696.661 18.368C697.205 18.7307 697.626 19.2427 697.925 19.904C698.224 20.5653 698.373 21.344 698.373 22.24H691.765L692.085 21.968C692.085 22.608 692.197 23.1573 692.421 23.616C692.656 24.0747 692.981 24.4267 693.397 24.672C693.813 24.9067 694.288 25.024 694.821 25.024C695.386 25.024 695.861 24.8907 696.245 24.624C696.64 24.3573 696.944 24.0053 697.157 23.568L698.261 24.128C698.058 24.544 697.786 24.9067 697.445 25.216C697.114 25.5253 696.72 25.7653 696.261 25.936C695.813 26.1067 695.312 26.192 694.757 26.192ZM692.165 21.424L691.829 21.168H697.349L697.013 21.44C697.013 20.928 696.912 20.4853 696.709 20.112C696.506 19.7387 696.234 19.4507 695.893 19.248C695.552 19.0453 695.157 18.944 694.709 18.944C694.272 18.944 693.856 19.0453 693.461 19.248C693.077 19.4507 692.762 19.7387 692.517 20.112C692.282 20.4747 692.165 20.912 692.165 21.424ZM700.372 21.664C700.372 20.8 700.537 20.1013 700.868 19.568C701.198 19.024 701.62 18.624 702.132 18.368C702.654 18.1013 703.204 17.968 703.78 17.968V19.168C703.31 19.168 702.857 19.248 702.42 19.408C701.993 19.5573 701.641 19.808 701.364 20.16C701.086 20.512 700.948 20.992 700.948 21.6L700.372 21.664ZM699.668 26V18H700.948V26H699.668ZM704.834 26V18H706.114V26H704.834ZM705.49 16.144C705.276 16.144 705.09 16.064 704.93 15.904C704.77 15.744 704.69 15.5573 704.69 15.344C704.69 15.12 704.77 14.9333 704.93 14.784C705.09 14.624 705.276 14.544 705.49 14.544C705.714 14.544 705.9 14.624 706.05 14.784C706.21 14.9333 706.29 15.12 706.29 15.344C706.29 15.5573 706.21 15.744 706.05 15.904C705.9 16.064 705.714 16.144 705.49 16.144ZM708.952 26V17.088C708.952 16.256 709.144 15.632 709.528 15.216C709.923 14.7893 710.52 14.576 711.32 14.576C711.534 14.576 711.774 14.6133 712.04 14.688C712.307 14.7627 712.59 14.8693 712.888 15.008L712.408 16.016C712.163 15.92 711.955 15.8453 711.784 15.792C711.614 15.7387 711.47 15.712 711.352 15.712C710.979 15.712 710.696 15.8347 710.504 16.08C710.323 16.3147 710.232 16.6827 710.232 17.184V26H708.952ZM707.48 19.104V18H712.552V19.104H707.48ZM714.459 29.392C714.256 29.392 714.021 29.3493 713.755 29.264C713.488 29.1893 713.205 29.088 712.907 28.96L713.387 27.888C713.632 27.9947 713.845 28.0747 714.027 28.128C714.219 28.1813 714.368 28.208 714.475 28.208C714.763 28.208 714.997 28.128 715.179 27.968C715.371 27.8187 715.531 27.6 715.659 27.312L716.571 25.136L719.531 18H720.907L717.067 27.12C716.864 27.5893 716.651 27.9947 716.427 28.336C716.213 28.6773 715.952 28.9387 715.643 29.12C715.333 29.3013 714.939 29.392 714.459 29.392ZM716.219 26L712.763 18H714.123L717.099 25.12L717.483 26H716.219Z" fill="white"/>
<line x1="593" y1="20.5" x2="636" y2="20.5" stroke="#1A1A1A"/>
<rect x="484" width="109" height="40" rx="20" fill="#1A1A1A"/>
<path d="M517.759 15.7318L514.268 12.2412C514.152 12.1251 514.014 12.033 513.862 11.9702C513.711 11.9073 513.548 11.875 513.384 11.875C513.22 11.875 513.057 11.9073 512.906 11.9702C512.754 12.033 512.616 12.1251 512.5 12.2412L502.866 21.8748C502.75 21.9905 502.657 22.1281 502.595 22.2798C502.532 22.4315 502.499 22.5942 502.5 22.7584V26.2498C502.5 26.5813 502.632 26.8993 502.866 27.1337C503.101 27.3681 503.418 27.4998 503.75 27.4998H516.875C517.041 27.4998 517.2 27.434 517.317 27.3168C517.434 27.1995 517.5 27.0406 517.5 26.8748C517.5 26.7091 517.434 26.5501 517.317 26.4329C517.2 26.3157 517.041 26.2498 516.875 26.2498H509.009L517.759 17.4998C517.875 17.3837 517.968 17.2459 518.03 17.0942C518.093 16.9426 518.126 16.78 518.126 16.6158C518.126 16.4517 518.093 16.2891 518.03 16.1374C517.968 15.9857 517.875 15.8479 517.759 15.7318ZM507.241 26.2498H503.75V22.7584L510.625 15.8834L514.116 19.3748L507.241 26.2498ZM515 18.4912L511.509 14.9998L513.384 13.1248L516.875 16.6162L515 18.4912Z" fill="white"/>
<path d="M529.488 26V14.8H532.896C533.952 14.8 534.88 15.04 535.68 15.52C536.491 15.9893 537.125 16.6453 537.584 17.488C538.043 18.3307 538.272 19.3013 538.272 20.4C538.272 21.488 538.043 22.4533 537.584 23.296C537.125 24.1387 536.491 24.8 535.68 25.28C534.88 25.76 533.952 26 532.896 26H529.488ZM530.848 24.752H532.896C533.461 24.752 533.984 24.6453 534.464 24.432C534.944 24.208 535.365 23.8933 535.728 23.488C536.101 23.0827 536.389 22.6187 536.592 22.096C536.805 21.5627 536.912 20.9973 536.912 20.4C536.912 19.8027 536.805 19.2427 536.592 18.72C536.389 18.1867 536.101 17.7173 535.728 17.312C535.365 16.9067 534.944 16.5973 534.464 16.384C533.984 16.16 533.461 16.048 532.896 16.048H530.848V24.752ZM543.32 26.192C542.541 26.192 541.853 26.016 541.256 25.664C540.658 25.3013 540.189 24.8053 539.848 24.176C539.517 23.5467 539.352 22.8213 539.352 22C539.352 21.1787 539.517 20.4533 539.848 19.824C540.189 19.1947 540.653 18.704 541.24 18.352C541.837 17.9893 542.52 17.808 543.288 17.808C544.034 17.808 544.68 17.9947 545.224 18.368C545.768 18.7307 546.189 19.2427 546.488 19.904C546.786 20.5653 546.936 21.344 546.936 22.24H540.328L540.648 21.968C540.648 22.608 540.76 23.1573 540.984 23.616C541.218 24.0747 541.544 24.4267 541.96 24.672C542.376 24.9067 542.85 25.024 543.384 25.024C543.949 25.024 544.424 24.8907 544.808 24.624C545.202 24.3573 545.506 24.0053 545.72 23.568L546.824 24.128C546.621 24.544 546.349 24.9067 546.008 25.216C545.677 25.5253 545.282 25.7653 544.824 25.936C544.376 26.1067 543.874 26.192 543.32 26.192ZM540.728 21.424L540.392 21.168H545.912L545.576 21.44C545.576 20.928 545.474 20.4853 545.272 20.112C545.069 19.7387 544.797 19.4507 544.456 19.248C544.114 19.0453 543.72 18.944 543.272 18.944C542.834 18.944 542.418 19.0453 542.024 19.248C541.64 19.4507 541.325 19.7387 541.08 20.112C540.845 20.4747 540.728 20.912 540.728 21.424ZM551.03 26.192C550.443 26.192 549.931 26.1067 549.494 25.936C549.057 25.7547 548.689 25.52 548.39 25.232C548.102 24.944 547.894 24.6293 547.766 24.288L548.886 23.824C549.067 24.1867 549.339 24.48 549.702 24.704C550.065 24.928 550.465 25.04 550.902 25.04C551.403 25.04 551.825 24.944 552.166 24.752C552.507 24.5493 552.678 24.2667 552.678 23.904C552.678 23.5733 552.55 23.3067 552.294 23.104C552.049 22.9013 551.681 22.736 551.19 22.608L550.422 22.4C549.697 22.208 549.131 21.92 548.726 21.536C548.321 21.1413 548.118 20.6987 548.118 20.208C548.118 19.4507 548.363 18.864 548.854 18.448C549.355 18.0213 550.097 17.808 551.078 17.808C551.547 17.808 551.974 17.8773 552.358 18.016C552.742 18.1547 553.073 18.352 553.35 18.608C553.627 18.8533 553.83 19.1467 553.958 19.488L552.838 19.984C552.699 19.6213 552.47 19.36 552.15 19.2C551.83 19.04 551.441 18.96 550.982 18.96C550.491 18.96 550.107 19.0667 549.83 19.28C549.553 19.4827 549.414 19.7707 549.414 20.144C549.414 20.3573 549.526 20.56 549.75 20.752C549.985 20.9333 550.326 21.0827 550.774 21.2L551.574 21.408C552.097 21.536 552.534 21.728 552.886 21.984C553.238 22.2293 553.505 22.512 553.686 22.832C553.867 23.152 553.958 23.4933 553.958 23.856C553.958 24.336 553.83 24.752 553.574 25.104C553.318 25.456 552.971 25.728 552.534 25.92C552.097 26.1013 551.595 26.192 551.03 26.192ZM555.443 26V18H556.723V26H555.443ZM556.099 16.144C555.886 16.144 555.699 16.064 555.539 15.904C555.379 15.744 555.299 15.5573 555.299 15.344C555.299 15.12 555.379 14.9333 555.539 14.784C555.699 14.624 555.886 14.544 556.099 14.544C556.323 14.544 556.51 14.624 556.659 14.784C556.819 14.9333 556.899 15.12 556.899 15.344C556.899 15.5573 556.819 15.744 556.659 15.904C556.51 16.064 556.323 16.144 556.099 16.144ZM561.962 29.392C561.45 29.392 560.981 29.3387 560.554 29.232C560.138 29.136 559.781 29.024 559.482 28.896C559.194 28.7787 558.986 28.6773 558.858 28.592L559.338 27.552C559.477 27.6267 559.674 27.7173 559.93 27.824C560.186 27.9413 560.485 28.0373 560.826 28.112C561.178 28.1973 561.551 28.24 561.946 28.24C562.458 28.24 562.917 28.1333 563.322 27.92C563.738 27.7173 564.058 27.392 564.282 26.944C564.517 26.5067 564.634 25.9413 564.634 25.248V18H565.914V25.232C565.914 26.1493 565.743 26.9173 565.402 27.536C565.061 28.1547 564.591 28.6187 563.994 28.928C563.397 29.2373 562.719 29.392 561.962 29.392ZM561.914 25.936C561.199 25.936 560.57 25.7653 560.026 25.424C559.482 25.0827 559.055 24.608 558.746 24C558.447 23.3813 558.298 22.6773 558.298 21.888C558.298 21.0773 558.447 20.368 558.746 19.76C559.055 19.1413 559.482 18.6613 560.026 18.32C560.57 17.9787 561.199 17.808 561.914 17.808C562.586 17.808 563.173 17.9787 563.674 18.32C564.175 18.6613 564.565 19.1413 564.842 19.76C565.13 20.368 565.274 21.0773 565.274 21.888C565.274 22.688 565.13 23.392 564.842 24C564.565 24.608 564.175 25.0827 563.674 25.424C563.173 25.7653 562.586 25.936 561.914 25.936ZM562.218 24.832C562.687 24.832 563.103 24.704 563.466 24.448C563.829 24.192 564.111 23.8453 564.314 23.408C564.517 22.96 564.618 22.4427 564.618 21.856C564.618 21.2907 564.511 20.7893 564.298 20.352C564.095 19.904 563.813 19.5573 563.45 19.312C563.098 19.056 562.682 18.928 562.202 18.928C561.701 18.928 561.253 19.056 560.858 19.312C560.474 19.5573 560.17 19.904 559.946 20.352C559.733 20.7893 559.626 21.2907 559.626 21.856C559.626 22.4427 559.738 22.96 559.962 23.408C560.186 23.8453 560.49 24.192 560.874 24.448C561.269 24.704 561.717 24.832 562.218 24.832ZM567.833 26V18H569.033L569.113 19.472V26H567.833ZM573.449 26V21.904H574.729V26H573.449ZM573.449 21.904C573.449 21.1147 573.358 20.512 573.177 20.096C572.995 19.68 572.745 19.3973 572.425 19.248C572.105 19.088 571.742 19.008 571.337 19.008C570.633 19.008 570.083 19.2587 569.689 19.76C569.305 20.2507 569.113 20.9493 569.113 21.856H568.489C568.489 21.0133 568.611 20.288 568.857 19.68C569.102 19.072 569.459 18.608 569.929 18.288C570.398 17.968 570.963 17.808 571.625 17.808C572.254 17.808 572.798 17.936 573.257 18.192C573.726 18.4373 574.089 18.832 574.345 19.376C574.611 19.92 574.739 20.6347 574.729 21.52V21.904H573.449Z" fill="white"/>
<line x1="441" y1="20.5" x2="484" y2="20.5" stroke="#1A1A1A"/>
<rect x="329" width="112" height="40" rx="20" fill="#1A1A1A"/>
<path d="M362.5 19.9999C362.5 20.1656 362.434 20.3246 362.317 20.4418C362.2 20.559 362.041 20.6249 361.875 20.6249H355C354.834 20.6249 354.675 20.559 354.558 20.4418C354.441 20.3246 354.375 20.1656 354.375 19.9999C354.375 19.8341 354.441 19.6751 354.558 19.5579C354.675 19.4407 354.834 19.3749 355 19.3749H361.875C362.041 19.3749 362.2 19.4407 362.317 19.5579C362.434 19.6751 362.5 19.8341 362.5 19.9999ZM355 15.6249H361.875C362.041 15.6249 362.2 15.559 362.317 15.4418C362.434 15.3246 362.5 15.1656 362.5 14.9999C362.5 14.8341 362.434 14.6751 362.317 14.5579C362.2 14.4407 362.041 14.3749 361.875 14.3749H355C354.834 14.3749 354.675 14.4407 354.558 14.5579C354.441 14.6751 354.375 14.8341 354.375 14.9999C354.375 15.1656 354.441 15.3246 354.558 15.4418C354.675 15.559 354.834 15.6249 355 15.6249ZM361.875 24.3749H355C354.834 24.3749 354.675 24.4407 354.558 24.5579C354.441 24.6751 354.375 24.8341 354.375 24.9999C354.375 25.1656 354.441 25.3246 354.558 25.4418C354.675 25.559 354.834 25.6249 355 25.6249H361.875C362.041 25.6249 362.2 25.559 362.317 25.4418C362.434 25.3246 362.5 25.1656 362.5 24.9999C362.5 24.8341 362.434 24.6751 362.317 24.5579C362.2 24.4407 362.041 24.3749 361.875 24.3749ZM351.433 13.3077L349.375 15.3663L348.567 14.5577C348.45 14.4404 348.291 14.3745 348.125 14.3745C347.959 14.3745 347.8 14.4404 347.683 14.5577C347.566 14.6749 347.5 14.834 347.5 14.9999C347.5 15.1657 347.566 15.3248 347.683 15.442L348.933 16.692C348.991 16.7502 349.06 16.7963 349.136 16.8277C349.212 16.8592 349.293 16.8754 349.375 16.8754C349.457 16.8754 349.539 16.8592 349.614 16.8277C349.69 16.7963 349.759 16.7502 349.817 16.692L352.317 14.192C352.435 14.0748 352.5 13.9157 352.5 13.7499C352.5 13.584 352.435 13.4249 352.317 13.3077C352.2 13.1904 352.041 13.1245 351.875 13.1245C351.709 13.1245 351.55 13.1904 351.433 13.3077ZM351.433 18.3077L349.375 20.3663L348.567 19.5577C348.45 19.4404 348.291 19.3745 348.125 19.3745C347.959 19.3745 347.8 19.4404 347.683 19.5577C347.566 19.6749 347.5 19.834 347.5 19.9999C347.5 20.082 347.516 20.1633 347.547 20.2392C347.579 20.315 347.625 20.384 347.683 20.442L348.933 21.692C348.991 21.7502 349.06 21.7963 349.136 21.8277C349.212 21.8592 349.293 21.8754 349.375 21.8754C349.457 21.8754 349.539 21.8592 349.614 21.8277C349.69 21.7963 349.759 21.7502 349.817 21.692L352.317 19.192C352.435 19.0748 352.5 18.9157 352.5 18.7499C352.5 18.584 352.435 18.4249 352.317 18.3077C352.2 18.1904 352.041 18.1245 351.875 18.1245C351.709 18.1245 351.55 18.1904 351.433 18.3077ZM351.433 23.3077L349.375 25.3663L348.567 24.5577C348.509 24.4996 348.44 24.4535 348.364 24.4221C348.289 24.3907 348.207 24.3745 348.125 24.3745C348.043 24.3745 347.962 24.3907 347.886 24.4221C347.81 24.4535 347.741 24.4996 347.683 24.5577C347.625 24.6157 347.579 24.6847 347.547 24.7605C347.516 24.8364 347.5 24.9177 347.5 24.9999C347.5 25.082 347.516 25.1633 347.547 25.2392C347.579 25.315 347.625 25.384 347.683 25.442L348.933 26.692C348.991 26.7502 349.06 26.7963 349.136 26.8277C349.212 26.8592 349.293 26.8754 349.375 26.8754C349.457 26.8754 349.539 26.8592 349.614 26.8277C349.69 26.7963 349.759 26.7502 349.817 26.692L352.317 24.192C352.435 24.0748 352.5 23.9157 352.5 23.7499C352.5 23.584 352.435 23.4249 352.317 23.3077C352.2 23.1904 352.041 23.1245 351.875 23.1245C351.709 23.1245 351.55 23.1904 351.433 23.3077Z" fill="white"/>
<path d="M376.744 26V16.032H373.176V14.8H381.656V16.032H378.088V26H376.744ZM385.148 26.192C384.369 26.192 383.681 26.016 383.084 25.664C382.486 25.3013 382.017 24.8053 381.676 24.176C381.345 23.5467 381.18 22.8213 381.18 22C381.18 21.1787 381.345 20.4533 381.676 19.824C382.017 19.1947 382.481 18.704 383.068 18.352C383.665 17.9893 384.348 17.808 385.116 17.808C385.862 17.808 386.508 17.9947 387.052 18.368C387.596 18.7307 388.017 19.2427 388.316 19.904C388.614 20.5653 388.764 21.344 388.764 22.24H382.156L382.476 21.968C382.476 22.608 382.588 23.1573 382.812 23.616C383.046 24.0747 383.372 24.4267 383.788 24.672C384.204 24.9067 384.678 25.024 385.212 25.024C385.777 25.024 386.252 24.8907 386.636 24.624C387.03 24.3573 387.334 24.0053 387.548 23.568L388.652 24.128C388.449 24.544 388.177 24.9067 387.836 25.216C387.505 25.5253 387.11 25.7653 386.652 25.936C386.204 26.1067 385.702 26.192 385.148 26.192ZM382.556 21.424L382.22 21.168H387.74L387.404 21.44C387.404 20.928 387.302 20.4853 387.1 20.112C386.897 19.7387 386.625 19.4507 386.284 19.248C385.942 19.0453 385.548 18.944 385.1 18.944C384.662 18.944 384.246 19.0453 383.852 19.248C383.468 19.4507 383.153 19.7387 382.908 20.112C382.673 20.4747 382.556 20.912 382.556 21.424ZM392.858 26.192C392.271 26.192 391.759 26.1067 391.322 25.936C390.885 25.7547 390.517 25.52 390.218 25.232C389.93 24.944 389.722 24.6293 389.594 24.288L390.714 23.824C390.895 24.1867 391.167 24.48 391.53 24.704C391.893 24.928 392.293 25.04 392.73 25.04C393.231 25.04 393.653 24.944 393.994 24.752C394.335 24.5493 394.506 24.2667 394.506 23.904C394.506 23.5733 394.378 23.3067 394.122 23.104C393.877 22.9013 393.509 22.736 393.018 22.608L392.25 22.4C391.525 22.208 390.959 21.92 390.554 21.536C390.149 21.1413 389.946 20.6987 389.946 20.208C389.946 19.4507 390.191 18.864 390.682 18.448C391.183 18.0213 391.925 17.808 392.906 17.808C393.375 17.808 393.802 17.8773 394.186 18.016C394.57 18.1547 394.901 18.352 395.178 18.608C395.455 18.8533 395.658 19.1467 395.786 19.488L394.666 19.984C394.527 19.6213 394.298 19.36 393.978 19.2C393.658 19.04 393.269 18.96 392.81 18.96C392.319 18.96 391.935 19.0667 391.658 19.28C391.381 19.4827 391.242 19.7707 391.242 20.144C391.242 20.3573 391.354 20.56 391.578 20.752C391.813 20.9333 392.154 21.0827 392.602 21.2L393.402 21.408C393.925 21.536 394.362 21.728 394.714 21.984C395.066 22.2293 395.333 22.512 395.514 22.832C395.695 23.152 395.786 23.4933 395.786 23.856C395.786 24.336 395.658 24.752 395.402 25.104C395.146 25.456 394.799 25.728 394.362 25.92C393.925 26.1013 393.423 26.192 392.858 26.192ZM400.199 26.192C399.421 26.192 398.818 25.9893 398.391 25.584C397.965 25.1787 397.751 24.608 397.751 23.872V15.504H399.031V23.744C399.031 24.1493 399.138 24.464 399.351 24.688C399.575 24.9013 399.885 25.008 400.279 25.008C400.407 25.008 400.53 24.992 400.647 24.96C400.775 24.9173 400.941 24.8213 401.143 24.672L401.639 25.712C401.362 25.8933 401.111 26.016 400.887 26.08C400.663 26.1547 400.434 26.192 400.199 26.192ZM396.359 19.136V18H401.431V19.136H396.359ZM402.998 26V18H404.278V26H402.998ZM403.654 16.144C403.441 16.144 403.254 16.064 403.094 15.904C402.934 15.744 402.854 15.5573 402.854 15.344C402.854 15.12 402.934 14.9333 403.094 14.784C403.254 14.624 403.441 14.544 403.654 14.544C403.878 14.544 404.065 14.624 404.214 14.784C404.374 14.9333 404.454 15.12 404.454 15.344C404.454 15.5573 404.374 15.744 404.214 15.904C404.065 16.064 403.878 16.144 403.654 16.144ZM406.317 26V18H407.517L407.597 19.472V26H406.317ZM411.933 26V21.904H413.213V26H411.933ZM411.933 21.904C411.933 21.1147 411.842 20.512 411.661 20.096C411.48 19.68 411.229 19.3973 410.909 19.248C410.589 19.088 410.226 19.008 409.821 19.008C409.117 19.008 408.568 19.2587 408.173 19.76C407.789 20.2507 407.597 20.9493 407.597 21.856H406.973C406.973 21.0133 407.096 20.288 407.341 19.68C407.586 19.072 407.944 18.608 408.413 18.288C408.882 17.968 409.448 17.808 410.109 17.808C410.738 17.808 411.282 17.936 411.741 18.192C412.21 18.4373 412.573 18.832 412.829 19.376C413.096 19.92 413.224 20.6347 413.213 21.52V21.904H411.933ZM418.119 29.392C417.607 29.392 417.137 29.3387 416.711 29.232C416.295 29.136 415.937 29.024 415.639 28.896C415.351 28.7787 415.143 28.6773 415.015 28.592L415.495 27.552C415.633 27.6267 415.831 27.7173 416.087 27.824C416.343 27.9413 416.641 28.0373 416.983 28.112C417.335 28.1973 417.708 28.24 418.103 28.24C418.615 28.24 419.073 28.1333 419.479 27.92C419.895 27.7173 420.215 27.392 420.439 26.944C420.673 26.5067 420.791 25.9413 420.791 25.248V18H422.071V25.232C422.071 26.1493 421.9 26.9173 421.559 27.536C421.217 28.1547 420.748 28.6187 420.151 28.928C419.553 29.2373 418.876 29.392 418.119 29.392ZM418.071 25.936C417.356 25.936 416.727 25.7653 416.183 25.424C415.639 25.0827 415.212 24.608 414.903 24C414.604 23.3813 414.455 22.6773 414.455 21.888C414.455 21.0773 414.604 20.368 414.903 19.76C415.212 19.1413 415.639 18.6613 416.183 18.32C416.727 17.9787 417.356 17.808 418.071 17.808C418.743 17.808 419.329 17.9787 419.831 18.32C420.332 18.6613 420.721 19.1413 420.999 19.76C421.287 20.368 421.431 21.0773 421.431 21.888C421.431 22.688 421.287 23.392 420.999 24C420.721 24.608 420.332 25.0827 419.831 25.424C419.329 25.7653 418.743 25.936 418.071 25.936ZM418.375 24.832C418.844 24.832 419.26 24.704 419.623 24.448C419.985 24.192 420.268 23.8453 420.471 23.408C420.673 22.96 420.775 22.4427 420.775 21.856C420.775 21.2907 420.668 20.7893 420.455 20.352C420.252 19.904 419.969 19.5573 419.607 19.312C419.255 19.056 418.839 18.928 418.359 18.928C417.857 18.928 417.409 19.056 417.015 19.312C416.631 19.5573 416.327 19.904 416.103 20.352C415.889 20.7893 415.783 21.2907 415.783 21.856C415.783 22.4427 415.895 22.96 416.119 23.408C416.343 23.8453 416.647 24.192 417.031 24.448C417.425 24.704 417.873 24.832 418.375 24.832Z" fill="white"/>
<line x1="286" y1="20.5" x2="329" y2="20.5" stroke="#1A1A1A"/>
<rect x="179" width="107" height="40" rx="20" fill="#1A1A1A"/>
<path d="M208.75 28.125C208.75 28.2908 208.684 28.4498 208.567 28.567C208.45 28.6842 208.291 28.75 208.125 28.75H201.875C201.709 28.75 201.55 28.6842 201.433 28.567C201.316 28.4498 201.25 28.2908 201.25 28.125C201.25 27.9593 201.316 27.8003 201.433 27.6831C201.55 27.5659 201.709 27.5 201.875 27.5H208.125C208.291 27.5 208.45 27.5659 208.567 27.6831C208.684 27.8003 208.75 27.9593 208.75 28.125ZM211.875 18.125C211.878 19.167 211.642 20.1957 211.187 21.1328C210.731 22.0699 210.068 22.8905 209.247 23.5321C209.093 23.6497 208.969 23.8009 208.883 23.9741C208.797 24.1473 208.751 24.3379 208.75 24.5313V25C208.75 25.3316 208.618 25.6495 208.384 25.8839C208.15 26.1183 207.832 26.25 207.5 26.25H202.5C202.169 26.25 201.851 26.1183 201.616 25.8839C201.382 25.6495 201.25 25.3316 201.25 25V24.5313C201.25 24.3402 201.206 24.1517 201.122 23.9802C201.037 23.8088 200.915 23.6589 200.763 23.5422C199.944 22.9045 199.281 22.0887 198.824 21.1568C198.367 20.2249 198.128 19.2013 198.125 18.1633C198.105 14.4399 201.114 11.3391 204.834 11.25C205.751 11.228 206.663 11.3895 207.516 11.7251C208.37 12.0607 209.147 12.5636 209.803 13.2042C210.459 13.8448 210.981 14.6102 211.336 15.4553C211.692 16.3004 211.875 17.2081 211.875 18.125ZM210.625 18.125C210.625 17.3748 210.475 16.6321 210.184 15.9406C209.893 15.2491 209.467 14.6229 208.93 14.0987C208.393 13.5746 207.757 13.1631 207.059 12.8886C206.36 12.614 205.614 12.4819 204.864 12.5C201.817 12.5719 199.359 15.1086 199.375 18.1555C199.378 19.0044 199.574 19.8415 199.948 20.6036C200.322 21.3656 200.865 22.0325 201.534 22.5539C201.836 22.788 202.079 23.0879 202.247 23.4307C202.414 23.7734 202.501 24.1499 202.5 24.5313V25H207.5V24.5313C207.501 24.1488 207.589 23.7715 207.758 23.4283C207.927 23.0851 208.172 22.785 208.474 22.5508C209.146 22.0257 209.689 21.354 210.062 20.5869C210.435 19.8199 210.627 18.9778 210.625 18.125ZM209.367 17.3954C209.204 16.4901 208.769 15.6563 208.119 15.0061C207.468 14.3558 206.634 13.9205 205.729 13.7586C205.648 13.745 205.565 13.7474 205.485 13.7658C205.405 13.7842 205.33 13.8181 205.263 13.8657C205.196 13.9133 205.139 13.9736 205.095 14.0432C205.052 14.1127 205.022 14.1902 205.009 14.2711C204.995 14.3521 204.997 14.4349 205.016 14.5149C205.034 14.5949 205.068 14.6705 205.116 14.7374C205.163 14.8043 205.224 14.8612 205.293 14.9048C205.363 14.9483 205.44 14.9778 205.521 14.9914C206.816 15.2094 207.914 16.3079 208.134 17.6047C208.158 17.7503 208.234 17.8824 208.347 17.9776C208.46 18.0729 208.602 18.1251 208.75 18.125C208.785 18.1248 208.821 18.122 208.856 18.1164C209.019 18.0886 209.165 17.9969 209.26 17.8617C209.356 17.7265 209.394 17.5587 209.367 17.3954Z" fill="white"/>
<path d="M224.488 24V12.8H227.896C228.952 12.8 229.88 13.04 230.68 13.52C231.491 13.9893 232.125 14.6453 232.584 15.488C233.043 16.3307 233.272 17.3013 233.272 18.4C233.272 19.488 233.043 20.4533 232.584 21.296C232.125 22.1387 231.491 22.8 230.68 23.28C229.88 23.76 228.952 24 227.896 24H224.488ZM225.848 22.752H227.896C228.461 22.752 228.984 22.6453 229.464 22.432C229.944 22.208 230.365 21.8933 230.728 21.488C231.101 21.0827 231.389 20.6187 231.592 20.096C231.805 19.5627 231.912 18.9973 231.912 18.4C231.912 17.8027 231.805 17.2427 231.592 16.72C231.389 16.1867 231.101 15.7173 230.728 15.312C230.365 14.9067 229.944 14.5973 229.464 14.384C228.984 14.16 228.461 14.048 227.896 14.048H225.848V22.752ZM238.32 24.192C237.541 24.192 236.853 24.016 236.256 23.664C235.658 23.3013 235.189 22.8053 234.848 22.176C234.517 21.5467 234.352 20.8213 234.352 20C234.352 19.1787 234.517 18.4533 234.848 17.824C235.189 17.1947 235.653 16.704 236.24 16.352C236.837 15.9893 237.52 15.808 238.288 15.808C239.034 15.808 239.68 15.9947 240.224 16.368C240.768 16.7307 241.189 17.2427 241.488 17.904C241.786 18.5653 241.936 19.344 241.936 20.24H235.328L235.648 19.968C235.648 20.608 235.76 21.1573 235.984 21.616C236.218 22.0747 236.544 22.4267 236.96 22.672C237.376 22.9067 237.85 23.024 238.384 23.024C238.949 23.024 239.424 22.8907 239.808 22.624C240.202 22.3573 240.506 22.0053 240.72 21.568L241.824 22.128C241.621 22.544 241.349 22.9067 241.008 23.216C240.677 23.5253 240.282 23.7653 239.824 23.936C239.376 24.1067 238.874 24.192 238.32 24.192ZM235.728 19.424L235.392 19.168H240.912L240.576 19.44C240.576 18.928 240.474 18.4853 240.272 18.112C240.069 17.7387 239.797 17.4507 239.456 17.248C239.114 17.0453 238.72 16.944 238.272 16.944C237.834 16.944 237.418 17.0453 237.024 17.248C236.64 17.4507 236.325 17.7387 236.08 18.112C235.845 18.4747 235.728 18.912 235.728 19.424ZM244.03 24V15.088C244.03 14.256 244.222 13.632 244.606 13.216C245.001 12.7893 245.598 12.576 246.398 12.576C246.611 12.576 246.851 12.6133 247.118 12.688C247.385 12.7627 247.667 12.8693 247.966 13.008L247.486 14.016C247.241 13.92 247.033 13.8453 246.862 13.792C246.691 13.7387 246.547 13.712 246.43 13.712C246.057 13.712 245.774 13.8347 245.582 14.08C245.401 14.3147 245.31 14.6827 245.31 15.184V24H244.03ZM242.558 17.104V16H247.63V17.104H242.558ZM248.896 24V16H250.176V24H248.896ZM249.552 14.144C249.339 14.144 249.152 14.064 248.992 13.904C248.832 13.744 248.752 13.5573 248.752 13.344C248.752 13.12 248.832 12.9333 248.992 12.784C249.152 12.624 249.339 12.544 249.552 12.544C249.776 12.544 249.963 12.624 250.112 12.784C250.272 12.9333 250.352 13.12 250.352 13.344C250.352 13.5573 250.272 13.744 250.112 13.904C249.963 14.064 249.776 14.144 249.552 14.144ZM252.215 24V16H253.415L253.495 17.472V24H252.215ZM257.831 24V19.904H259.111V24H257.831ZM257.831 19.904C257.831 19.1147 257.74 18.512 257.559 18.096C257.378 17.68 257.127 17.3973 256.807 17.248C256.487 17.088 256.124 17.008 255.719 17.008C255.015 17.008 254.466 17.2587 254.071 17.76C253.687 18.2507 253.495 18.9493 253.495 19.856H252.871C252.871 19.0133 252.994 18.288 253.239 17.68C253.484 17.072 253.842 16.608 254.311 16.288C254.78 15.968 255.346 15.808 256.007 15.808C256.636 15.808 257.18 15.936 257.639 16.192C258.108 16.4373 258.471 16.832 258.727 17.376C258.994 17.92 259.122 18.6347 259.111 19.52V19.904H257.831ZM264.321 24.192C263.542 24.192 262.854 24.016 262.257 23.664C261.66 23.3013 261.19 22.8053 260.849 22.176C260.518 21.5467 260.353 20.8213 260.353 20C260.353 19.1787 260.518 18.4533 260.849 17.824C261.19 17.1947 261.654 16.704 262.241 16.352C262.838 15.9893 263.521 15.808 264.289 15.808C265.036 15.808 265.681 15.9947 266.225 16.368C266.769 16.7307 267.19 17.2427 267.489 17.904C267.788 18.5653 267.937 19.344 267.937 20.24H261.329L261.649 19.968C261.649 20.608 261.761 21.1573 261.985 21.616C262.22 22.0747 262.545 22.4267 262.961 22.672C263.377 22.9067 263.852 23.024 264.385 23.024C264.95 23.024 265.425 22.8907 265.809 22.624C266.204 22.3573 266.508 22.0053 266.721 21.568L267.825 22.128C267.622 22.544 267.35 22.9067 267.009 23.216C266.678 23.5253 266.284 23.7653 265.825 23.936C265.377 24.1067 264.876 24.192 264.321 24.192ZM261.729 19.424L261.393 19.168H266.913L266.577 19.44C266.577 18.928 266.476 18.4853 266.273 18.112C266.07 17.7387 265.798 17.4507 265.457 17.248C265.116 17.0453 264.721 16.944 264.273 16.944C263.836 16.944 263.42 17.0453 263.025 17.248C262.641 17.4507 262.326 17.7387 262.081 18.112C261.846 18.4747 261.729 18.912 261.729 19.424Z" fill="white"/>
<line x1="136" y1="20.5" x2="179" y2="20.5" stroke="#1A1A1A"/>
<rect x="0.5" y="0.5" width="135" height="39" rx="19.5" fill="#1A1A1A"/>
<rect x="0.5" y="0.5" width="135" height="39" rx="19.5" stroke="#1A1A1A"/>
<path d="M33.9421 27.058L30.0304 23.1471C31.1642 21.7859 31.7295 20.04 31.6089 18.2726C31.4882 16.5052 30.6908 14.8524 29.3825 13.658C28.0743 12.4635 26.3559 11.8194 24.5849 11.8597C22.8138 11.8999 21.1265 12.6214 19.8738 13.8741C18.6212 15.1267 17.8997 16.8141 17.8594 18.5851C17.8192 20.3561 18.4633 22.0745 19.6577 23.3828C20.8522 24.691 22.505 25.4884 24.2724 25.6091C26.0398 25.7298 27.7856 25.1644 29.1468 24.0306L33.0577 27.9424C33.1158 28.0004 33.1848 28.0465 33.2606 28.0779C33.3365 28.1094 33.4178 28.1255 33.4999 28.1255C33.5821 28.1255 33.6634 28.1094 33.7392 28.0779C33.8151 28.0465 33.8841 28.0004 33.9421 27.9424C34.0002 27.8843 34.0463 27.8154 34.0777 27.7395C34.1091 27.6636 34.1253 27.5823 34.1253 27.5002C34.1253 27.4181 34.1091 27.3367 34.0777 27.2609C34.0463 27.185 34.0002 27.1161 33.9421 27.058ZM19.1249 18.7502C19.1249 17.6377 19.4548 16.5501 20.0729 15.6251C20.691 14.7001 21.5695 13.9791 22.5973 13.5534C23.6252 13.1276 24.7562 13.0162 25.8473 13.2333C26.9385 13.4503 27.9407 13.986 28.7274 14.7727C29.5141 15.5594 30.0498 16.5617 30.2669 17.6528C30.4839 18.7439 30.3725 19.8749 29.9468 20.9028C29.521 21.9306 28.8 22.8091 27.875 23.4272C26.95 24.0453 25.8625 24.3752 24.7499 24.3752C23.2586 24.3735 21.8288 23.7804 20.7743 22.7258C19.7198 21.6713 19.1266 20.2415 19.1249 18.7502Z" fill="white"/>
<path d="M45.488 26V14.8H52.112V16.032H46.848V19.648H51.648V20.864H46.848V24.768H52.144V26H45.488ZM54.2688 26V18H55.4688L55.5328 19.12C55.7781 18.6933 56.0928 18.368 56.4768 18.144C56.8608 17.92 57.3088 17.808 57.8208 17.808C58.4608 17.808 59.0048 17.9573 59.4528 18.256C59.9114 18.5547 60.2421 19.008 60.4448 19.616C60.6688 19.0293 60.9941 18.5813 61.4208 18.272C61.8581 17.9627 62.3754 17.808 62.9728 17.808C63.8688 17.808 64.5728 18.1067 65.0848 18.704C65.6074 19.3013 65.8634 20.208 65.8528 21.424V26H64.5728V21.904C64.5728 21.1147 64.4874 20.512 64.3168 20.096C64.1568 19.68 63.9381 19.3973 63.6608 19.248C63.3834 19.088 63.0634 19.008 62.7008 19.008C62.0714 19.008 61.5808 19.2587 61.2288 19.76C60.8768 20.2507 60.7008 20.9493 60.7008 21.856V26H59.4208V21.904C59.4208 21.1147 59.3354 20.512 59.1648 20.096C59.0048 19.68 58.7808 19.3973 58.4928 19.248C58.2154 19.088 57.8954 19.008 57.5328 19.008C56.9141 19.008 56.4288 19.2587 56.0768 19.76C55.7248 20.2507 55.5488 20.9493 55.5488 21.856V26H54.2688ZM67.6381 29.2V18H68.8381L68.9181 19.472V29.2H67.6381ZM71.6221 26.192C70.9501 26.192 70.3581 26.016 69.8461 25.664C69.3448 25.312 68.9555 24.8213 68.6781 24.192C68.4008 23.552 68.2621 22.8213 68.2621 22C68.2621 21.168 68.4008 20.4373 68.6781 19.808C68.9555 19.1787 69.3448 18.688 69.8461 18.336C70.3581 17.984 70.9501 17.808 71.6221 17.808C72.3368 17.808 72.9661 17.984 73.5101 18.336C74.0541 18.688 74.4755 19.1787 74.7741 19.808C75.0835 20.4373 75.2381 21.168 75.2381 22C75.2381 22.8213 75.0835 23.552 74.7741 24.192C74.4755 24.8213 74.0541 25.312 73.5101 25.664C72.9661 26.016 72.3368 26.192 71.6221 26.192ZM71.3341 25.024C71.8355 25.024 72.2781 24.896 72.6621 24.64C73.0568 24.384 73.3661 24.0267 73.5901 23.568C73.8248 23.1093 73.9421 22.5867 73.9421 22C73.9421 21.4133 73.8301 20.8907 73.6061 20.432C73.3928 19.9733 73.0888 19.616 72.6941 19.36C72.2995 19.104 71.8515 18.976 71.3501 18.976C70.8808 18.976 70.4595 19.104 70.0861 19.36C69.7235 19.616 69.4355 19.9733 69.2221 20.432C69.0195 20.8907 68.9181 21.4133 68.9181 22C68.9181 22.5867 69.0195 23.1093 69.2221 23.568C69.4355 24.0267 69.7235 24.384 70.0861 24.64C70.4488 24.896 70.8648 25.024 71.3341 25.024ZM81.6193 26L81.5553 24.688V21.776C81.5553 21.1467 81.4859 20.6293 81.3473 20.224C81.2086 19.808 80.9899 19.4933 80.6913 19.28C80.3926 19.0667 80.0033 18.96 79.5233 18.96C79.0859 18.96 78.7073 19.0507 78.3873 19.232C78.0779 19.4027 77.8219 19.68 77.6193 20.064L76.4673 19.616C76.6699 19.2427 76.9153 18.9227 77.2033 18.656C77.4913 18.3787 77.8273 18.1707 78.2113 18.032C78.5953 17.8827 79.0326 17.808 79.5233 17.808C80.2699 17.808 80.8833 17.9573 81.3633 18.256C81.8539 18.544 82.2219 18.976 82.4673 19.552C82.7126 20.1173 82.8299 20.8213 82.8193 21.664L82.8033 26H81.6193ZM79.2193 26.192C78.2806 26.192 77.5446 25.9787 77.0113 25.552C76.4886 25.1147 76.2273 24.512 76.2273 23.744C76.2273 22.9333 76.4939 22.3147 77.0273 21.888C77.5713 21.4507 78.3286 21.232 79.2993 21.232H81.5873V22.304H79.5873C78.8406 22.304 78.3073 22.4267 77.9873 22.672C77.6779 22.9173 77.5233 23.2693 77.5233 23.728C77.5233 24.144 77.6779 24.4747 77.9873 24.72C78.2966 24.9547 78.7286 25.072 79.2833 25.072C79.7419 25.072 80.1419 24.976 80.4833 24.784C80.8246 24.5813 81.0859 24.2987 81.2673 23.936C81.4593 23.5627 81.5553 23.1253 81.5553 22.624H82.0993C82.0993 23.712 81.8539 24.5813 81.3633 25.232C80.8726 25.872 80.1579 26.192 79.2193 26.192ZM87.5355 26.192C86.7568 26.192 86.1542 25.9893 85.7275 25.584C85.3008 25.1787 85.0875 24.608 85.0875 23.872V15.504H86.3675V23.744C86.3675 24.1493 86.4742 24.464 86.6875 24.688C86.9115 24.9013 87.2208 25.008 87.6155 25.008C87.7435 25.008 87.8662 24.992 87.9835 24.96C88.1115 24.9173 88.2768 24.8213 88.4795 24.672L88.9755 25.712C88.6982 25.8933 88.4475 26.016 88.2235 26.08C87.9995 26.1547 87.7702 26.192 87.5355 26.192ZM83.6955 19.136V18H88.7675V19.136H83.6955ZM90.2544 26V14.8H91.5344V26H90.2544ZM95.8864 26V21.904H97.1664V26H95.8864ZM95.8864 21.904C95.8864 21.1147 95.7904 20.512 95.5984 20.096C95.417 19.68 95.1664 19.3973 94.8464 19.248C94.5264 19.088 94.1637 19.008 93.7584 19.008C93.0544 19.008 92.505 19.2587 92.1104 19.76C91.7264 20.2507 91.5344 20.9493 91.5344 21.856H90.9104C90.9104 21.0133 91.033 20.288 91.2784 19.68C91.5344 19.072 91.897 18.608 92.3664 18.288C92.8357 17.968 93.401 17.808 94.0624 17.808C94.681 17.808 95.225 17.936 95.6944 18.192C96.1637 18.4373 96.5264 18.832 96.7824 19.376C97.049 19.92 97.177 20.6347 97.1664 21.52V21.904H95.8864ZM98.9363 26V18H100.216V26H98.9363ZM99.5923 16.144C99.3789 16.144 99.1923 16.064 99.0323 15.904C98.8723 15.744 98.7923 15.5573 98.7923 15.344C98.7923 15.12 98.8723 14.9333 99.0323 14.784C99.1923 14.624 99.3789 14.544 99.5923 14.544C99.8163 14.544 100.003 14.624 100.152 14.784C100.312 14.9333 100.392 15.12 100.392 15.344C100.392 15.5573 100.312 15.744 100.152 15.904C100.003 16.064 99.8163 16.144 99.5923 16.144ZM101.855 26V24.976L106.575 19.12H101.855V18H108.239V18.992L103.503 24.88H108.271V26H101.855ZM113.298 26.192C112.52 26.192 111.832 26.016 111.234 25.664C110.637 25.3013 110.168 24.8053 109.826 24.176C109.496 23.5467 109.33 22.8213 109.33 22C109.33 21.1787 109.496 20.4533 109.826 19.824C110.168 19.1947 110.632 18.704 111.218 18.352C111.816 17.9893 112.498 17.808 113.266 17.808C114.013 17.808 114.658 17.9947 115.202 18.368C115.746 18.7307 116.168 19.2427 116.466 19.904C116.765 20.5653 116.914 21.344 116.914 22.24H110.306L110.626 21.968C110.626 22.608 110.738 23.1573 110.962 23.616C111.197 24.0747 111.522 24.4267 111.938 24.672C112.354 24.9067 112.829 25.024 113.362 25.024C113.928 25.024 114.402 24.8907 114.786 24.624C115.181 24.3573 115.485 24.0053 115.698 23.568L116.802 24.128C116.6 24.544 116.328 24.9067 115.986 25.216C115.656 25.5253 115.261 25.7653 114.802 25.936C114.354 26.1067 113.853 26.192 113.298 26.192ZM110.706 21.424L110.37 21.168H115.89L115.554 21.44C115.554 20.928 115.453 20.4853 115.25 20.112C115.048 19.7387 114.776 19.4507 114.434 19.248C114.093 19.0453 113.698 18.944 113.25 18.944C112.813 18.944 112.397 19.0453 112.002 19.248C111.618 19.4507 111.304 19.7387 111.058 20.112C110.824 20.4747 110.706 20.912 110.706 21.424Z" fill="white"/>
</svg>
