<svg width="1096" height="40" viewBox="0 0 1096 40" fill="none" xmlns="http://www.w3.org/2000/svg">
<rect x="994" width="102" height="40" rx="20" fill="#1A1A1A"/>
<path d="M1027.65 18.0328C1027.35 17.725 1027.05 17.4078 1026.93 17.1289C1026.83 16.8734 1026.82 16.45 1026.81 16.0398C1026.8 15.2773 1026.79 14.4133 1026.19 13.8125C1025.59 13.2117 1024.72 13.1992 1023.96 13.1875C1023.55 13.1812 1023.13 13.175 1022.87 13.0687C1022.59 12.9539 1022.27 12.6492 1021.97 12.3547C1021.43 11.8367 1020.82 11.25 1020 11.25C1019.18 11.25 1018.57 11.8367 1018.03 12.3547C1017.72 12.6492 1017.41 12.9539 1017.13 13.0687C1016.88 13.175 1016.45 13.1812 1016.04 13.1875C1015.28 13.1992 1014.41 13.2117 1013.81 13.8125C1013.21 14.4133 1013.2 15.2773 1013.19 16.0398C1013.18 16.45 1013.17 16.8734 1013.07 17.1289C1012.95 17.407 1012.65 17.725 1012.35 18.0328C1011.84 18.5719 1011.25 19.1844 1011.25 20C1011.25 20.8156 1011.84 21.4273 1012.35 21.9672C1012.65 22.275 1012.95 22.5922 1013.07 22.8711C1013.17 23.1266 1013.18 23.55 1013.19 23.9602C1013.2 24.7227 1013.21 25.5867 1013.81 26.1875C1014.41 26.7883 1015.28 26.8008 1016.04 26.8125C1016.45 26.8187 1016.87 26.825 1017.13 26.9313C1017.41 27.0461 1017.72 27.3508 1018.03 27.6453C1018.57 28.1633 1019.18 28.75 1020 28.75C1020.82 28.75 1021.43 28.1633 1021.97 27.6453C1022.27 27.3508 1022.59 27.0461 1022.87 26.9313C1023.13 26.825 1023.55 26.8187 1023.96 26.8125C1024.72 26.8008 1025.59 26.7883 1026.19 26.1875C1026.79 25.5867 1026.8 24.7227 1026.81 23.9602C1026.82 23.55 1026.83 23.1266 1026.93 22.8711C1027.05 22.593 1027.35 22.275 1027.65 21.9672C1028.16 21.4281 1028.75 20.8156 1028.75 20C1028.75 19.1844 1028.16 18.5727 1027.65 18.0328ZM1026.74 21.1023C1026.37 21.493 1025.98 21.8969 1025.78 22.393C1025.58 22.8695 1025.57 23.4141 1025.56 23.9414C1025.55 24.4883 1025.55 25.0609 1025.3 25.3031C1025.06 25.5453 1024.49 25.5547 1023.94 25.5625C1023.41 25.5703 1022.87 25.5789 1022.39 25.7758C1021.9 25.9812 1021.49 26.3687 1021.1 26.743C1020.71 27.1172 1020.31 27.5 1020 27.5C1019.69 27.5 1019.29 27.1156 1018.9 26.743C1018.51 26.3703 1018.1 25.9812 1017.61 25.7758C1017.13 25.5789 1016.59 25.5703 1016.06 25.5625C1015.51 25.5547 1014.94 25.5461 1014.7 25.3031C1014.45 25.0602 1014.45 24.4914 1014.44 23.9414C1014.43 23.4141 1014.42 22.8695 1014.22 22.393C1014.02 21.8969 1013.63 21.493 1013.26 21.1023C1012.88 20.7117 1012.5 20.3125 1012.5 20C1012.5 19.6875 1012.88 19.2852 1013.26 18.8977C1013.63 18.5102 1014.02 18.1031 1014.22 17.607C1014.42 17.1305 1014.43 16.5859 1014.44 16.0586C1014.45 15.5117 1014.45 14.9391 1014.7 14.6969C1014.94 14.4547 1015.51 14.4453 1016.06 14.4375C1016.59 14.4297 1017.13 14.4211 1017.61 14.2242C1018.1 14.0187 1018.51 13.6312 1018.9 13.257C1019.29 12.8828 1019.69 12.5 1020 12.5C1020.31 12.5 1020.71 12.8844 1021.1 13.257C1021.49 13.6297 1021.9 14.0187 1022.39 14.2242C1022.87 14.4211 1023.41 14.4297 1023.94 14.4375C1024.49 14.4453 1025.06 14.4539 1025.3 14.6969C1025.55 14.9398 1025.55 15.5086 1025.56 16.0586C1025.57 16.5859 1025.58 17.1305 1025.78 17.607C1025.98 18.1031 1026.37 18.507 1026.74 18.8977C1027.12 19.2883 1027.5 19.6875 1027.5 20C1027.5 20.3125 1027.12 20.7148 1026.74 21.1023ZM1023.57 17.6828C1023.63 17.7409 1023.67 17.8098 1023.7 17.8857C1023.73 17.9615 1023.75 18.0429 1023.75 18.125C1023.75 18.2071 1023.73 18.2885 1023.7 18.3643C1023.67 18.4402 1023.63 18.5091 1023.57 18.5672L1019.19 22.9422C1019.13 23.0003 1019.07 23.0464 1018.99 23.0779C1018.91 23.1093 1018.83 23.1255 1018.75 23.1255C1018.67 23.1255 1018.59 23.1093 1018.51 23.0779C1018.43 23.0464 1018.37 23.0003 1018.31 22.9422L1016.43 21.0672C1016.32 20.9499 1016.25 20.7909 1016.25 20.625C1016.25 20.4591 1016.32 20.3001 1016.43 20.1828C1016.55 20.0655 1016.71 19.9997 1016.88 19.9997C1017.04 19.9997 1017.2 20.0655 1017.32 20.1828L1018.75 21.6164L1022.68 17.6828C1022.74 17.6247 1022.81 17.5786 1022.89 17.5472C1022.96 17.5157 1023.04 17.4995 1023.12 17.4995C1023.21 17.4995 1023.29 17.5157 1023.36 17.5472C1023.44 17.5786 1023.51 17.6247 1023.57 17.6828Z" fill="white"/>
<path d="M1042.93 26L1047.5 14.8H1048.93L1044.29 26H1042.93ZM1042.78 26L1038.14 14.8H1039.57L1044.13 26H1042.78ZM1052.76 26.192C1051.98 26.192 1051.29 26.016 1050.69 25.664C1050.1 25.3013 1049.63 24.8053 1049.29 24.176C1048.95 23.5467 1048.79 22.8213 1048.79 22C1048.79 21.1787 1048.95 20.4533 1049.29 19.824C1049.63 19.1947 1050.09 18.704 1050.68 18.352C1051.27 17.9893 1051.96 17.808 1052.73 17.808C1053.47 17.808 1054.12 17.9947 1054.66 18.368C1055.21 18.7307 1055.63 19.2427 1055.93 19.904C1056.22 20.5653 1056.37 21.344 1056.37 22.24H1049.77L1050.09 21.968C1050.09 22.608 1050.2 23.1573 1050.42 23.616C1050.66 24.0747 1050.98 24.4267 1051.4 24.672C1051.81 24.9067 1052.29 25.024 1052.82 25.024C1053.39 25.024 1053.86 24.8907 1054.25 24.624C1054.64 24.3573 1054.94 24.0053 1055.16 23.568L1056.26 24.128C1056.06 24.544 1055.79 24.9067 1055.45 25.216C1055.11 25.5253 1054.72 25.7653 1054.26 25.936C1053.81 26.1067 1053.31 26.192 1052.76 26.192ZM1050.17 21.424L1049.83 21.168H1055.35L1055.01 21.44C1055.01 20.928 1054.91 20.4853 1054.71 20.112C1054.51 19.7387 1054.23 19.4507 1053.89 19.248C1053.55 19.0453 1053.16 18.944 1052.71 18.944C1052.27 18.944 1051.86 19.0453 1051.46 19.248C1051.08 19.4507 1050.76 19.7387 1050.52 20.112C1050.28 20.4747 1050.17 20.912 1050.17 21.424ZM1058.37 21.664C1058.37 20.8 1058.54 20.1013 1058.87 19.568C1059.2 19.024 1059.62 18.624 1060.13 18.368C1060.65 18.1013 1061.2 17.968 1061.78 17.968V19.168C1061.31 19.168 1060.86 19.248 1060.42 19.408C1059.99 19.5573 1059.64 19.808 1059.36 20.16C1059.09 20.512 1058.95 20.992 1058.95 21.6L1058.37 21.664ZM1057.67 26V18H1058.95V26H1057.67ZM1062.83 26V18H1064.11V26H1062.83ZM1063.49 16.144C1063.28 16.144 1063.09 16.064 1062.93 15.904C1062.77 15.744 1062.69 15.5573 1062.69 15.344C1062.69 15.12 1062.77 14.9333 1062.93 14.784C1063.09 14.624 1063.28 14.544 1063.49 14.544C1063.71 14.544 1063.9 14.624 1064.05 14.784C1064.21 14.9333 1064.29 15.12 1064.29 15.344C1064.29 15.5573 1064.21 15.744 1064.05 15.904C1063.9 16.064 1063.71 16.144 1063.49 16.144ZM1066.95 26V17.088C1066.95 16.256 1067.14 15.632 1067.53 15.216C1067.92 14.7893 1068.52 14.576 1069.32 14.576C1069.53 14.576 1069.77 14.6133 1070.04 14.688C1070.31 14.7627 1070.59 14.8693 1070.89 15.008L1070.41 16.016C1070.16 15.92 1069.96 15.8453 1069.78 15.792C1069.61 15.7387 1069.47 15.712 1069.35 15.712C1068.98 15.712 1068.7 15.8347 1068.5 16.08C1068.32 16.3147 1068.23 16.6827 1068.23 17.184V26H1066.95ZM1065.48 19.104V18H1070.55V19.104H1065.48ZM1072.46 29.392C1072.26 29.392 1072.02 29.3493 1071.75 29.264C1071.49 29.1893 1071.21 29.088 1070.91 28.96L1071.39 27.888C1071.63 27.9947 1071.85 28.0747 1072.03 28.128C1072.22 28.1813 1072.37 28.208 1072.47 28.208C1072.76 28.208 1073 28.128 1073.18 27.968C1073.37 27.8187 1073.53 27.6 1073.66 27.312L1074.57 25.136L1077.53 18H1078.91L1075.07 27.12C1074.86 27.5893 1074.65 27.9947 1074.43 28.336C1074.21 28.6773 1073.95 28.9387 1073.64 29.12C1073.33 29.3013 1072.94 29.392 1072.46 29.392ZM1074.22 26L1070.76 18H1072.12L1075.1 25.12L1075.48 26H1074.22Z" fill="white"/>
<line x1="863" y1="20.5" x2="994" y2="20.5" stroke="#1A1A1A"/>
<rect x="754" width="109" height="40" rx="20" fill="#1A1A1A"/>
<path d="M787.759 15.7318L784.268 12.2412C784.152 12.1251 784.014 12.033 783.862 11.9702C783.711 11.9073 783.548 11.875 783.384 11.875C783.22 11.875 783.057 11.9073 782.906 11.9702C782.754 12.033 782.616 12.1251 782.5 12.2412L772.866 21.8748C772.75 21.9905 772.657 22.1281 772.595 22.2798C772.532 22.4315 772.499 22.5942 772.5 22.7584V26.2498C772.5 26.5813 772.632 26.8993 772.866 27.1337C773.101 27.3681 773.418 27.4998 773.75 27.4998H786.875C787.041 27.4998 787.2 27.434 787.317 27.3168C787.434 27.1995 787.5 27.0406 787.5 26.8748C787.5 26.709 787.434 26.5501 787.317 26.4329C787.2 26.3157 787.041 26.2498 786.875 26.2498H779.009L787.759 17.4998C787.875 17.3837 787.968 17.2459 788.03 17.0942C788.093 16.9426 788.126 16.78 788.126 16.6158C788.126 16.4516 788.093 16.2891 788.03 16.1374C787.968 15.9857 787.875 15.8479 787.759 15.7318ZM777.241 26.2498H773.75V22.7584L780.625 15.8834L784.116 19.3748L777.241 26.2498ZM785 18.4912L781.509 14.9998L783.384 13.1248L786.875 16.6162L785 18.4912Z" fill="white"/>
<path d="M799.488 26V14.8H802.896C803.952 14.8 804.88 15.04 805.68 15.52C806.491 15.9893 807.125 16.6453 807.584 17.488C808.043 18.3307 808.272 19.3013 808.272 20.4C808.272 21.488 808.043 22.4533 807.584 23.296C807.125 24.1387 806.491 24.8 805.68 25.28C804.88 25.76 803.952 26 802.896 26H799.488ZM800.848 24.752H802.896C803.461 24.752 803.984 24.6453 804.464 24.432C804.944 24.208 805.365 23.8933 805.728 23.488C806.101 23.0827 806.389 22.6187 806.592 22.096C806.805 21.5627 806.912 20.9973 806.912 20.4C806.912 19.8027 806.805 19.2427 806.592 18.72C806.389 18.1867 806.101 17.7173 805.728 17.312C805.365 16.9067 804.944 16.5973 804.464 16.384C803.984 16.16 803.461 16.048 802.896 16.048H800.848V24.752ZM813.32 26.192C812.541 26.192 811.853 26.016 811.256 25.664C810.658 25.3013 810.189 24.8053 809.848 24.176C809.517 23.5467 809.352 22.8213 809.352 22C809.352 21.1787 809.517 20.4533 809.848 19.824C810.189 19.1947 810.653 18.704 811.24 18.352C811.837 17.9893 812.52 17.808 813.288 17.808C814.034 17.808 814.68 17.9947 815.224 18.368C815.768 18.7307 816.189 19.2427 816.488 19.904C816.786 20.5653 816.936 21.344 816.936 22.24H810.328L810.648 21.968C810.648 22.608 810.76 23.1573 810.984 23.616C811.218 24.0747 811.544 24.4267 811.96 24.672C812.376 24.9067 812.85 25.024 813.384 25.024C813.949 25.024 814.424 24.8907 814.808 24.624C815.202 24.3573 815.506 24.0053 815.72 23.568L816.824 24.128C816.621 24.544 816.349 24.9067 816.008 25.216C815.677 25.5253 815.282 25.7653 814.824 25.936C814.376 26.1067 813.874 26.192 813.32 26.192ZM810.728 21.424L810.392 21.168H815.912L815.576 21.44C815.576 20.928 815.474 20.4853 815.272 20.112C815.069 19.7387 814.797 19.4507 814.456 19.248C814.114 19.0453 813.72 18.944 813.272 18.944C812.834 18.944 812.418 19.0453 812.024 19.248C811.64 19.4507 811.325 19.7387 811.08 20.112C810.845 20.4747 810.728 20.912 810.728 21.424ZM821.03 26.192C820.443 26.192 819.931 26.1067 819.494 25.936C819.057 25.7547 818.689 25.52 818.39 25.232C818.102 24.944 817.894 24.6293 817.766 24.288L818.886 23.824C819.067 24.1867 819.339 24.48 819.702 24.704C820.065 24.928 820.465 25.04 820.902 25.04C821.403 25.04 821.825 24.944 822.166 24.752C822.507 24.5493 822.678 24.2667 822.678 23.904C822.678 23.5733 822.55 23.3067 822.294 23.104C822.049 22.9013 821.681 22.736 821.19 22.608L820.422 22.4C819.697 22.208 819.131 21.92 818.726 21.536C818.321 21.1413 818.118 20.6987 818.118 20.208C818.118 19.4507 818.363 18.864 818.854 18.448C819.355 18.0213 820.097 17.808 821.078 17.808C821.547 17.808 821.974 17.8773 822.358 18.016C822.742 18.1547 823.073 18.352 823.35 18.608C823.627 18.8533 823.83 19.1467 823.958 19.488L822.838 19.984C822.699 19.6213 822.47 19.36 822.15 19.2C821.83 19.04 821.441 18.96 820.982 18.96C820.491 18.96 820.107 19.0667 819.83 19.28C819.553 19.4827 819.414 19.7707 819.414 20.144C819.414 20.3573 819.526 20.56 819.75 20.752C819.985 20.9333 820.326 21.0827 820.774 21.2L821.574 21.408C822.097 21.536 822.534 21.728 822.886 21.984C823.238 22.2293 823.505 22.512 823.686 22.832C823.867 23.152 823.958 23.4933 823.958 23.856C823.958 24.336 823.83 24.752 823.574 25.104C823.318 25.456 822.971 25.728 822.534 25.92C822.097 26.1013 821.595 26.192 821.03 26.192ZM825.443 26V18H826.723V26H825.443ZM826.099 16.144C825.886 16.144 825.699 16.064 825.539 15.904C825.379 15.744 825.299 15.5573 825.299 15.344C825.299 15.12 825.379 14.9333 825.539 14.784C825.699 14.624 825.886 14.544 826.099 14.544C826.323 14.544 826.51 14.624 826.659 14.784C826.819 14.9333 826.899 15.12 826.899 15.344C826.899 15.5573 826.819 15.744 826.659 15.904C826.51 16.064 826.323 16.144 826.099 16.144ZM831.962 29.392C831.45 29.392 830.981 29.3387 830.554 29.232C830.138 29.136 829.781 29.024 829.482 28.896C829.194 28.7787 828.986 28.6773 828.858 28.592L829.338 27.552C829.477 27.6267 829.674 27.7173 829.93 27.824C830.186 27.9413 830.485 28.0373 830.826 28.112C831.178 28.1973 831.551 28.24 831.946 28.24C832.458 28.24 832.917 28.1333 833.322 27.92C833.738 27.7173 834.058 27.392 834.282 26.944C834.517 26.5067 834.634 25.9413 834.634 25.248V18H835.914V25.232C835.914 26.1493 835.743 26.9173 835.402 27.536C835.061 28.1547 834.591 28.6187 833.994 28.928C833.397 29.2373 832.719 29.392 831.962 29.392ZM831.914 25.936C831.199 25.936 830.57 25.7653 830.026 25.424C829.482 25.0827 829.055 24.608 828.746 24C828.447 23.3813 828.298 22.6773 828.298 21.888C828.298 21.0773 828.447 20.368 828.746 19.76C829.055 19.1413 829.482 18.6613 830.026 18.32C830.57 17.9787 831.199 17.808 831.914 17.808C832.586 17.808 833.173 17.9787 833.674 18.32C834.175 18.6613 834.565 19.1413 834.842 19.76C835.13 20.368 835.274 21.0773 835.274 21.888C835.274 22.688 835.13 23.392 834.842 24C834.565 24.608 834.175 25.0827 833.674 25.424C833.173 25.7653 832.586 25.936 831.914 25.936ZM832.218 24.832C832.687 24.832 833.103 24.704 833.466 24.448C833.829 24.192 834.111 23.8453 834.314 23.408C834.517 22.96 834.618 22.4427 834.618 21.856C834.618 21.2907 834.511 20.7893 834.298 20.352C834.095 19.904 833.813 19.5573 833.45 19.312C833.098 19.056 832.682 18.928 832.202 18.928C831.701 18.928 831.253 19.056 830.858 19.312C830.474 19.5573 830.17 19.904 829.946 20.352C829.733 20.7893 829.626 21.2907 829.626 21.856C829.626 22.4427 829.738 22.96 829.962 23.408C830.186 23.8453 830.49 24.192 830.874 24.448C831.269 24.704 831.717 24.832 832.218 24.832ZM837.833 26V18H839.033L839.113 19.472V26H837.833ZM843.449 26V21.904H844.729V26H843.449ZM843.449 21.904C843.449 21.1147 843.358 20.512 843.177 20.096C842.995 19.68 842.745 19.3973 842.425 19.248C842.105 19.088 841.742 19.008 841.337 19.008C840.633 19.008 840.083 19.2587 839.689 19.76C839.305 20.2507 839.113 20.9493 839.113 21.856H838.489C838.489 21.0133 838.611 20.288 838.857 19.68C839.102 19.072 839.459 18.608 839.929 18.288C840.398 17.968 840.963 17.808 841.625 17.808C842.254 17.808 842.798 17.936 843.257 18.192C843.726 18.4373 844.089 18.832 844.345 19.376C844.611 19.92 844.739 20.6347 844.729 21.52V21.904H843.449Z" fill="white"/>
<line x1="621" y1="20.5" x2="754" y2="20.5" stroke="#1A1A1A"/>
<rect x="509" width="112" height="40" rx="20" fill="#1A1A1A"/>
<path d="M542.5 19.9999C542.5 20.1656 542.434 20.3246 542.317 20.4418C542.2 20.559 542.041 20.6249 541.875 20.6249H535C534.834 20.6249 534.675 20.559 534.558 20.4418C534.441 20.3246 534.375 20.1656 534.375 19.9999C534.375 19.8341 534.441 19.6751 534.558 19.5579C534.675 19.4407 534.834 19.3749 535 19.3749H541.875C542.041 19.3749 542.2 19.4407 542.317 19.5579C542.434 19.6751 542.5 19.8341 542.5 19.9999ZM535 15.6249H541.875C542.041 15.6249 542.2 15.559 542.317 15.4418C542.434 15.3246 542.5 15.1656 542.5 14.9999C542.5 14.8341 542.434 14.6751 542.317 14.5579C542.2 14.4407 542.041 14.3749 541.875 14.3749H535C534.834 14.3749 534.675 14.4407 534.558 14.5579C534.441 14.6751 534.375 14.8341 534.375 14.9999C534.375 15.1656 534.441 15.3246 534.558 15.4418C534.675 15.559 534.834 15.6249 535 15.6249ZM541.875 24.3749H535C534.834 24.3749 534.675 24.4407 534.558 24.5579C534.441 24.6751 534.375 24.8341 534.375 24.9999C534.375 25.1656 534.441 25.3246 534.558 25.4418C534.675 25.559 534.834 25.6249 535 25.6249H541.875C542.041 25.6249 542.2 25.559 542.317 25.4418C542.434 25.3246 542.5 25.1656 542.5 24.9999C542.5 24.8341 542.434 24.6751 542.317 24.5579C542.2 24.4407 542.041 24.3749 541.875 24.3749ZM531.433 13.3077L529.375 15.3663L528.567 14.5577C528.45 14.4404 528.291 14.3745 528.125 14.3745C527.959 14.3745 527.8 14.4404 527.683 14.5577C527.566 14.6749 527.5 14.834 527.5 14.9999C527.5 15.1657 527.566 15.3248 527.683 15.442L528.933 16.692C528.991 16.7502 529.06 16.7963 529.136 16.8277C529.212 16.8592 529.293 16.8754 529.375 16.8754C529.457 16.8754 529.538 16.8592 529.614 16.8277C529.69 16.7963 529.759 16.7502 529.817 16.692L532.317 14.192C532.434 14.0748 532.5 13.9157 532.5 13.7499C532.5 13.584 532.434 13.4249 532.317 13.3077C532.2 13.1904 532.041 13.1245 531.875 13.1245C531.709 13.1245 531.55 13.1904 531.433 13.3077ZM531.433 18.3077L529.375 20.3663L528.567 19.5577C528.45 19.4404 528.291 19.3745 528.125 19.3745C527.959 19.3745 527.8 19.4404 527.683 19.5577C527.566 19.6749 527.5 19.834 527.5 19.9999C527.5 20.082 527.516 20.1633 527.547 20.2392C527.579 20.315 527.625 20.384 527.683 20.442L528.933 21.692C528.991 21.7502 529.06 21.7963 529.136 21.8277C529.212 21.8592 529.293 21.8754 529.375 21.8754C529.457 21.8754 529.538 21.8592 529.614 21.8277C529.69 21.7963 529.759 21.7502 529.817 21.692L532.317 19.192C532.434 19.0748 532.5 18.9157 532.5 18.7499C532.5 18.584 532.434 18.4249 532.317 18.3077C532.2 18.1904 532.041 18.1245 531.875 18.1245C531.709 18.1245 531.55 18.1904 531.433 18.3077ZM531.433 23.3077L529.375 25.3663L528.567 24.5577C528.509 24.4996 528.44 24.4535 528.364 24.4221C528.288 24.3907 528.207 24.3745 528.125 24.3745C528.043 24.3745 527.962 24.3907 527.886 24.4221C527.81 24.4535 527.741 24.4996 527.683 24.5577C527.625 24.6157 527.579 24.6847 527.547 24.7605C527.516 24.8364 527.5 24.9177 527.5 24.9999C527.5 25.082 527.516 25.1633 527.547 25.2392C527.579 25.315 527.625 25.384 527.683 25.442L528.933 26.692C528.991 26.7502 529.06 26.7963 529.136 26.8277C529.212 26.8592 529.293 26.8754 529.375 26.8754C529.457 26.8754 529.538 26.8592 529.614 26.8277C529.69 26.7963 529.759 26.7502 529.817 26.692L532.317 24.192C532.434 24.0748 532.5 23.9157 532.5 23.7499C532.5 23.584 532.434 23.4249 532.317 23.3077C532.2 23.1904 532.041 23.1245 531.875 23.1245C531.709 23.1245 531.55 23.1904 531.433 23.3077Z" fill="white"/>
<path d="M556.744 26V16.032H553.176V14.8H561.656V16.032H558.088V26H556.744ZM565.148 26.192C564.369 26.192 563.681 26.016 563.084 25.664C562.486 25.3013 562.017 24.8053 561.676 24.176C561.345 23.5467 561.18 22.8213 561.18 22C561.18 21.1787 561.345 20.4533 561.676 19.824C562.017 19.1947 562.481 18.704 563.068 18.352C563.665 17.9893 564.348 17.808 565.116 17.808C565.862 17.808 566.508 17.9947 567.052 18.368C567.596 18.7307 568.017 19.2427 568.316 19.904C568.614 20.5653 568.764 21.344 568.764 22.24H562.156L562.476 21.968C562.476 22.608 562.588 23.1573 562.812 23.616C563.046 24.0747 563.372 24.4267 563.788 24.672C564.204 24.9067 564.678 25.024 565.212 25.024C565.777 25.024 566.252 24.8907 566.636 24.624C567.03 24.3573 567.334 24.0053 567.548 23.568L568.652 24.128C568.449 24.544 568.177 24.9067 567.836 25.216C567.505 25.5253 567.11 25.7653 566.652 25.936C566.204 26.1067 565.702 26.192 565.148 26.192ZM562.556 21.424L562.22 21.168H567.74L567.404 21.44C567.404 20.928 567.302 20.4853 567.1 20.112C566.897 19.7387 566.625 19.4507 566.284 19.248C565.942 19.0453 565.548 18.944 565.1 18.944C564.662 18.944 564.246 19.0453 563.852 19.248C563.468 19.4507 563.153 19.7387 562.908 20.112C562.673 20.4747 562.556 20.912 562.556 21.424ZM572.858 26.192C572.271 26.192 571.759 26.1067 571.322 25.936C570.885 25.7547 570.517 25.52 570.218 25.232C569.93 24.944 569.722 24.6293 569.594 24.288L570.714 23.824C570.895 24.1867 571.167 24.48 571.53 24.704C571.893 24.928 572.293 25.04 572.73 25.04C573.231 25.04 573.653 24.944 573.994 24.752C574.335 24.5493 574.506 24.2667 574.506 23.904C574.506 23.5733 574.378 23.3067 574.122 23.104C573.877 22.9013 573.509 22.736 573.018 22.608L572.25 22.4C571.525 22.208 570.959 21.92 570.554 21.536C570.149 21.1413 569.946 20.6987 569.946 20.208C569.946 19.4507 570.191 18.864 570.682 18.448C571.183 18.0213 571.925 17.808 572.906 17.808C573.375 17.808 573.802 17.8773 574.186 18.016C574.57 18.1547 574.901 18.352 575.178 18.608C575.455 18.8533 575.658 19.1467 575.786 19.488L574.666 19.984C574.527 19.6213 574.298 19.36 573.978 19.2C573.658 19.04 573.269 18.96 572.81 18.96C572.319 18.96 571.935 19.0667 571.658 19.28C571.381 19.4827 571.242 19.7707 571.242 20.144C571.242 20.3573 571.354 20.56 571.578 20.752C571.813 20.9333 572.154 21.0827 572.602 21.2L573.402 21.408C573.925 21.536 574.362 21.728 574.714 21.984C575.066 22.2293 575.333 22.512 575.514 22.832C575.695 23.152 575.786 23.4933 575.786 23.856C575.786 24.336 575.658 24.752 575.402 25.104C575.146 25.456 574.799 25.728 574.362 25.92C573.925 26.1013 573.423 26.192 572.858 26.192ZM580.199 26.192C579.421 26.192 578.818 25.9893 578.391 25.584C577.965 25.1787 577.751 24.608 577.751 23.872V15.504H579.031V23.744C579.031 24.1493 579.138 24.464 579.351 24.688C579.575 24.9013 579.885 25.008 580.279 25.008C580.407 25.008 580.53 24.992 580.647 24.96C580.775 24.9173 580.941 24.8213 581.143 24.672L581.639 25.712C581.362 25.8933 581.111 26.016 580.887 26.08C580.663 26.1547 580.434 26.192 580.199 26.192ZM576.359 19.136V18H581.431V19.136H576.359ZM582.998 26V18H584.278V26H582.998ZM583.654 16.144C583.441 16.144 583.254 16.064 583.094 15.904C582.934 15.744 582.854 15.5573 582.854 15.344C582.854 15.12 582.934 14.9333 583.094 14.784C583.254 14.624 583.441 14.544 583.654 14.544C583.878 14.544 584.065 14.624 584.214 14.784C584.374 14.9333 584.454 15.12 584.454 15.344C584.454 15.5573 584.374 15.744 584.214 15.904C584.065 16.064 583.878 16.144 583.654 16.144ZM586.317 26V18H587.517L587.597 19.472V26H586.317ZM591.933 26V21.904H593.213V26H591.933ZM591.933 21.904C591.933 21.1147 591.842 20.512 591.661 20.096C591.48 19.68 591.229 19.3973 590.909 19.248C590.589 19.088 590.226 19.008 589.821 19.008C589.117 19.008 588.568 19.2587 588.173 19.76C587.789 20.2507 587.597 20.9493 587.597 21.856H586.973C586.973 21.0133 587.096 20.288 587.341 19.68C587.586 19.072 587.944 18.608 588.413 18.288C588.882 17.968 589.448 17.808 590.109 17.808C590.738 17.808 591.282 17.936 591.741 18.192C592.21 18.4373 592.573 18.832 592.829 19.376C593.096 19.92 593.224 20.6347 593.213 21.52V21.904H591.933ZM598.119 29.392C597.607 29.392 597.137 29.3387 596.711 29.232C596.295 29.136 595.937 29.024 595.639 28.896C595.351 28.7787 595.143 28.6773 595.015 28.592L595.495 27.552C595.633 27.6267 595.831 27.7173 596.087 27.824C596.343 27.9413 596.641 28.0373 596.983 28.112C597.335 28.1973 597.708 28.24 598.103 28.24C598.615 28.24 599.073 28.1333 599.479 27.92C599.895 27.7173 600.215 27.392 600.439 26.944C600.673 26.5067 600.791 25.9413 600.791 25.248V18H602.071V25.232C602.071 26.1493 601.9 26.9173 601.559 27.536C601.217 28.1547 600.748 28.6187 600.151 28.928C599.553 29.2373 598.876 29.392 598.119 29.392ZM598.071 25.936C597.356 25.936 596.727 25.7653 596.183 25.424C595.639 25.0827 595.212 24.608 594.903 24C594.604 23.3813 594.455 22.6773 594.455 21.888C594.455 21.0773 594.604 20.368 594.903 19.76C595.212 19.1413 595.639 18.6613 596.183 18.32C596.727 17.9787 597.356 17.808 598.071 17.808C598.743 17.808 599.329 17.9787 599.831 18.32C600.332 18.6613 600.721 19.1413 600.999 19.76C601.287 20.368 601.431 21.0773 601.431 21.888C601.431 22.688 601.287 23.392 600.999 24C600.721 24.608 600.332 25.0827 599.831 25.424C599.329 25.7653 598.743 25.936 598.071 25.936ZM598.375 24.832C598.844 24.832 599.26 24.704 599.623 24.448C599.985 24.192 600.268 23.8453 600.471 23.408C600.673 22.96 600.775 22.4427 600.775 21.856C600.775 21.2907 600.668 20.7893 600.455 20.352C600.252 19.904 599.969 19.5573 599.607 19.312C599.255 19.056 598.839 18.928 598.359 18.928C597.857 18.928 597.409 19.056 597.015 19.312C596.631 19.5573 596.327 19.904 596.103 20.352C595.889 20.7893 595.783 21.2907 595.783 21.856C595.783 22.4427 595.895 22.96 596.119 23.408C596.343 23.8453 596.647 24.192 597.031 24.448C597.425 24.704 597.873 24.832 598.375 24.832Z" fill="white"/>
<line x1="376" y1="20.5" x2="509" y2="20.5" stroke="#1A1A1A"/>
<rect x="269" width="107" height="40" rx="20" fill="#1A1A1A"/>
<path d="M298.75 28.125C298.75 28.2908 298.684 28.4498 298.567 28.567C298.45 28.6842 298.291 28.75 298.125 28.75H291.875C291.709 28.75 291.55 28.6842 291.433 28.567C291.316 28.4498 291.25 28.2908 291.25 28.125C291.25 27.9593 291.316 27.8003 291.433 27.6831C291.55 27.5659 291.709 27.5 291.875 27.5H298.125C298.291 27.5 298.45 27.5659 298.567 27.6831C298.684 27.8003 298.75 27.9593 298.75 28.125ZM301.875 18.125C301.878 19.167 301.642 20.1957 301.187 21.1328C300.731 22.0699 300.068 22.8905 299.247 23.5321C299.093 23.6497 298.969 23.8009 298.883 23.9741C298.797 24.1473 298.751 24.3379 298.75 24.5313V25C298.75 25.3316 298.618 25.6495 298.384 25.8839C298.149 26.1183 297.832 26.25 297.5 26.25H292.5C292.168 26.25 291.851 26.1183 291.616 25.8839C291.382 25.6495 291.25 25.3316 291.25 25V24.5313C291.25 24.3402 291.206 24.1517 291.122 23.9802C291.037 23.8088 290.915 23.6589 290.763 23.5422C289.944 22.9045 289.281 22.0887 288.824 21.1568C288.367 20.2249 288.128 19.2013 288.125 18.1633C288.105 14.4399 291.114 11.3391 294.834 11.25C295.751 11.228 296.663 11.3895 297.516 11.7251C298.37 12.0607 299.147 12.5636 299.803 13.2042C300.459 13.8448 300.98 14.6102 301.336 15.4553C301.692 16.3004 301.875 17.2081 301.875 18.125ZM300.625 18.125C300.625 17.3748 300.475 16.6321 300.184 15.9406C299.893 15.2491 299.467 14.6229 298.93 14.0987C298.393 13.5746 297.757 13.1631 297.058 12.8886C296.36 12.614 295.614 12.4819 294.864 12.5C291.817 12.5719 289.359 15.1086 289.375 18.1555C289.378 19.0044 289.574 19.8415 289.948 20.6036C290.322 21.3656 290.864 22.0325 291.534 22.5539C291.836 22.788 292.079 23.0879 292.246 23.4307C292.414 23.7734 292.501 24.1499 292.5 24.5313V25H297.5V24.5313C297.501 24.1488 297.589 23.7715 297.758 23.4283C297.927 23.0851 298.172 22.785 298.474 22.5508C299.146 22.0257 299.689 21.354 300.062 20.5869C300.435 19.8199 300.627 18.9778 300.625 18.125ZM299.366 17.3954C299.204 16.4901 298.769 15.6563 298.118 15.0061C297.468 14.3558 296.634 13.9205 295.729 13.7586C295.648 13.745 295.565 13.7474 295.485 13.7658C295.405 13.7842 295.33 13.8181 295.263 13.8657C295.196 13.9133 295.139 13.9736 295.095 14.0432C295.052 14.1127 295.022 14.1902 295.009 14.2711C294.995 14.3521 294.997 14.4349 295.016 14.5149C295.034 14.5949 295.068 14.6705 295.116 14.7374C295.163 14.8043 295.224 14.8612 295.293 14.9048C295.363 14.9483 295.44 14.9778 295.521 14.9914C296.816 15.2094 297.914 16.3079 298.134 17.6047C298.158 17.7503 298.234 17.8824 298.347 17.9776C298.459 18.0729 298.602 18.1251 298.75 18.125C298.785 18.1248 298.821 18.122 298.855 18.1164C299.019 18.0886 299.164 17.9969 299.26 17.8617C299.356 17.7265 299.394 17.5587 299.366 17.3954Z" fill="white"/>
<path d="M314.488 24V12.8H317.896C318.952 12.8 319.88 13.04 320.68 13.52C321.491 13.9893 322.125 14.6453 322.584 15.488C323.043 16.3307 323.272 17.3013 323.272 18.4C323.272 19.488 323.043 20.4533 322.584 21.296C322.125 22.1387 321.491 22.8 320.68 23.28C319.88 23.76 318.952 24 317.896 24H314.488ZM315.848 22.752H317.896C318.461 22.752 318.984 22.6453 319.464 22.432C319.944 22.208 320.365 21.8933 320.728 21.488C321.101 21.0827 321.389 20.6187 321.592 20.096C321.805 19.5627 321.912 18.9973 321.912 18.4C321.912 17.8027 321.805 17.2427 321.592 16.72C321.389 16.1867 321.101 15.7173 320.728 15.312C320.365 14.9067 319.944 14.5973 319.464 14.384C318.984 14.16 318.461 14.048 317.896 14.048H315.848V22.752ZM328.32 24.192C327.541 24.192 326.853 24.016 326.256 23.664C325.658 23.3013 325.189 22.8053 324.848 22.176C324.517 21.5467 324.352 20.8213 324.352 20C324.352 19.1787 324.517 18.4533 324.848 17.824C325.189 17.1947 325.653 16.704 326.24 16.352C326.837 15.9893 327.52 15.808 328.288 15.808C329.034 15.808 329.68 15.9947 330.224 16.368C330.768 16.7307 331.189 17.2427 331.488 17.904C331.786 18.5653 331.936 19.344 331.936 20.24H325.328L325.648 19.968C325.648 20.608 325.76 21.1573 325.984 21.616C326.218 22.0747 326.544 22.4267 326.96 22.672C327.376 22.9067 327.85 23.024 328.384 23.024C328.949 23.024 329.424 22.8907 329.808 22.624C330.202 22.3573 330.506 22.0053 330.72 21.568L331.824 22.128C331.621 22.544 331.349 22.9067 331.008 23.216C330.677 23.5253 330.282 23.7653 329.824 23.936C329.376 24.1067 328.874 24.192 328.32 24.192ZM325.728 19.424L325.392 19.168H330.912L330.576 19.44C330.576 18.928 330.474 18.4853 330.272 18.112C330.069 17.7387 329.797 17.4507 329.456 17.248C329.114 17.0453 328.72 16.944 328.272 16.944C327.834 16.944 327.418 17.0453 327.024 17.248C326.64 17.4507 326.325 17.7387 326.08 18.112C325.845 18.4747 325.728 18.912 325.728 19.424ZM334.03 24V15.088C334.03 14.256 334.222 13.632 334.606 13.216C335.001 12.7893 335.598 12.576 336.398 12.576C336.611 12.576 336.851 12.6133 337.118 12.688C337.385 12.7627 337.667 12.8693 337.966 13.008L337.486 14.016C337.241 13.92 337.033 13.8453 336.862 13.792C336.691 13.7387 336.547 13.712 336.43 13.712C336.057 13.712 335.774 13.8347 335.582 14.08C335.401 14.3147 335.31 14.6827 335.31 15.184V24H334.03ZM332.558 17.104V16H337.63V17.104H332.558ZM338.896 24V16H340.176V24H338.896ZM339.552 14.144C339.339 14.144 339.152 14.064 338.992 13.904C338.832 13.744 338.752 13.5573 338.752 13.344C338.752 13.12 338.832 12.9333 338.992 12.784C339.152 12.624 339.339 12.544 339.552 12.544C339.776 12.544 339.963 12.624 340.112 12.784C340.272 12.9333 340.352 13.12 340.352 13.344C340.352 13.5573 340.272 13.744 340.112 13.904C339.963 14.064 339.776 14.144 339.552 14.144ZM342.215 24V16H343.415L343.495 17.472V24H342.215ZM347.831 24V19.904H349.111V24H347.831ZM347.831 19.904C347.831 19.1147 347.74 18.512 347.559 18.096C347.378 17.68 347.127 17.3973 346.807 17.248C346.487 17.088 346.124 17.008 345.719 17.008C345.015 17.008 344.466 17.2587 344.071 17.76C343.687 18.2507 343.495 18.9493 343.495 19.856H342.871C342.871 19.0133 342.994 18.288 343.239 17.68C343.484 17.072 343.842 16.608 344.311 16.288C344.78 15.968 345.346 15.808 346.007 15.808C346.636 15.808 347.18 15.936 347.639 16.192C348.108 16.4373 348.471 16.832 348.727 17.376C348.994 17.92 349.122 18.6347 349.111 19.52V19.904H347.831ZM354.321 24.192C353.542 24.192 352.854 24.016 352.257 23.664C351.66 23.3013 351.19 22.8053 350.849 22.176C350.518 21.5467 350.353 20.8213 350.353 20C350.353 19.1787 350.518 18.4533 350.849 17.824C351.19 17.1947 351.654 16.704 352.241 16.352C352.838 15.9893 353.521 15.808 354.289 15.808C355.036 15.808 355.681 15.9947 356.225 16.368C356.769 16.7307 357.19 17.2427 357.489 17.904C357.788 18.5653 357.937 19.344 357.937 20.24H351.329L351.649 19.968C351.649 20.608 351.761 21.1573 351.985 21.616C352.22 22.0747 352.545 22.4267 352.961 22.672C353.377 22.9067 353.852 23.024 354.385 23.024C354.95 23.024 355.425 22.8907 355.809 22.624C356.204 22.3573 356.508 22.0053 356.721 21.568L357.825 22.128C357.622 22.544 357.35 22.9067 357.009 23.216C356.678 23.5253 356.284 23.7653 355.825 23.936C355.377 24.1067 354.876 24.192 354.321 24.192ZM351.729 19.424L351.393 19.168H356.913L356.577 19.44C356.577 18.928 356.476 18.4853 356.273 18.112C356.07 17.7387 355.798 17.4507 355.457 17.248C355.116 17.0453 354.721 16.944 354.273 16.944C353.836 16.944 353.42 17.0453 353.025 17.248C352.641 17.4507 352.326 17.7387 352.081 18.112C351.846 18.4747 351.729 18.912 351.729 19.424Z" fill="white"/>
<line x1="136" y1="20.5" x2="269" y2="20.5" stroke="#1A1A1A"/>
<rect x="0.5" y="0.5" width="135" height="39" rx="19.5" fill="#1A1A1A"/>
<rect x="0.5" y="0.5" width="135" height="39" rx="19.5" stroke="#1A1A1A"/>
<path d="M33.9511 27.0668L30.0394 23.1558C31.1731 21.7947 31.7385 20.0488 31.6178 18.2814C31.4972 16.514 30.6998 14.8612 29.3915 13.6668C28.0833 12.4723 26.3649 11.8282 24.5938 11.8685C22.8228 11.9087 21.1354 12.6302 19.8828 13.8829C18.6302 15.1355 17.9087 16.8228 17.8684 18.5939C17.8282 20.3649 18.4723 22.0833 19.6667 23.3916C20.8611 24.6998 22.514 25.4972 24.2814 25.6179C26.0487 25.7386 27.7946 25.1732 29.1558 24.0394L33.0667 27.9512C33.1248 28.0092 33.1937 28.0553 33.2696 28.0867C33.3455 28.1181 33.4268 28.1343 33.5089 28.1343C33.591 28.1343 33.6723 28.1181 33.7482 28.0867C33.8241 28.0553 33.893 28.0092 33.9511 27.9512C34.0092 27.8931 34.0552 27.8241 34.0867 27.7483C34.1181 27.6724 34.1343 27.5911 34.1343 27.509C34.1343 27.4268 34.1181 27.3455 34.0867 27.2697C34.0552 27.1938 34.0092 27.1248 33.9511 27.0668ZM19.1339 18.759C19.1339 17.6464 19.4638 16.5589 20.0819 15.6339C20.7 14.7089 21.5785 13.9879 22.6063 13.5621C23.6341 13.1364 24.7651 13.025 25.8563 13.2421C26.9474 13.4591 27.9497 13.9948 28.7364 14.7815C29.5231 15.5682 30.0588 16.5704 30.2758 17.6616C30.4929 18.7527 30.3815 19.8837 29.9557 20.9116C29.53 21.9394 28.809 22.8179 27.884 23.436C26.959 24.0541 25.8714 24.384 24.7589 24.384C23.2676 24.3823 21.8378 23.7892 20.7833 22.7346C19.7287 21.6801 19.1356 20.2503 19.1339 18.759Z" fill="#FFFBF3"/>
<path d="M45.488 26V14.8H52.112V16.032H46.848V19.648H51.648V20.864H46.848V24.768H52.144V26H45.488ZM54.2688 26V18H55.4688L55.5328 19.12C55.7781 18.6933 56.0928 18.368 56.4768 18.144C56.8608 17.92 57.3088 17.808 57.8208 17.808C58.4608 17.808 59.0048 17.9573 59.4528 18.256C59.9114 18.5547 60.2421 19.008 60.4448 19.616C60.6688 19.0293 60.9941 18.5813 61.4208 18.272C61.8581 17.9627 62.3754 17.808 62.9728 17.808C63.8688 17.808 64.5728 18.1067 65.0848 18.704C65.6074 19.3013 65.8634 20.208 65.8528 21.424V26H64.5728V21.904C64.5728 21.1147 64.4874 20.512 64.3168 20.096C64.1568 19.68 63.9381 19.3973 63.6608 19.248C63.3834 19.088 63.0634 19.008 62.7008 19.008C62.0714 19.008 61.5808 19.2587 61.2288 19.76C60.8768 20.2507 60.7008 20.9493 60.7008 21.856V26H59.4208V21.904C59.4208 21.1147 59.3354 20.512 59.1648 20.096C59.0048 19.68 58.7808 19.3973 58.4928 19.248C58.2154 19.088 57.8954 19.008 57.5328 19.008C56.9141 19.008 56.4288 19.2587 56.0768 19.76C55.7248 20.2507 55.5488 20.9493 55.5488 21.856V26H54.2688ZM67.6381 29.2V18H68.8381L68.9181 19.472V29.2H67.6381ZM71.6221 26.192C70.9501 26.192 70.3581 26.016 69.8461 25.664C69.3448 25.312 68.9555 24.8213 68.6781 24.192C68.4008 23.552 68.2621 22.8213 68.2621 22C68.2621 21.168 68.4008 20.4373 68.6781 19.808C68.9555 19.1787 69.3448 18.688 69.8461 18.336C70.3581 17.984 70.9501 17.808 71.6221 17.808C72.3368 17.808 72.9661 17.984 73.5101 18.336C74.0541 18.688 74.4755 19.1787 74.7741 19.808C75.0835 20.4373 75.2381 21.168 75.2381 22C75.2381 22.8213 75.0835 23.552 74.7741 24.192C74.4755 24.8213 74.0541 25.312 73.5101 25.664C72.9661 26.016 72.3368 26.192 71.6221 26.192ZM71.3341 25.024C71.8355 25.024 72.2781 24.896 72.6621 24.64C73.0568 24.384 73.3661 24.0267 73.5901 23.568C73.8248 23.1093 73.9421 22.5867 73.9421 22C73.9421 21.4133 73.8301 20.8907 73.6061 20.432C73.3928 19.9733 73.0888 19.616 72.6941 19.36C72.2995 19.104 71.8515 18.976 71.3501 18.976C70.8808 18.976 70.4595 19.104 70.0861 19.36C69.7235 19.616 69.4355 19.9733 69.2221 20.432C69.0195 20.8907 68.9181 21.4133 68.9181 22C68.9181 22.5867 69.0195 23.1093 69.2221 23.568C69.4355 24.0267 69.7235 24.384 70.0861 24.64C70.4488 24.896 70.8648 25.024 71.3341 25.024ZM81.6193 26L81.5553 24.688V21.776C81.5553 21.1467 81.4859 20.6293 81.3473 20.224C81.2086 19.808 80.9899 19.4933 80.6913 19.28C80.3926 19.0667 80.0033 18.96 79.5233 18.96C79.0859 18.96 78.7073 19.0507 78.3873 19.232C78.0779 19.4027 77.8219 19.68 77.6193 20.064L76.4673 19.616C76.6699 19.2427 76.9153 18.9227 77.2033 18.656C77.4913 18.3787 77.8273 18.1707 78.2113 18.032C78.5953 17.8827 79.0326 17.808 79.5233 17.808C80.2699 17.808 80.8833 17.9573 81.3633 18.256C81.8539 18.544 82.2219 18.976 82.4673 19.552C82.7126 20.1173 82.8299 20.8213 82.8193 21.664L82.8033 26H81.6193ZM79.2193 26.192C78.2806 26.192 77.5446 25.9787 77.0113 25.552C76.4886 25.1147 76.2273 24.512 76.2273 23.744C76.2273 22.9333 76.4939 22.3147 77.0273 21.888C77.5713 21.4507 78.3286 21.232 79.2993 21.232H81.5873V22.304H79.5873C78.8406 22.304 78.3073 22.4267 77.9873 22.672C77.6779 22.9173 77.5233 23.2693 77.5233 23.728C77.5233 24.144 77.6779 24.4747 77.9873 24.72C78.2966 24.9547 78.7286 25.072 79.2833 25.072C79.7419 25.072 80.1419 24.976 80.4833 24.784C80.8246 24.5813 81.0859 24.2987 81.2673 23.936C81.4593 23.5627 81.5553 23.1253 81.5553 22.624H82.0993C82.0993 23.712 81.8539 24.5813 81.3633 25.232C80.8726 25.872 80.1579 26.192 79.2193 26.192ZM87.5355 26.192C86.7568 26.192 86.1542 25.9893 85.7275 25.584C85.3008 25.1787 85.0875 24.608 85.0875 23.872V15.504H86.3675V23.744C86.3675 24.1493 86.4742 24.464 86.6875 24.688C86.9115 24.9013 87.2208 25.008 87.6155 25.008C87.7435 25.008 87.8662 24.992 87.9835 24.96C88.1115 24.9173 88.2768 24.8213 88.4795 24.672L88.9755 25.712C88.6982 25.8933 88.4475 26.016 88.2235 26.08C87.9995 26.1547 87.7702 26.192 87.5355 26.192ZM83.6955 19.136V18H88.7675V19.136H83.6955ZM90.2544 26V14.8H91.5344V26H90.2544ZM95.8864 26V21.904H97.1664V26H95.8864ZM95.8864 21.904C95.8864 21.1147 95.7904 20.512 95.5984 20.096C95.417 19.68 95.1664 19.3973 94.8464 19.248C94.5264 19.088 94.1637 19.008 93.7584 19.008C93.0544 19.008 92.505 19.2587 92.1104 19.76C91.7264 20.2507 91.5344 20.9493 91.5344 21.856H90.9104C90.9104 21.0133 91.033 20.288 91.2784 19.68C91.5344 19.072 91.897 18.608 92.3664 18.288C92.8357 17.968 93.401 17.808 94.0624 17.808C94.681 17.808 95.225 17.936 95.6944 18.192C96.1637 18.4373 96.5264 18.832 96.7824 19.376C97.049 19.92 97.177 20.6347 97.1664 21.52V21.904H95.8864ZM98.9363 26V18H100.216V26H98.9363ZM99.5923 16.144C99.3789 16.144 99.1923 16.064 99.0323 15.904C98.8723 15.744 98.7923 15.5573 98.7923 15.344C98.7923 15.12 98.8723 14.9333 99.0323 14.784C99.1923 14.624 99.3789 14.544 99.5923 14.544C99.8163 14.544 100.003 14.624 100.152 14.784C100.312 14.9333 100.392 15.12 100.392 15.344C100.392 15.5573 100.312 15.744 100.152 15.904C100.003 16.064 99.8163 16.144 99.5923 16.144ZM101.855 26V24.976L106.575 19.12H101.855V18H108.239V18.992L103.503 24.88H108.271V26H101.855ZM113.298 26.192C112.52 26.192 111.832 26.016 111.234 25.664C110.637 25.3013 110.168 24.8053 109.826 24.176C109.496 23.5467 109.33 22.8213 109.33 22C109.33 21.1787 109.496 20.4533 109.826 19.824C110.168 19.1947 110.632 18.704 111.218 18.352C111.816 17.9893 112.498 17.808 113.266 17.808C114.013 17.808 114.658 17.9947 115.202 18.368C115.746 18.7307 116.168 19.2427 116.466 19.904C116.765 20.5653 116.914 21.344 116.914 22.24H110.306L110.626 21.968C110.626 22.608 110.738 23.1573 110.962 23.616C111.197 24.0747 111.522 24.4267 111.938 24.672C112.354 24.9067 112.829 25.024 113.362 25.024C113.928 25.024 114.402 24.8907 114.786 24.624C115.181 24.3573 115.485 24.0053 115.698 23.568L116.802 24.128C116.6 24.544 116.328 24.9067 115.986 25.216C115.656 25.5253 115.261 25.7653 114.802 25.936C114.354 26.1067 113.853 26.192 113.298 26.192ZM110.706 21.424L110.37 21.168H115.89L115.554 21.44C115.554 20.928 115.453 20.4853 115.25 20.112C115.048 19.7387 114.776 19.4507 114.434 19.248C114.093 19.0453 113.698 18.944 113.25 18.944C112.813 18.944 112.397 19.0453 112.002 19.248C111.618 19.4507 111.304 19.7387 111.058 20.112C110.824 20.4747 110.706 20.912 110.706 21.424Z" fill="white"/>
</svg>
